{
copyright = "~";
customParameters = (
{
name = glyphOrder;
value = (
    knA,
    knAA,
    knI,
    knII,
    knU,
    knUU,
    knvR,
    knvRR,
    knvL,
    knvLL,
    knE,
    knEE,
    knAI,
    knO,
    knOO,
    knAU,
    knmAA,
    knmI,
    knmII,
    knmU,
    knmUU,
    knmvR,
    knmvRR,
    knmvL,
    knmvLL,
    knmE,
    knmEE,
    knmAI,
    knmO,
    knmOO,
    knmAU,
    knLengthmark,
    knAIlengthmark,
    knKA,
    knKHA,
    knGA,
    knGHA,
    knNGA,
    knCA,
    knCHA,
    knJA,
    knJHA,
    knNYA,
    knTTA,
    knTTHA,
    knDDA,
    knDDHA,
    knNNA,
    knTA,
    knTHA,
    knDA,
    knDHA,
    knNA,
    knPA,
    knPHA,
    knBA,
    knBHA,
    knMA,
    knYA,
    knRA,
    knLA,
    knVA,
    knSHA,
    knSSA,
    knSA,
    knHA,
    knRRA,
    knLLA,
    knLLLA,
    knAnusvara,
    knCandrabindu,
    knVisarga,
    knAvagraha,
    knVirama,
    knNukta,
    knZero,
    knOne,
    knTwo,
    knThree,
    knFour,
    knFive,
    knSix,
    knSeven,
    knEight,
    knNine,
    knReph,
    knKAc2,
    knKHAc2,
    knGAc2,
    knGHAc2,
    knNGAc2,
    knCAc2,
    knCHAc2,
    knJAc2,
    knJHAc2,
    knNYAc2,
    knTTAc2,
    knTTHAc2,
    knDDAc2,
    knDDHAc2,
    knNNAc2,
    knTAc2,
    knTHAc2,
    knDAc2,
    knDHAc2,
    knNAc2,
    knPAc2,
    knPHAc2,
    knBAc2,
    knBHAc2,
    knMAc2,
    knYAc2,
    knRAc2,
    knLAc2,
    knVAc2,
    knSHAc2,
    knSSAc2,
    knSAc2,
    knHAc2,
    knRRAc2,
    knLLAc2,
    knLLLAc2,
    knKAA,
    knKHAA,
    knGAA,
    knGHAA,
    knNGAA,
    knCAA,
    knCHAA,
    knJAA,
    knJHAA,
    knNYAA,
    knTTAA,
    knTTHAA,
    knDDAA,
    knDDHAA,
    knNNAA,
    knTAA,
    knTHAA,
    knDAA,
    knDHAA,
    knNAA,
    knPAA,
    knPHAA,
    knBAA,
    knBHAA,
    knMAA,
    knYAA,
    knRAA,
    knLAA,
    knVAA,
    knSHAA,
    knSSAA,
    knSAA,
    knHAA,
    knRRAA,
    knLLAA,
    knLLLAA,
    knKI,
    knKHI,
    knGI,
    knGHI,
    knNGI,
    knCI,
    knCHI,
    knJI,

glyphs = (
{
glyphname = knA;
lastChange = "2015-07-03 09:44:08 +0000";
layers = (
{
background = {
paths = (
{
closed = 1;
nodes = (
"656 -11 OFFCURVE",
"854 125 OFFCURVE",
"854 352 CURVE SMOOTH",
"854 470 OFFCURVE",
"784 586 OFFCURVE",
"634 586 CURVE SMOOTH",
"520 586 OFFCURVE",
"462 517 OFFCURVE",
"462 444 CURVE SMOOTH",
"462 379 OFFCURVE",
"512 335 OFFCURVE",
"580 330 CURVE",
"656 357 LINE",
"615 362 OFFCURVE",
"590 390 OFFCURVE",
"590 425 CURVE SMOOTH",
"590 459 OFFCURVE",
"609 483 OFFCURVE",
"643 483 CURVE SMOOTH",
"690 483 OFFCURVE",
"715 428 OFFCURVE",
"715 362 CURVE SMOOTH",
"715 224 OFFCURVE",
"628 104 OFFCURVE",
"439 104 CURVE SMOOTH",
"307 104 OFFCURVE",
"171 178 OFFCURVE",
"171 311 CURVE SMOOTH",
"171 321 OFFCURVE",
"174 333 OFFCURVE",
"180 345 CURVE",
"158 341 LINE",
"165 284 OFFCURVE",
"220 262 OFFCURVE",
"269 262 CURVE SMOOTH",
"361 262 OFFCURVE",
"419 330 OFFCURVE",
"419 421 CURVE SMOOTH",
"419 502 OFFCURVE",
"360 586 OFFCURVE",
"251 586 CURVE SMOOTH",
"99 586 OFFCURVE",
"31 462 OFFCURVE",
"31 335 CURVE SMOOTH",
"31 111 OFFCURVE",
"216 -11 OFFCURVE",
"439 -11 CURVE SMOOTH"
);
},
{
closed = 1;
nodes = (
"201 360 OFFCURVE",
"182 384 OFFCURVE",
"182 416 CURVE SMOOTH",
"182 445 OFFCURVE",
"201 474 OFFCURVE",
"232 474 CURVE SMOOTH",
"268 474 OFFCURVE",
"285 449 OFFCURVE",
"285 418 CURVE SMOOTH",
"285 387 OFFCURVE",
"270 360 OFFCURVE",
"235 360 CURVE SMOOTH"
);
},
{
closed = 1;
nodes = (
"656 245 LINE",
"656 357 LINE",
"444 357 LINE",
"444 245 LINE"
);
}
);
};
layerId = "9609CB55-EFEB-482C-9A6C-237B4D7F8578";
name = Bold;
paths = (
{
closed = 1;
nodes = (
"638 -11 OFFCURVE",
"853 117 OFFCURVE",
"853 348 CURVE SMOOTH",
"853 460 OFFCURVE",
"785 586 OFFCURVE",
"633 586 CURVE SMOOTH",
"519 586 OFFCURVE",
"461 517 OFFCURVE",
"461 444 CURVE SMOOTH",
"461 379 OFFCURVE",
"511 335 OFFCURVE",
"579 330 CURVE",
"655 357 LINE",
"614 362 OFFCURVE",
"589 390 OFFCURVE",
"589 425 CURVE SMOOTH",
"589 458 OFFCURVE",
"608 483 OFFCURVE",
"642 483 CURVE SMOOTH",
"689 483 OFFCURVE",
"714 432 OFFCURVE",
"714 369 CURVE SMOOTH",
"714 228 OFFCURVE",
"621 104 OFFCURVE",
"441 104 CURVE SMOOTH",
"304 104 OFFCURVE",
"163 178 OFFCURVE",
"163 311 CURVE SMOOTH",
"163 321 OFFCURVE",
"166 333 OFFCURVE",
"172 345 CURVE",
"150 341 LINE",
"157 284 OFFCURVE",
"219 262 OFFCURVE",
"268 262 CURVE SMOOTH",
"360 262 OFFCURVE",
"418 330 OFFCURVE",
"418 421 CURVE SMOOTH",
"418 502 OFFCURVE",
"359 586 OFFCURVE",
"250 586 CURVE SMOOTH",
"98 586 OFFCURVE",
"30 450 OFFCURVE",
"30 330 CURVE SMOOTH",
"30 111 OFFCURVE",
"235 -11 OFFCURVE",
"441 -11 CURVE SMOOTH"
);
},
{
closed = 1;
nodes = (
"200 360 OFFCURVE",
"181 384 OFFCURVE",
"181 416 CURVE SMOOTH",
"181 445 OFFCURVE",
"200 474 OFFCURVE",
"231 474 CURVE SMOOTH",
"267 474 OFFCURVE",
"284 449 OFFCURVE",
"284 418 CURVE SMOOTH",
"284 387 OFFCURVE",
"269 360 OFFCURVE",
"234 360 CURVE SMOOTH"
);
},
{
closed = 1;
nodes = (
"655 245 LINE",
"655 357 LINE",
"428 357 LINE",
"428 245 LINE"
);
}
);
width = 883;
},
{
background = {
paths = (
{
closed = 1;
nodes = (
"625 -10 OFFCURVE",
"788 131 OFFCURVE",
"788 358 CURVE SMOOTH",
"788 493 OFFCURVE",
"714 586 OFFCURVE",
"606 586 CURVE SMOOTH",
"532 586 OFFCURVE",
"467 522 OFFCURVE",
"467 444 CURVE SMOOTH",
"467 351 OFFCURVE",
"537 306 OFFCURVE",
"602 299 CURVE",
"623 321 LINE",
"556 332 OFFCURVE",
"524 392 OFFCURVE",
"524 437 CURVE SMOOTH",
"524 492 OFFCURVE",
"556 534 OFFCURVE",
"611 534 CURVE SMOOTH",
"679 534 OFFCURVE",
"726 464 OFFCURVE",
"726 362 CURVE SMOOTH",
"726 162 OFFCURVE",
"596 42 OFFCURVE",
"407 42 CURVE",
"237 42 OFFCURVE",
"90 164 OFFCURVE",
"90 362 CURVE SMOOTH",
"90 376 OFFCURVE",
"93 399 OFFCURVE",
"99 424 CURVE",
"85 422 LINE",
"85 335 OFFCURVE",
"147 274 OFFCURVE",
"233 274 CURVE SMOOTH",
"322 274 OFFCURVE",
"388 342 OFFCURVE",
"388 433 CURVE SMOOTH",
"388 516 OFFCURVE",
"323 586 OFFCURVE",
"233 586 CURVE SMOOTH",
"124 586 OFFCURVE",
"40 480 OFFCURVE",
"40 344 CURVE SMOOTH",
"40 129 OFFCURVE",
"209 -10 OFFCURVE",
"408 -10 CURVE"
);
},
{
closed = 1;
nodes = (
"167 326 OFFCURVE",
"127 368 OFFCURVE",
"127 430 CURVE SMOOTH",
"127 485 OFFCURVE",
"168 534 OFFCURVE",
"228 534 CURVE SMOOTH",
"287 534 OFFCURVE",
"326 488 OFFCURVE",
"326 433 CURVE SMOOTH",
"326 371 OFFCURVE",
"289 326 OFFCURVE",
"231 326 CURVE SMOOTH"
);
},
{
closed = 1;
nodes = (
"623 267 LINE",
"623 321 LINE",
"411 321 LINE",
"411 267 LINE"
);
}
);
};
layerId = "DCCD84DA-95A9-4923-A49E-D7B289AC34C6";
name = Light;
paths = (
{
closed = 1;
nodes = (
"625 -10 OFFCURVE",
"788 131 OFFCURVE",
"788 358 CURVE SMOOTH",
"788 493 OFFCURVE",
"714 586 OFFCURVE",
"606 586 CURVE SMOOTH",
"532 586 OFFCURVE",
"467 522 OFFCURVE",
"467 444 CURVE SMOOTH",
"467 351 OFFCURVE",
"537 306 OFFCURVE",
"602 299 CURVE",
"623 321 LINE",
"556 332 OFFCURVE",
"524 392 OFFCURVE",
"524 437 CURVE SMOOTH",
"524 492 OFFCURVE",
"556 534 OFFCURVE",
"611 534 CURVE SMOOTH",
"679 534 OFFCURVE",
"726 464 OFFCURVE",
"726 362 CURVE SMOOTH",
"726 162 OFFCURVE",
"596 42 OFFCURVE",
"407 42 CURVE",
"237 42 OFFCURVE",
"90 164 OFFCURVE",
"90 362 CURVE SMOOTH",
"90 386 OFFCURVE",
"94 415 OFFCURVE",
"103 444 CURVE",
"86 439 LINE",
"86 356 OFFCURVE",
"143 294 OFFCURVE",
"223 294 CURVE SMOOTH",
"317 294 OFFCURVE",
"373 363 OFFCURVE",
"373 443 CURVE SMOOTH",
"373 517 OFFCURVE",
"318 586 OFFCURVE",
"225 586 CURVE SMOOTH",
"119 586 OFFCURVE",
"40 477 OFFCURVE",
"40 344 CURVE SMOOTH",
"40 129 OFFCURVE",
"209 -10 OFFCURVE",
"408 -10 CURVE"
);
},
{
closed = 1;
nodes = (
"163 346 OFFCURVE",
"128 388 OFFCURVE",
"128 440 CURVE SMOOTH",
"128 485 OFFCURVE",
"163 534 OFFCURVE",
"221 534 CURVE SMOOTH",
"279 534 OFFCURVE",
"311 493 OFFCURVE",
"311 443 CURVE SMOOTH",
"311 393 OFFCURVE",
"280 346 OFFCURVE",
"221 346 CURVE SMOOTH"
);
},
{
closed = 1;
nodes = (
"623 267 LINE",
"623 321 LINE",
"351 321 LINE",
"351 267 LINE"
);
}
);
width = 828;
}
);
unicode = 0C85;
},
{
glyphname = knAA;
lastChange = "2015-07-03 09:44:08 +0000";
layers = (
{
background = {
paths = (
{
closed = 1;
nodes = (
"593 -11 OFFCURVE",
"744 79 OFFCURVE",
"744 224 CURVE SMOOTH",
"744 342 OFFCURVE",
"603 366 OFFCURVE",
"603 440 CURVE SMOOTH",
"603 467 OFFCURVE",
"620 483 OFFCURVE",
"643 483 CURVE SMOOTH",
"671 483 OFFCURVE",
"687 461 OFFCURVE",
"687 435 CURVE SMOOTH",
"687 390 OFFCURVE",
"656 350 OFFCURVE",
"579 350 CURVE SMOOTH",
"443 350 LINE",
"443 245 LINE",
"572 245 LINE SMOOTH",
"717 245 OFFCURVE",
"815 321 OFFCURVE",
"815 433 CURVE SMOOTH",
"815 512 OFFCURVE",
"755 586 OFFCURVE",
"638 586 CURVE SMOOTH",
"536 586 OFFCURVE",
"477 520 OFFCURVE",
"477 442 CURVE SMOOTH",
"477 323 OFFCURVE",
"609 299 OFFCURVE",
"609 224 CURVE SMOOTH",
"609 154 OFFCURVE",
"537 104 OFFCURVE",
"420 104 CURVE SMOOTH",
"280 104 OFFCURVE",
"172 182 OFFCURVE",
"172 298 CURVE SMOOTH",
"172 313 OFFCURVE",
"174 332 OFFCURVE",
"179 348 CURVE",
"157 341 LINE",
"164 284 OFFCURVE",
"219 262 OFFCURVE",
"268 262 CURVE SMOOTH",
"360 262 OFFCURVE",
"418 330 OFFCURVE",
"418 421 CURVE SMOOTH",
"418 502 OFFCURVE",
"359 586 OFFCURVE",
"250 586 CURVE SMOOTH",
"98 586 OFFCURVE",
"30 462 OFFCURVE",
"30 335 CURVE SMOOTH",
"30 125 OFFCURVE",
"187 -11 OFFCURVE",
"419 -11 CURVE SMOOTH"
);
},
{
closed = 1;
nodes = (
"200 360 OFFCURVE",
"181 384 OFFCURVE",
"181 416 CURVE SMOOTH",
"181 445 OFFCURVE",
"200 474 OFFCURVE",
"231 474 CURVE SMOOTH",
"267 474 OFFCURVE",
"284 449 OFFCURVE",
"284 418 CURVE SMOOTH",
"284 387 OFFCURVE",
"269 360 OFFCURVE",
"234 360 CURVE SMOOTH"
);
}
);
};
layerId = "9609CB55-EFEB-482C-9A6C-237B4D7F8578";
name = Bold;
paths = (
{
closed = 1;
nodes = (
"593 -11 OFFCURVE",
"744 79 OFFCURVE",
"744 224 CURVE SMOOTH",
"744 342 OFFCURVE",
"603 366 OFFCURVE",
"603 440 CURVE SMOOTH",
"603 467 OFFCURVE",
"620 483 OFFCURVE",
"643 483 CURVE SMOOTH",
"671 483 OFFCURVE",
"687 461 OFFCURVE",
"687 435 CURVE SMOOTH",
"687 390 OFFCURVE",
"656 350 OFFCURVE",
"579 350 CURVE SMOOTH",
"428 350 LINE",
"428 245 LINE",
"572 245 LINE SMOOTH",
"717 245 OFFCURVE",
"815 321 OFFCURVE",
"815 433 CURVE SMOOTH",
"815 512 OFFCURVE",
"755 586 OFFCURVE",
"638 586 CURVE SMOOTH",
"536 586 OFFCURVE",
"477 520 OFFCURVE",
"477 442 CURVE SMOOTH",
"477 323 OFFCURVE",
"609 299 OFFCURVE",
"609 224 CURVE SMOOTH",
"609 154 OFFCURVE",
"537 104 OFFCURVE",
"420 104 CURVE SMOOTH",
"290 104 OFFCURVE",
"163 182 OFFCURVE",
"163 298 CURVE SMOOTH",
"163 313 OFFCURVE",
"168 342 OFFCURVE",
"173 358 CURVE",
"148 341 LINE",
"155 284 OFFCURVE",
"219 262 OFFCURVE",
"268 262 CURVE SMOOTH",
"360 262 OFFCURVE",
"418 330 OFFCURVE",
"418 421 CURVE SMOOTH",
"418 502 OFFCURVE",
"359 586 OFFCURVE",
"250 586 CURVE SMOOTH",
"101 586 OFFCURVE",
"30 456 OFFCURVE",
"30 335 CURVE SMOOTH",
"30 125 OFFCURVE",
"197 -11 OFFCURVE",
"419 -11 CURVE SMOOTH"
);
},
{
closed = 1;
nodes = (
"200 360 OFFCURVE",
"181 384 OFFCURVE",
"181 416 CURVE SMOOTH",
"181 445 OFFCURVE",
"200 474 OFFCURVE",
"231 474 CURVE SMOOTH",
"267 474 OFFCURVE",
"284 449 OFFCURVE",
"284 418 CURVE SMOOTH",
"284 387 OFFCURVE",
"269 360 OFFCURVE",
"234 360 CURVE SMOOTH"
);
}
);
width = 845;
},
{
background = {
paths = (
{
closed = 1;
nodes = (
"553 -10 OFFCURVE",
"678 85 OFFCURVE",
"678 214 CURVE SMOOTH",
"678 317 OFFCURVE",
"537 363 OFFCURVE",
"537 451 CURVE SMOOTH",
"537 497 OFFCURVE",
"565 534 OFFCURVE",
"615 534 CURVE SMOOTH",
"668 534 OFFCURVE",
"698 494 OFFCURVE",
"698 441 CURVE SMOOTH",
"698 367 OFFCURVE",
"646 321 OFFCURVE",
"555 321 CURVE SMOOTH",
"419 321 LINE",
"419 267 LINE",
"555 267 LINE SMOOTH",
"687 267 OFFCURVE",
"752 354 OFFCURVE",
"752 439 CURVE SMOOTH",
"752 526 OFFCURVE",
"692 586 OFFCURVE",
"612 586 CURVE SMOOTH",
"537 586 OFFCURVE",
"483 527 OFFCURVE",
"483 451 CURVE SMOOTH",
"483 335 OFFCURVE",
"616 303 OFFCURVE",
"616 214 CURVE SMOOTH",
"616 111 OFFCURVE",
"526 42 OFFCURVE",
"388 42 CURVE SMOOTH",
"213 42 OFFCURVE",
"90 171 OFFCURVE",
"90 362 CURVE SMOOTH",
"90 376 OFFCURVE",
"93 399 OFFCURVE",
"99 424 CURVE",
"85 422 LINE",
"85 335 OFFCURVE",
"147 274 OFFCURVE",
"233 274 CURVE SMOOTH",
"322 274 OFFCURVE",
"388 342 OFFCURVE",
"388 433 CURVE SMOOTH",
"388 516 OFFCURVE",
"323 586 OFFCURVE",
"233 586 CURVE SMOOTH",
"124 586 OFFCURVE",
"40 480 OFFCURVE",
"40 344 CURVE SMOOTH",
"40 136 OFFCURVE",
"182 -10 OFFCURVE",
"386 -10 CURVE SMOOTH"
);
},
{
closed = 1;
nodes = (
"167 326 OFFCURVE",
"127 368 OFFCURVE",
"127 430 CURVE SMOOTH",
"127 485 OFFCURVE",
"168 534 OFFCURVE",
"228 534 CURVE SMOOTH",
"287 534 OFFCURVE",
"326 488 OFFCURVE",
"326 433 CURVE SMOOTH",
"326 371 OFFCURVE",
"289 326 OFFCURVE",
"231 326 CURVE SMOOTH"
);
}
);
};
layerId = "DCCD84DA-95A9-4923-A49E-D7B289AC34C6";
name = Light;
paths = (
{
closed = 1;
nodes = (
"553 -10 OFFCURVE",
"678 85 OFFCURVE",
"678 214 CURVE SMOOTH",
"678 317 OFFCURVE",
"537 360 OFFCURVE",
"537 454 CURVE SMOOTH",
"537 497 OFFCURVE",
"565 534 OFFCURVE",
"615 534 CURVE SMOOTH",
"668 534 OFFCURVE",
"701 494 OFFCURVE",
"701 441 CURVE SMOOTH",
"701 367 OFFCURVE",
"646 321 OFFCURVE",
"555 321 CURVE SMOOTH",
"351 321 LINE",
"351 267 LINE",
"555 267 LINE SMOOTH",
"687 267 OFFCURVE",
"759 345 OFFCURVE",
"759 441 CURVE SMOOTH",
"759 524 OFFCURVE",
"700 586 OFFCURVE",
"616 586 CURVE SMOOTH",
"536 586 OFFCURVE",
"479 531 OFFCURVE",
"479 454 CURVE SMOOTH",
"479 330 OFFCURVE",
"616 305 OFFCURVE",
"616 214 CURVE SMOOTH",
"616 111 OFFCURVE",
"526 42 OFFCURVE",
"388 42 CURVE SMOOTH",
"217 42 OFFCURVE",
"90 164 OFFCURVE",
"90 362 CURVE SMOOTH",
"90 386 OFFCURVE",
"94 415 OFFCURVE",
"103 444 CURVE",
"86 439 LINE",
"86 356 OFFCURVE",
"143 294 OFFCURVE",
"223 294 CURVE SMOOTH",
"317 294 OFFCURVE",
"373 363 OFFCURVE",
"373 443 CURVE SMOOTH",
"373 517 OFFCURVE",
"318 586 OFFCURVE",
"225 586 CURVE SMOOTH",
"119 586 OFFCURVE",
"40 477 OFFCURVE",
"40 344 CURVE SMOOTH",
"40 129 OFFCURVE",
"191 -10 OFFCURVE",
"386 -10 CURVE SMOOTH"
);
},
{
closed = 1;
nodes = (
"163 346 OFFCURVE",
"128 388 OFFCURVE",
"128 440 CURVE SMOOTH",
"128 485 OFFCURVE",
"163 534 OFFCURVE",
"221 534 CURVE SMOOTH",
"279 534 OFFCURVE",
"311 493 OFFCURVE",
"311 443 CURVE SMOOTH",
"311 393 OFFCURVE",
"280 346 OFFCURVE",
"221 346 CURVE SMOOTH"
);
}
);
width = 792;
}
);
leftMetricsKey = kn_a;
rightMetricsKey = kn_a;
unicode = 0C86;
},
{
glyphname = knI;
lastChange = "2015-07-03 09:44:08 +0000";
layers = (
{
background = {
paths = (
{
closed = 1;
nodes = (
"723 -20 LINE",
"677 159 OFFCURVE",
"510 304 OFFCURVE",
"316 304 CURVE SMOOTH",
"155 304 OFFCURVE",
"66 236 OFFCURVE",
"66 142 CURVE SMOOTH",
"66 35 OFFCURVE",
"178 -11 OFFCURVE",
"310 -11 CURVE SMOOTH",
"536 -11 OFFCURVE",
"705 147 OFFCURVE",
"705 350 CURVE SMOOTH",
"705 478 OFFCURVE",
"645 587 OFFCURVE",
"506 587 CURVE SMOOTH",
"425 587 OFFCURVE",
"369 533 OFFCURVE",
"359 463 CURVE",
"351 531 OFFCURVE",
"293 587 OFFCURVE",
"200 587 CURVE SMOOTH",
"86 587 OFFCURVE",
"20 507 OFFCURVE",
"20 420 CURVE SMOOTH",
"20 383 OFFCURVE",
"29 348 OFFCURVE",
"43 317 CURVE",
"181 317 LINE",
"168 342 OFFCURVE",
"159 372 OFFCURVE",
"159 400 CURVE SMOOTH",
"159 439 OFFCURVE",
"180 471 OFFCURVE",
"219 471 CURVE SMOOTH",
"270 471 OFFCURVE",
"288 427 OFFCURVE",
"288 377 CURVE SMOOTH",
"288 356 LINE",
"430 356 LINE",
"430 377 LINE SMOOTH",
"430 427 OFFCURVE",
"444 471 OFFCURVE",
"496 471 CURVE SMOOTH",
"551 471 OFFCURVE",
"567 415 OFFCURVE",
"567 352 CURVE SMOOTH",
"567 215 OFFCURVE",
"482 102 OFFCURVE",
"306 102 CURVE SMOOTH",
"253 102 OFFCURVE",
"208 115 OFFCURVE",
"208 147 CURVE SMOOTH",
"208 178 OFFCURVE",
"244 192 OFFCURVE",
"309 192 CURVE SMOOTH",
"451 192 OFFCURVE",
"536 97 OFFCURVE",
"570 -20 CURVE"
);
}
);
};
layerId = "9609CB55-EFEB-482C-9A6C-237B4D7F8578";
name = Bold;
paths = (
{
closed = 1;
nodes = (
"720 -20 LINE",
"674 159 OFFCURVE",
"510 304 OFFCURVE",
"316 304 CURVE SMOOTH",
"155 304 OFFCURVE",
"66 236 OFFCURVE",
"66 142 CURVE SMOOTH",
"66 35 OFFCURVE",
"178 -11 OFFCURVE",
"310 -11 CURVE SMOOTH",
"536 -11 OFFCURVE",
"705 147 OFFCURVE",
"705 350 CURVE SMOOTH",
"705 478 OFFCURVE",
"645 587 OFFCURVE",
"506 587 CURVE SMOOTH",
"425 587 OFFCURVE",
"369 533 OFFCURVE",
"359 463 CURVE",
"351 531 OFFCURVE",
"293 587 OFFCURVE",
"200 587 CURVE SMOOTH",
"86 587 OFFCURVE",
"20 507 OFFCURVE",
"20 420 CURVE SMOOTH",
"20 383 OFFCURVE",
"29 348 OFFCURVE",
"43 317 CURVE",
"181 317 LINE",
"168 342 OFFCURVE",
"159 372 OFFCURVE",
"159 400 CURVE SMOOTH",
"159 439 OFFCURVE",
"180 471 OFFCURVE",
"219 471 CURVE SMOOTH",
"270 471 OFFCURVE",
"288 427 OFFCURVE",
"288 377 CURVE SMOOTH",
"288 356 LINE",
"430 356 LINE",
"430 377 LINE SMOOTH",
"430 427 OFFCURVE",
"444 471 OFFCURVE",
"496 471 CURVE SMOOTH",
"551 471 OFFCURVE",
"567 415 OFFCURVE",
"567 352 CURVE SMOOTH",
"567 215 OFFCURVE",
"482 102 OFFCURVE",
"306 102 CURVE SMOOTH",
"253 102 OFFCURVE",
"208 115 OFFCURVE",
"208 147 CURVE SMOOTH",
"208 178 OFFCURVE",
"244 192 OFFCURVE",
"309 192 CURVE SMOOTH",
"451 192 OFFCURVE",
"538 97 OFFCURVE",
"572 -20 CURVE"
);
}
);
width = 750;
},
{
background = {
paths = (
{
closed = 1;
nodes = (
"630 -30 LINE",
"594 138 OFFCURVE",
"463 268 OFFCURVE",
"286 268 CURVE SMOOTH",
"161 268 OFFCURVE",
"85 203 OFFCURVE",
"85 130 CURVE SMOOTH",
"85 38 OFFCURVE",
"170 -10 OFFCURVE",
"294 -10 CURVE SMOOTH",
"500 -10 OFFCURVE",
"625 197 OFFCURVE",
"625 375 CURVE SMOOTH",
"625 502 OFFCURVE",
"564 586 OFFCURVE",
"456 586 CURVE SMOOTH",
"381 586 OFFCURVE",
"335 538 OFFCURVE",
"327 470 CURVE",
"319 536 OFFCURVE",
"270 586 OFFCURVE",
"185 586 CURVE SMOOTH",
"89 586 OFFCURVE",
"30 515 OFFCURVE",
"30 418 CURVE SMOOTH",
"30 395 OFFCURVE",
"33 370 OFFCURVE",
"39 345 CURVE",
"101 345 LINE",
"94 371 OFFCURVE",
"90 397 OFFCURVE",
"90 421 CURVE SMOOTH",
"90 484 OFFCURVE",
"122 534 OFFCURVE",
"186 534 CURVE SMOOTH",
"259 534 OFFCURVE",
"297 477 OFFCURVE",
"297 413 CURVE SMOOTH",
"297 372 LINE",
"358 372 LINE",
"358 409 LINE SMOOTH",
"358 479 OFFCURVE",
"384 534 OFFCURVE",
"456 534 CURVE SMOOTH",
"527 534 OFFCURVE",
"565 466 OFFCURVE",
"565 368 CURVE SMOOTH",
"565 206 OFFCURVE",
"459 42 OFFCURVE",
"294 42 CURVE SMOOTH",
"193 42 OFFCURVE",
"147 76 OFFCURVE",
"147 127 CURVE SMOOTH",
"147 176 OFFCURVE",
"189 216 OFFCURVE",
"287 216 CURVE SMOOTH",
"420 216 OFFCURVE",
"529 127 OFFCURVE",
"568 -30 CURVE"
);
}
);
};
layerId = "DCCD84DA-95A9-4923-A49E-D7B289AC34C6";
name = Light;
paths = (
{
closed = 1;
nodes = (
"630 -10 LINE",
"591 160 OFFCURVE",
"443 260 OFFCURVE",
"292 260 CURVE SMOOTH",
"168 260 OFFCURVE",
"85 199 OFFCURVE",
"85 123 CURVE SMOOTH",
"85 39 OFFCURVE",
"167 -10 OFFCURVE",
"283 -10 CURVE SMOOTH",
"505 -10 OFFCURVE",
"635 194 OFFCURVE",
"635 375 CURVE SMOOTH",
"635 502 OFFCURVE",
"574 586 OFFCURVE",
"463 586 CURVE SMOOTH",
"391 586 OFFCURVE",
"338 538 OFFCURVE",
"330 470 CURVE",
"322 536 OFFCURVE",
"270 586 OFFCURVE",
"194 586 CURVE SMOOTH",
"89 586 OFFCURVE",
"30 515 OFFCURVE",
"30 418 CURVE SMOOTH",
"30 395 OFFCURVE",
"33 368 OFFCURVE",
"41 342 CURVE",
"103 342 LINE",
"94 369 OFFCURVE",
"90 397 OFFCURVE",
"90 421 CURVE SMOOTH",
"90 484 OFFCURVE",
"122 534 OFFCURVE",
"195 534 CURVE SMOOTH",
"262 534 OFFCURVE",
"300 477 OFFCURVE",
"300 413 CURVE SMOOTH",
"300 372 LINE",
"361 372 LINE",
"361 409 LINE SMOOTH",
"361 479 OFFCURVE",
"394 534 OFFCURVE",
"461 534 CURVE SMOOTH",
"537 534 OFFCURVE",
"575 464 OFFCURVE",
"575 368 CURVE SMOOTH",
"575 202 OFFCURVE",
"464 42 OFFCURVE",
"282 42 CURVE SMOOTH",
"192 42 OFFCURVE",
"147 76 OFFCURVE",
"147 121 CURVE SMOOTH",
"147 173 OFFCURVE",
"196 208 OFFCURVE",
"291 208 CURVE SMOOTH",
"405 208 OFFCURVE",
"528 151 OFFCURVE",
"571 -10 CURVE"
);
}
);
width = 675;
}
);
rightMetricsKey = kn_a;
unicode = 0C87;
},
{
glyphname = knII;
lastChange = "2015-07-03 09:42:13 +0000";
layers = (
{
layerId = "9609CB55-EFEB-482C-9A6C-237B4D7F8578";
name = Bold;
paths = (
{
closed = 1;
nodes = (
"911 18 OFFCURVE",
"986 67 OFFCURVE",
"986 164 CURVE SMOOTH",
"986 291 OFFCURVE",
"790 316 OFFCURVE",
"790 405 CURVE SMOOTH",
"790 429 OFFCURVE",
"808 449 OFFCURVE",
"833 449 CURVE SMOOTH",
"864 449 OFFCURVE",
"879 425 OFFCURVE",
"879 401 CURVE SMOOTH",
"879 350 OFFCURVE",
"838 333 OFFCURVE",
"746 333 CURVE SMOOTH",
"20 333 LINE",
"20 231 LINE",
"741 231 LINE SMOOTH",
"878 231 OFFCURVE",
"1001 274 OFFCURVE",
"1001 404 CURVE SMOOTH",
"1001 486 OFFCURVE",
"935 559 OFFCURVE",
"832 559 CURVE SMOOTH",
"735 559 OFFCURVE",
"672 494 OFFCURVE",
"672 415 CURVE SMOOTH",
"672 268 OFFCURVE",
"851 249 OFFCURVE",
"851 177 CURVE SMOOTH",
"851 154 OFFCURVE",
"832 136 OFFCURVE",
"793 136 CURVE SMOOTH",
"757 136 OFFCURVE",
"720 148 OFFCURVE",
"685 167 CURVE",
"685 44 LINE",
"717 28 OFFCURVE",
"775 18 OFFCURVE",
"816 18 CURVE SMOOTH"
);
},
{
closed = 1;
nodes = (
"544 -8 OFFCURVE",
"626 115 OFFCURVE",
"626 283 CURVE SMOOTH",
"626 432 OFFCURVE",
"532 538 OFFCURVE",
"368 538 CURVE SMOOTH",
"214 538 OFFCURVE",
"109 432 OFFCURVE",
"109 274 CURVE SMOOTH",
"109 112 OFFCURVE",
"188 -8 OFFCURVE",
"368 -8 CURVE SMOOTH"
);
},
{
closed = 1;
nodes = (
"286 105 OFFCURVE",
"261 179 OFFCURVE",
"261 280 CURVE SMOOTH",
"261 371 OFFCURVE",
"285 464 OFFCURVE",
"367 464 CURVE SMOOTH",
"455 464 OFFCURVE",
"474 369 OFFCURVE",
"474 278 CURVE SMOOTH",
"474 177 OFFCURVE",
"452 105 OFFCURVE",
"369 105 CURVE SMOOTH"
);
},
{
closed = 1;
nodes = (
"482 464 LINE SMOOTH",
"585 464 OFFCURVE",
"646 503 OFFCURVE",
"646 585 CURVE SMOOTH",
"646 606 OFFCURVE",
"641 627 OFFCURVE",
"632 649 CURVE",
"510 649 LINE",
"514 639 OFFCURVE",
"516 629 OFFCURVE",
"516 619 CURVE SMOOTH",
"516 589 OFFCURVE",
"493 576 OFFCURVE",
"453 576 CURVE SMOOTH",
"94 576 LINE",
"94 464 LINE"
);
}
);
width = 1031;
},
{
background = {
paths = (
{
closed = 1;
nodes = (
"674 544 OFFCURVE",
"620 499 OFFCURVE",
"620 425 CURVE SMOOTH",
"620 298 OFFCURVE",
"808 243 OFFCURVE",
"808 156 CURVE SMOOTH",
"808 110 OFFCURVE",
"777 84 OFFCURVE",
"723 84 CURVE SMOOTH",
"694 84 OFFCURVE",
"660 94 OFFCURVE",
"630 109 CURVE",
"630 55 LINE",
"667 39 OFFCURVE",
"698 32 OFFCURVE",
"739 32 CURVE SMOOTH",
"821 32 OFFCURVE",
"870 87 OFFCURVE",
"870 151 CURVE SMOOTH",
"870 271 OFFCURVE",
"681 315 OFFCURVE",
"681 425 CURVE SMOOTH",
"681 468 OFFCURVE",
"711 492 OFFCURVE",
"753 492 CURVE SMOOTH",
"800 492 OFFCURVE",
"830 462 OFFCURVE",
"830 420 CURVE SMOOTH",
"830 354 OFFCURVE",
"781 313 OFFCURVE",
"666 313 CURVE SMOOTH",
"30 313 LINE",
"30 259 LINE",
"661 259 LINE SMOOTH",
"809 259 OFFCURVE",
"891 321 OFFCURVE",
"891 414 CURVE SMOOTH",
"891 492 OFFCURVE",
"832 544 OFFCURVE",
"752 544 CURVE SMOOTH"
);
},
{
closed = 1;
nodes = (
"465 -10 OFFCURVE",
"554 103 OFFCURVE",
"554 287 CURVE SMOOTH",
"554 466 OFFCURVE",
"465 576 OFFCURVE",
"331 576 CURVE SMOOTH",
"196 576 OFFCURVE",
"107 466 OFFCURVE",
"107 287 CURVE SMOOTH",
"107 103 OFFCURVE",
"196 -10 OFFCURVE",
"331 -10 CURVE SMOOTH"
);
},
{
closed = 1;
nodes = (
"235 42 OFFCURVE",
"169 136 OFFCURVE",
"169 286 CURVE SMOOTH",
"169 433 OFFCURVE",
"235 524 OFFCURVE",
"331 524 CURVE SMOOTH",
"426 524 OFFCURVE",
"492 433 OFFCURVE",
"492 286 CURVE SMOOTH",
"492 136 OFFCURVE",
"426 42 OFFCURVE",
"331 42 CURVE SMOOTH"
);
}
);
};
layerId = "DCCD84DA-95A9-4923-A49E-D7B289AC34C6";
name = Light;
paths = (
{
closed = 1;
nodes = (
"827 32 OFFCURVE",
"870 87 OFFCURVE",
"870 151 CURVE SMOOTH",
"870 281 OFFCURVE",
"681 305 OFFCURVE",
"681 419 CURVE SMOOTH",
"681 466 OFFCURVE",
"712 492 OFFCURVE",
"753 492 CURVE SMOOTH",
"800 492 OFFCURVE",
"830 462 OFFCURVE",
"830 420 CURVE SMOOTH",
"830 354 OFFCURVE",
"781 313 OFFCURVE",
"666 313 CURVE SMOOTH",
"30 313 LINE",
"30 259 LINE",
"661 259 LINE SMOOTH",
"809 259 OFFCURVE",
"891 321 OFFCURVE",
"891 414 CURVE SMOOTH",
"891 492 OFFCURVE",
"832 544 OFFCURVE",
"752 544 CURVE SMOOTH",
"675 544 OFFCURVE",
"620 495 OFFCURVE",
"620 419 CURVE SMOOTH",
"620 288 OFFCURVE",
"808 253 OFFCURVE",
"808 156 CURVE SMOOTH",
"808 110 OFFCURVE",
"782 84 OFFCURVE",
"733 84 CURVE SMOOTH",
"687 84 OFFCURVE",
"646 100 OFFCURVE",
"613 117 CURVE",
"613 63 LINE",
"650 43 OFFCURVE",
"688 32 OFFCURVE",
"739 32 CURVE SMOOTH"
);
},
{
closed = 1;
nodes = (
"465 -10 OFFCURVE",
"554 103 OFFCURVE",
"554 287 CURVE SMOOTH",
"554 466 OFFCURVE",
"465 571 OFFCURVE",
"331 571 CURVE SMOOTH",
"196 571 OFFCURVE",
"107 466 OFFCURVE",
"107 287 CURVE SMOOTH",
"107 103 OFFCURVE",
"196 -10 OFFCURVE",
"331 -10 CURVE SMOOTH"
);
},
{
closed = 1;
nodes = (
"235 42 OFFCURVE",
"169 136 OFFCURVE",
"169 286 CURVE SMOOTH",
"169 433 OFFCURVE",
"235 522 OFFCURVE",
"331 522 CURVE SMOOTH",
"426 522 OFFCURVE",
"492 433 OFFCURVE",
"492 286 CURVE SMOOTH",
"492 136 OFFCURVE",
"426 42 OFFCURVE",
"331 42 CURVE SMOOTH"
);
},
{
closed = 1;
nodes = (
"458 522 LINE SMOOTH",
"534 522 OFFCURVE",
"568 555 OFFCURVE",
"568 611 CURVE SMOOTH",
"568 623 OFFCURVE",
"566 636 OFFCURVE",
"562 649 CURVE",
"504 649 LINE",
"506 639 OFFCURVE",
"507 631 OFFCURVE",
"507 623 CURVE SMOOTH",
"507 591 OFFCURVE",
"485 576 OFFCURVE",
"442 576 CURVE SMOOTH",
"98 576 LINE",
"98 522 LINE"
);
}
);
width = 931;
}
);
leftMetricsKey = kn_i;
rightMetricsKey = kn_a;
unicode = 0C88;
},
{
glyphname = knU;
lastChange = "2015-07-03 09:44:08 +0000";
layers = (
{
background = {
paths = (
{
closed = 1;
nodes = (
"1049 -12 OFFCURVE",
"1136 99 OFFCURVE",
"1136 270 CURVE SMOOTH",
"1136 478 OFFCURVE",
"1039 580 OFFCURVE",
"884 580 CURVE",
"884 446 LINE",
"965 446 OFFCURVE",
"994 366 OFFCURVE",
"994 266 CURVE SMOOTH",
"994 185 OFFCURVE",
"968 98 OFFCURVE",
"895 98 CURVE SMOOTH",
"842 98 OFFCURVE",
"820 132 OFFCURVE",
"820 186 CURVE SMOOTH",
"820 255 OFFCURVE",
"845 308 OFFCURVE",
"845 398 CURVE SMOOTH",
"845 497 OFFCURVE",
"796 587 OFFCURVE",
"642 587 CURVE SMOOTH",
"524 587 OFFCURVE",
"453 501 OFFCURVE",
"453 393 CURVE SMOOTH",
"453 333 OFFCURVE",
"465 275 OFFCURVE",
"465 237 CURVE SMOOTH",
"465 150 OFFCURVE",
"406 106 OFFCURVE",
"336 106 CURVE SMOOTH",
"224 106 OFFCURVE",
"177 196 OFFCURVE",
"177 289 CURVE SMOOTH",
"177 318 OFFCURVE",
"178 347 OFFCURVE",
"181 374 CURVE",
"153 366 LINE",
"166 298 OFFCURVE",
"206 262 OFFCURVE",
"276 262 CURVE SMOOTH",
"367 262 OFFCURVE",
"424 331 OFFCURVE",
"424 421 CURVE SMOOTH",
"424 501 OFFCURVE",
"370 586 OFFCURVE",
"258 586 CURVE SMOOTH",
"106 586 OFFCURVE",
"40 440 OFFCURVE",
"40 311 CURVE SMOOTH",
"40 111 OFFCURVE",
"148 -10 OFFCURVE",
"336 -10 CURVE SMOOTH",
"493 -10 OFFCURVE",
"603 73 OFFCURVE",
"603 227 CURVE SMOOTH",
"603 277 OFFCURVE",
"591 347 OFFCURVE",
"591 389 CURVE SMOOTH",
"591 441 OFFCURVE",
"614 471 OFFCURVE",
"652 471 CURVE SMOOTH",
"693 471 OFFCURVE",
"707 435 OFFCURVE",
"707 391 CURVE SMOOTH",
"707 310 OFFCURVE",
"680 263 OFFCURVE",
"680 179 CURVE SMOOTH",
"680 45 OFFCURVE",
"766 -12 OFFCURVE",
"893 -12 CURVE SMOOTH"
);
},
{
closed = 1;
nodes = (
"207 360 OFFCURVE",
"186 382 OFFCURVE",
"186 416 CURVE SMOOTH",
"186 447 OFFCURVE",
"206 474 OFFCURVE",
"239 474 CURVE SMOOTH",
"276 474 OFFCURVE",
"295 449 OFFCURVE",
"295 418 CURVE SMOOTH",
"295 387 OFFCURVE",
"277 360 OFFCURVE",
"242 360 CURVE SMOOTH"
);
}
);
};
layerId = "9609CB55-EFEB-482C-9A6C-237B4D7F8578";
name = Bold;
paths = (
{
closed = 1;
nodes = (
"884 446 LINE",
"965 446 OFFCURVE",
"994 366 OFFCURVE",
"994 266 CURVE SMOOTH",
"994 185 OFFCURVE",
"968 98 OFFCURVE",
"895 98 CURVE SMOOTH",
"842 98 OFFCURVE",
"820 132 OFFCURVE",
"820 186 CURVE SMOOTH",
"820 255 OFFCURVE",
"845 308 OFFCURVE",
"845 398 CURVE SMOOTH",
"845 497 OFFCURVE",
"796 587 OFFCURVE",
"642 587 CURVE SMOOTH",
"515 587 OFFCURVE",
"453 501 OFFCURVE",
"453 393 CURVE SMOOTH",
"453 333 OFFCURVE",
"465 275 OFFCURVE",
"465 237 CURVE SMOOTH",
"465 150 OFFCURVE",
"406 106 OFFCURVE",
"336 106 CURVE SMOOTH",
"224 106 OFFCURVE",
"177 196 OFFCURVE",
"177 289 CURVE SMOOTH",
"177 318 OFFCURVE",
"178 347 OFFCURVE",
"181 374 CURVE",
"153 366 LINE",
"166 298 OFFCURVE",
"206 262 OFFCURVE",
"276 262 CURVE SMOOTH",
"367 262 OFFCURVE",
"424 331 OFFCURVE",
"424 421 CURVE SMOOTH",
"424 501 OFFCURVE",
"370 586 OFFCURVE",
"258 586 CURVE SMOOTH",
"106 586 OFFCURVE",
"40 440 OFFCURVE",
"40 311 CURVE SMOOTH",
"40 111 OFFCURVE",
"148 -10 OFFCURVE",
"336 -10 CURVE SMOOTH",
"493 -10 OFFCURVE",
"603 73 OFFCURVE",
"603 227 CURVE SMOOTH",
"603 277 OFFCURVE",
"591 347 OFFCURVE",
"591 389 CURVE SMOOTH",
"591 441 OFFCURVE",
"614 471 OFFCURVE",
"652 471 CURVE SMOOTH",
"693 471 OFFCURVE",
"707 435 OFFCURVE",
"707 391 CURVE SMOOTH",
"707 310 OFFCURVE",
"680 263 OFFCURVE",
"680 179 CURVE SMOOTH",
"680 45 OFFCURVE",
"766 -12 OFFCURVE",
"893 -12 CURVE SMOOTH",
"1049 -12 OFFCURVE",
"1136 99 OFFCURVE",
"1136 270 CURVE SMOOTH",
"1136 478 OFFCURVE",
"1039 580 OFFCURVE",
"884 580 CURVE"
);
},
{
closed = 1;
nodes = (
"207 360 OFFCURVE",
"186 382 OFFCURVE",
"186 416 CURVE SMOOTH",
"186 447 OFFCURVE",
"206 474 OFFCURVE",
"239 474 CURVE SMOOTH",
"276 474 OFFCURVE",
"295 449 OFFCURVE",
"295 418 CURVE SMOOTH",
"295 387 OFFCURVE",
"277 360 OFFCURVE",
"242 360 CURVE SMOOTH"
);
}
);
width = 1176;
},
{
background = {
paths = (
{
closed = 1;
nodes = (
"892 507 OFFCURVE",
"943 417 OFFCURVE",
"943 278 CURVE SMOOTH",
"943 126 OFFCURVE",
"898 42 OFFCURVE",
"816 42 CURVE SMOOTH",
"743 42 OFFCURVE",
"718 97 OFFCURVE",
"718 174 CURVE SMOOTH",
"718 265 OFFCURVE",
"746 332 OFFCURVE",
"746 426 CURVE SMOOTH",
"746 517 OFFCURVE",
"695 586 OFFCURVE",
"592 586 CURVE SMOOTH",
"491 586 OFFCURVE",
"433 517 OFFCURVE",
"433 426 CURVE SMOOTH",
"433 332 OFFCURVE",
"453 288 OFFCURVE",
"453 197 CURVE SMOOTH",
"453 102 OFFCURVE",
"393 42 OFFCURVE",
"308 42 CURVE SMOOTH",
"178 42 OFFCURVE",
"103 163 OFFCURVE",
"103 299 CURVE SMOOTH",
"103 333 OFFCURVE",
"108 394 OFFCURVE",
"114 426 CURVE",
"95 422 LINE",
"95 326 OFFCURVE",
"147 274 OFFCURVE",
"233 274 CURVE SMOOTH",
"324 274 OFFCURVE",
"388 339 OFFCURVE",
"388 430 CURVE SMOOTH",
"388 511 OFFCURVE",
"332 586 OFFCURVE",
"243 586 CURVE SMOOTH",
"104 586 OFFCURVE",
"50 455 OFFCURVE",
"50 307 CURVE SMOOTH",
"50 134 OFFCURVE",
"136 -10 OFFCURVE",
"308 -10 CURVE SMOOTH",
"427 -10 OFFCURVE",
"514 73 OFFCURVE",
"514 190 CURVE SMOOTH",
"514 278 OFFCURVE",
"493 345 OFFCURVE",
"493 425 CURVE SMOOTH",
"493 494 OFFCURVE",
"533 534 OFFCURVE",
"592 534 CURVE SMOOTH",
"651 534 OFFCURVE",
"686 494 OFFCURVE",
"686 425 CURVE SMOOTH",
"686 345 OFFCURVE",
"657 255 OFFCURVE",
"657 167 CURVE SMOOTH",
"657 68 OFFCURVE",
"706 -10 OFFCURVE",
"818 -10 CURVE SMOOTH",
"937 -10 OFFCURVE",
"1004 102 OFFCURVE",
"1004 277 CURVE SMOOTH",
"1004 449 OFFCURVE",
"932 568 OFFCURVE",
"795 576 CURVE",
"795 515 LINE"
);
},
{
closed = 1;
nodes = (
"167 326 OFFCURVE",
"127 368 OFFCURVE",
"127 430 CURVE SMOOTH",
"127 485 OFFCURVE",
"168 534 OFFCURVE",
"228 534 CURVE SMOOTH",
"287 534 OFFCURVE",
"326 488 OFFCURVE",
"326 432 CURVE SMOOTH",
"326 371 OFFCURVE",
"289 326 OFFCURVE",
"231 326 CURVE SMOOTH"
);
}
);
};
layerId = "DCCD84DA-95A9-4923-A49E-D7B289AC34C6";
name = Light;
paths = (
{
closed = 1;
nodes = (
"795 515 LINE",
"892 515 OFFCURVE",
"948 417 OFFCURVE",
"948 288 CURVE SMOOTH",
"948 131 OFFCURVE",
"903 42 OFFCURVE",
"821 42 CURVE SMOOTH",
"743 42 OFFCURVE",
"718 97 OFFCURVE",
"718 174 CURVE SMOOTH",
"718 265 OFFCURVE",
"746 332 OFFCURVE",
"746 426 CURVE SMOOTH",
"746 517 OFFCURVE",
"695 586 OFFCURVE",
"592 586 CURVE SMOOTH",
"491 586 OFFCURVE",
"433 517 OFFCURVE",
"433 426 CURVE SMOOTH",
"433 332 OFFCURVE",
"453 288 OFFCURVE",
"453 197 CURVE SMOOTH",
"453 102 OFFCURVE",
"393 42 OFFCURVE",
"308 42 CURVE SMOOTH",
"178 42 OFFCURVE",
"103 157 OFFCURVE",
"103 303 CURVE SMOOTH",
"103 342 OFFCURVE",
"113 395 OFFCURVE",
"123 440 CURVE",
"103 442 LINE",
"103 355 OFFCURVE",
"158 294 OFFCURVE",
"241 294 CURVE SMOOTH",
"325 294 OFFCURVE",
"386 362 OFFCURVE",
"386 442 CURVE SMOOTH",
"386 521 OFFCURVE",
"326 586 OFFCURVE",
"241 586 CURVE SMOOTH",
"108 586 OFFCURVE",
"50 451 OFFCURVE",
"50 302 CURVE SMOOTH",
"50 134 OFFCURVE",
"136 -10 OFFCURVE",
"308 -10 CURVE SMOOTH",
"427 -10 OFFCURVE",
"514 73 OFFCURVE",
"514 190 CURVE SMOOTH",
"514 278 OFFCURVE",
"493 345 OFFCURVE",
"493 425 CURVE SMOOTH",
"493 494 OFFCURVE",
"533 534 OFFCURVE",
"592 534 CURVE SMOOTH",
"651 534 OFFCURVE",
"686 494 OFFCURVE",
"686 425 CURVE SMOOTH",
"686 345 OFFCURVE",
"657 255 OFFCURVE",
"657 167 CURVE SMOOTH",
"657 68 OFFCURVE",
"706 -10 OFFCURVE",
"823 -10 CURVE SMOOTH",
"942 -10 OFFCURVE",
"1009 107 OFFCURVE",
"1009 287 CURVE SMOOTH",
"1009 449 OFFCURVE",
"932 576 OFFCURVE",
"795 576 CURVE"
);
},
{
closed = 1;
nodes = (
"180 346 OFFCURVE",
"145 388 OFFCURVE",
"145 437 CURVE SMOOTH",
"145 490 OFFCURVE",
"185 534 OFFCURVE",
"236 534 CURVE SMOOTH",
"290 534 OFFCURVE",
"324 493 OFFCURVE",
"324 441 CURVE SMOOTH",
"324 391 OFFCURVE",
"292 346 OFFCURVE",
"239 346 CURVE SMOOTH"
);
}
);
width = 1059;
}
);
unicode = 0C89;
},
{
glyphname = knUU;
lastChange = "2015-07-03 09:42:13 +0000";
layers = (
{
layerId = "9609CB55-EFEB-482C-9A6C-237B4D7F8578";
name = Bold;
paths = (
{
closed = 1;
nodes = (
"493 -10 OFFCURVE",
"603 73 OFFCURVE",
"603 227 CURVE SMOOTH",
"603 277 OFFCURVE",
"591 347 OFFCURVE",
"591 389 CURVE SMOOTH",
"591 441 OFFCURVE",
"614 471 OFFCURVE",
"652 471 CURVE SMOOTH",
"693 471 OFFCURVE",
"709 435 OFFCURVE",
"709 391 CURVE SMOOTH",
"709 310 OFFCURVE",
"680 263 OFFCURVE",
"680 179 CURVE SMOOTH",
"680 45 OFFCURVE",
"762 -12 OFFCURVE",
"883 -12 CURVE SMOOTH",
"1018 -12 OFFCURVE",
"1080 66 OFFCURVE",
"1080 171 CURVE SMOOTH",
"1080 248 OFFCURVE",
"1065 284 OFFCURVE",
"1065 343 CURVE SMOOTH",
"1065 419 OFFCURVE",
"1109 470 OFFCURVE",
"1193 470 CURVE SMOOTH",
"1306 470 OFFCURVE",
"1367 369 OFFCURVE",
"1367 276 CURVE SMOOTH",
"1367 247 OFFCURVE",
"1366 218 OFFCURVE",
"1363 191 CURVE",
"1391 199 LINE",
"1378 267 OFFCURVE",
"1338 303 OFFCURVE",
"1268 303 CURVE SMOOTH",
"1177 303 OFFCURVE",
"1120 234 OFFCURVE",
"1120 144 CURVE SMOOTH",
"1120 64 OFFCURVE",
"1174 -21 OFFCURVE",
"1286 -21 CURVE SMOOTH",
"1438 -21 OFFCURVE",
"1504 125 OFFCURVE",
"1504 254 CURVE SMOOTH",
"1504 454 OFFCURVE",
"1383 586 OFFCURVE",
"1193 586 CURVE SMOOTH",
"1026 586 OFFCURVE",
"927 507 OFFCURVE",
"927 353 CURVE SMOOTH",
"927 293 OFFCURVE",
"943 241 OFFCURVE",
"943 186 CURVE SMOOTH",
"943 134 OFFCURVE",
"926 98 OFFCURVE",
"883 98 CURVE SMOOTH",
"836 98 OFFCURVE",
"820 132 OFFCURVE",
"820 186 CURVE SMOOTH",
"820 255 OFFCURVE",
"847 308 OFFCURVE",
"847 398 CURVE SMOOTH",
"847 497 OFFCURVE",
"796 587 OFFCURVE",
"642 587 CURVE SMOOTH",
"524 587 OFFCURVE",
"453 501 OFFCURVE",
"453 393 CURVE SMOOTH",
"453 333 OFFCURVE",
"465 275 OFFCURVE",
"465 237 CURVE SMOOTH",
"465 150 OFFCURVE",
"406 106 OFFCURVE",
"336 106 CURVE SMOOTH",
"224 106 OFFCURVE",
"177 196 OFFCURVE",
"177 289 CURVE SMOOTH",
"177 318 OFFCURVE",
"178 347 OFFCURVE",
"181 374 CURVE",
"153 366 LINE",
"166 298 OFFCURVE",
"206 262 OFFCURVE",
"276 262 CURVE SMOOTH",
"367 262 OFFCURVE",
"424 331 OFFCURVE",
"424 421 CURVE SMOOTH",
"424 501 OFFCURVE",
"370 586 OFFCURVE",
"258 586 CURVE SMOOTH",
"106 586 OFFCURVE",
"40 440 OFFCURVE",
"40 311 CURVE SMOOTH",
"40 111 OFFCURVE",
"148 -10 OFFCURVE",
"336 -10 CURVE SMOOTH"
);
},
{
closed = 1;
nodes = (
"207 360 OFFCURVE",
"186 382 OFFCURVE",
"186 416 CURVE SMOOTH",
"186 447 OFFCURVE",
"206 474 OFFCURVE",
"239 474 CURVE SMOOTH",
"276 474 OFFCURVE",
"295 449 OFFCURVE",
"295 418 CURVE SMOOTH",
"295 387 OFFCURVE",
"277 360 OFFCURVE",
"242 360 CURVE SMOOTH"
);
},
{
closed = 1;
nodes = (
"1268 91 OFFCURVE",
"1249 116 OFFCURVE",
"1249 147 CURVE SMOOTH",
"1249 178 OFFCURVE",
"1267 205 OFFCURVE",
"1302 205 CURVE SMOOTH",
"1337 205 OFFCURVE",
"1358 183 OFFCURVE",
"1358 149 CURVE SMOOTH",
"1358 118 OFFCURVE",
"1338 91 OFFCURVE",
"1305 91 CURVE SMOOTH"
);
}
);
width = 1544;
},
{
background = {
paths = (
{
closed = 1;
nodes = (
"95 321 OFFCURVE",
"153 274 OFFCURVE",
"238 274 CURVE SMOOTH",
"324 274 OFFCURVE",
"388 339 OFFCURVE",
"388 430 CURVE SMOOTH",
"388 511 OFFCURVE",
"332 586 OFFCURVE",
"238 586 CURVE SMOOTH",
"101 586 OFFCURVE",
"50 459 OFFCURVE",
"50 304 CURVE SMOOTH",
"50 136 OFFCURVE",
"129 -10 OFFCURVE",
"306 -10 CURVE SMOOTH",
"427 -10 OFFCURVE",
"514 73 OFFCURVE",
"514 190 CURVE SMOOTH",
"514 278 OFFCURVE",
"493 339 OFFCURVE",
"493 419 CURVE SMOOTH",
"493 488 OFFCURVE",
"525 534 OFFCURVE",
"583 534 CURVE SMOOTH",
"640 534 OFFCURVE",
"668 488 OFFCURVE",
"668 419 CURVE SMOOTH",
"668 339 OFFCURVE",
"632 253 OFFCURVE",
"632 165 CURVE SMOOTH",
"632 66 OFFCURVE",
"673 -10 OFFCURVE",
"785 -10 CURVE SMOOTH",
"876 -10 OFFCURVE",
"931 63 OFFCURVE",
"931 170 CURVE SMOOTH",
"931 261 OFFCURVE",
"910 308 OFFCURVE",
"910 379 CURVE SMOOTH",
"910 474 OFFCURVE",
"972 534 OFFCURVE",
"1062 534 CURVE SMOOTH",
"1192 534 OFFCURVE",
"1268 418 OFFCURVE",
"1268 277 CURVE SMOOTH",
"1268 243 OFFCURVE",
"1263 182 OFFCURVE",
"1257 150 CURVE",
"1276 154 LINE",
"1280 242 OFFCURVE",
"1220 302 OFFCURVE",
"1138 302 CURVE SMOOTH",
"1047 302 OFFCURVE",
"983 234 OFFCURVE",
"983 143 CURVE SMOOTH",
"983 53 OFFCURVE",
"1047 -10 OFFCURVE",
"1136 -10 CURVE SMOOTH",
"1278 -10 OFFCURVE",
"1321 129 OFFCURVE",
"1321 277 CURVE SMOOTH",
"1321 436 OFFCURVE",
"1236 586 OFFCURVE",
"1059 586 CURVE SMOOTH",
"938 586 OFFCURVE",
"850 503 OFFCURVE",
"850 386 CURVE SMOOTH",
"850 294 OFFCURVE",
"871 251 OFFCURVE",
"871 171 CURVE SMOOTH",
"871 94 OFFCURVE",
"838 42 OFFCURVE",
"783 42 CURVE SMOOTH",
"718 42 OFFCURVE",
"693 95 OFFCURVE",
"693 168 CURVE SMOOTH",
"693 263 OFFCURVE",
"728 326 OFFCURVE",
"728 420 CURVE SMOOTH",
"728 511 OFFCURVE",
"687 586 OFFCURVE",
"583 586 CURVE SMOOTH",
"485 586 OFFCURVE",
"433 511 OFFCURVE",
"433 420 CURVE SMOOTH",
"433 326 OFFCURVE",
"453 288 OFFCURVE",
"453 197 CURVE SMOOTH",
"453 102 OFFCURVE",
"393 42 OFFCURVE",
"303 42 CURVE SMOOTH",
"173 42 OFFCURVE",
"103 158 OFFCURVE",
"103 299 CURVE SMOOTH",
"103 333 OFFCURVE",
"108 394 OFFCURVE",
"114 426 CURVE",
"95 422 LINE"
);
},
{
closed = 1;
nodes = (
"167 326 OFFCURVE",
"127 368 OFFCURVE",
"127 430 CURVE SMOOTH",
"127 485 OFFCURVE",
"168 534 OFFCURVE",
"228 534 CURVE SMOOTH",
"287 534 OFFCURVE",
"326 488 OFFCURVE",
"326 432 CURVE SMOOTH",
"326 371 OFFCURVE",
"289 326 OFFCURVE",
"231 326 CURVE SMOOTH"
);
},
{
closed = 1;
nodes = (
"1082 42 OFFCURVE",
"1045 86 OFFCURVE",
"1045 144 CURVE SMOOTH",
"1045 205 OFFCURVE",
"1082 250 OFFCURVE",
"1140 250 CURVE SMOOTH",
"1204 250 OFFCURVE",
"1244 208 OFFCURVE",
"1244 146 CURVE SMOOTH",
"1244 91 OFFCURVE",
"1203 42 OFFCURVE",
"1143 42 CURVE SMOOTH"
);
}
);
};
layerId = "DCCD84DA-95A9-4923-A49E-D7B289AC34C6";
name = Light;
paths = (
{
closed = 1;
nodes = (
"429 -10 OFFCURVE",
"514 73 OFFCURVE",
"514 190 CURVE SMOOTH",
"514 278 OFFCURVE",
"493 339 OFFCURVE",
"493 419 CURVE SMOOTH",
"493 488 OFFCURVE",
"525 534 OFFCURVE",
"583 534 CURVE SMOOTH",
"640 534 OFFCURVE",
"668 488 OFFCURVE",
"668 419 CURVE SMOOTH",
"668 339 OFFCURVE",
"632 253 OFFCURVE",
"632 165 CURVE SMOOTH",
"632 66 OFFCURVE",
"673 -10 OFFCURVE",
"785 -10 CURVE SMOOTH",
"876 -10 OFFCURVE",
"931 63 OFFCURVE",
"931 170 CURVE SMOOTH",
"931 261 OFFCURVE",
"910 308 OFFCURVE",
"910 379 CURVE SMOOTH",
"910 474 OFFCURVE",
"972 534 OFFCURVE",
"1062 534 CURVE SMOOTH",
"1192 534 OFFCURVE",
"1267 419 OFFCURVE",
"1267 273 CURVE SMOOTH",
"1267 234 OFFCURVE",
"1257 181 OFFCURVE",
"1247 136 CURVE",
"1267 134 LINE",
"1267 221 OFFCURVE",
"1212 282 OFFCURVE",
"1129 282 CURVE SMOOTH",
"1045 282 OFFCURVE",
"984 214 OFFCURVE",
"984 134 CURVE SMOOTH",
"984 55 OFFCURVE",
"1044 -10 OFFCURVE",
"1129 -10 CURVE SMOOTH",
"1262 -10 OFFCURVE",
"1320 125 OFFCURVE",
"1320 274 CURVE SMOOTH",
"1320 442 OFFCURVE",
"1231 586 OFFCURVE",
"1059 586 CURVE SMOOTH",
"938 586 OFFCURVE",
"850 503 OFFCURVE",
"850 386 CURVE SMOOTH",
"850 294 OFFCURVE",
"871 251 OFFCURVE",
"871 171 CURVE SMOOTH",
"871 94 OFFCURVE",
"838 42 OFFCURVE",
"783 42 CURVE SMOOTH",
"718 42 OFFCURVE",
"693 95 OFFCURVE",
"693 168 CURVE SMOOTH",
"693 263 OFFCURVE",
"728 326 OFFCURVE",
"728 420 CURVE SMOOTH",
"728 511 OFFCURVE",
"687 586 OFFCURVE",
"583 586 CURVE SMOOTH",
"485 586 OFFCURVE",
"433 511 OFFCURVE",
"433 420 CURVE SMOOTH",
"433 326 OFFCURVE",
"453 288 OFFCURVE",
"453 197 CURVE SMOOTH",
"453 102 OFFCURVE",
"393 42 OFFCURVE",
"303 42 CURVE SMOOTH",
"178 42 OFFCURVE",
"103 157 OFFCURVE",
"103 303 CURVE SMOOTH",
"103 342 OFFCURVE",
"113 395 OFFCURVE",
"123 440 CURVE",
"103 442 LINE",
"103 355 OFFCURVE",
"158 294 OFFCURVE",
"241 294 CURVE SMOOTH",
"325 294 OFFCURVE",
"386 362 OFFCURVE",
"386 442 CURVE SMOOTH",
"386 521 OFFCURVE",
"326 586 OFFCURVE",
"241 586 CURVE SMOOTH",
"108 586 OFFCURVE",
"50 451 OFFCURVE",
"50 302 CURVE SMOOTH",
"50 134 OFFCURVE",
"136 -10 OFFCURVE",
"308 -10 CURVE SMOOTH"
);
},
{
closed = 1;
nodes = (
"180 346 OFFCURVE",
"145 388 OFFCURVE",
"145 437 CURVE SMOOTH",
"145 490 OFFCURVE",
"185 534 OFFCURVE",
"236 534 CURVE SMOOTH",
"290 534 OFFCURVE",
"324 493 OFFCURVE",
"324 441 CURVE SMOOTH",
"324 391 OFFCURVE",
"292 346 OFFCURVE",
"239 346 CURVE SMOOTH"
);
},
{
closed = 1;
nodes = (
"1080 42 OFFCURVE",
"1046 83 OFFCURVE",
"1046 135 CURVE SMOOTH",
"1046 185 OFFCURVE",
"1078 230 OFFCURVE",
"1131 230 CURVE SMOOTH",
"1190 230 OFFCURVE",
"1225 188 OFFCURVE",
"1225 139 CURVE SMOOTH",
"1225 86 OFFCURVE",
"1185 42 OFFCURVE",
"1134 42 CURVE SMOOTH"
);
}
);
width = 1370;
}
);
leftMetricsKey = kn_u;
rightMetricsKey = kn_u;
unicode = 0C8A;
},
{
glyphname = knvR;
lastChange = "2015-07-03 09:42:13 +0000";
layers = (
{
layerId = "9609CB55-EFEB-482C-9A6C-237B4D7F8578";
name = Bold;
paths = (
{
closed = 1;
nodes = (
"466 -10 OFFCURVE",
"597 162 OFFCURVE",
"597 331 CURVE SMOOTH",
"597 478 OFFCURVE",
"503 586 OFFCURVE",
"373 586 CURVE SMOOTH",
"263 586 OFFCURVE",
"200 520 OFFCURVE",
"200 442 CURVE SMOOTH",
"200 360 OFFCURVE",
"268 316 OFFCURVE",
"340 316 CURVE SMOOTH",
"371 316 OFFCURVE",
"399 321 OFFCURVE",
"423 335 CURVE",
"423 431 LINE",
"406 419 OFFCURVE",
"389 413 OFFCURVE",
"368 413 CURVE SMOOTH",
"342 413 OFFCURVE",
"324 421 OFFCURVE",
"324 441 CURVE SMOOTH",
"324 462 OFFCURVE",
"340 474 OFFCURVE",
"373 474 CURVE SMOOTH",
"435 474 OFFCURVE",
"467 413 OFFCURVE",
"467 339 CURVE SMOOTH",
"467 207 OFFCURVE",
"393 102 OFFCURVE",
"242 102 CURVE SMOOTH",
"193 102 OFFCURVE",
"152 115 OFFCURVE",
"152 151 CURVE SMOOTH",
"152 174 OFFCURVE",
"170 192 OFFCURVE",
"202 192 CURVE SMOOTH",
"325 192 OFFCURVE",
"437 -9 OFFCURVE",
"626 -9 CURVE SMOOTH",
"792 -9 OFFCURVE",
"901 97 OFFCURVE",
"901 269 CURVE SMOOTH",
"901 436 OFFCURVE",
"803 515 OFFCURVE",
"627 515 CURVE",
"627 464 LINE",
"716 464 OFFCURVE",
"759 370 OFFCURVE",
"759 272 CURVE SMOOTH",
"759 189 OFFCURVE",
"720 117 OFFCURVE",
"618 117 CURVE SMOOTH",
"464 117 OFFCURVE",
"376 308 OFFCURVE",
"185 308 CURVE SMOOTH",
"86 308 OFFCURVE",
"20 245 OFFCURVE",
"20 153 CURVE SMOOTH",
"20 58 OFFCURVE",
"101 -10 OFFCURVE",
"240 -10 CURVE SMOOTH"
);
},
{
closed = 1;
nodes = (
"750 464 LINE SMOOTH",
"853 464 OFFCURVE",
"914 503 OFFCURVE",
"914 585 CURVE SMOOTH",
"914 606 OFFCURVE",
"909 627 OFFCURVE",
"900 649 CURVE",
"778 649 LINE",
"782 639 OFFCURVE",
"784 629 OFFCURVE",
"784 619 CURVE SMOOTH",
"784 589 OFFCURVE",
"761 576 OFFCURVE",
"721 576 CURVE SMOOTH",
"627 576 LINE",
"627 464 LINE"
);
},
{
closed = 1;
nodes = (
"1159 -10 OFFCURVE",
"1219 117 OFFCURVE",
"1219 275 CURVE SMOOTH",
"1219 446 OFFCURVE",
"1158 576 OFFCURVE",
"965 576 CURVE",
"965 461 LINE",
"1054 461 OFFCURVE",
"1078 372 OFFCURVE",
"1078 269 CURVE SMOOTH",
"1078 183 OFFCURVE",
"1066 106 OFFCURVE",
"994 106 CURVE SMOOTH",
"925 106 OFFCURVE",
"901 184 OFFCURVE",
"901 283 CURVE",
"837 224 LINE",
"837 80 OFFCURVE",
"885 -10 OFFCURVE",
"1006 -10 CURVE SMOOTH"
);
}
);
width = 1259;
},
{
layerId = "DCCD84DA-95A9-4923-A49E-D7B289AC34C6";
name = Light;
paths = (
{
closed = 1;
nodes = (
"405 -10 OFFCURVE",
"538 156 OFFCURVE",
"538 349 CURVE SMOOTH",
"538 490 OFFCURVE",
"455 586 OFFCURVE",
"341 586 CURVE SMOOTH",
"255 586 OFFCURVE",
"196 535 OFFCURVE",
"196 464 CURVE SMOOTH",
"196 397 OFFCURVE",
"249 350 OFFCURVE",
"319 350 CURVE SMOOTH",
"357 350 OFFCURVE",
"381 355 OFFCURVE",
"412 369 CURVE",
"412 420 LINE",
"384 409 OFFCURVE",
"358 403 OFFCURVE",
"333 403 CURVE SMOOTH",
"285 403 OFFCURVE",
"258 427 OFFCURVE",
"258 467 CURVE SMOOTH",
"258 505 OFFCURVE",
"286 534 OFFCURVE",
"340 534 CURVE SMOOTH",
"417 534 OFFCURVE",
"476 459 OFFCURVE",
"476 350 CURVE SMOOTH",
"476 187 OFFCURVE",
"369 42 OFFCURVE",
"217 42 CURVE SMOOTH",
"142 42 OFFCURVE",
"92 71 OFFCURVE",
"92 121 CURVE SMOOTH",
"92 161 OFFCURVE",
"122 192 OFFCURVE",
"177 192 CURVE SMOOTH",
"304 192 OFFCURVE",
"397 -9 OFFCURVE",
"586 -9 CURVE SMOOTH",
"735 -9 OFFCURVE",
"823 101 OFFCURVE",
"823 270 CURVE SMOOTH",
"823 443 OFFCURVE",
"746 549 OFFCURVE",
"587 549 CURVE",
"587 522 LINE",
"701 513 OFFCURVE",
"761 417 OFFCURVE",
"761 272 CURVE SMOOTH",
"761 135 OFFCURVE",
"696 43 OFFCURVE",
"585 43 CURVE SMOOTH",
"430 43 OFFCURVE",
"334 244 OFFCURVE",
"167 244 CURVE SMOOTH",
"89 244 OFFCURVE",
"30 191 OFFCURVE",
"30 123 CURVE SMOOTH",
"30 39 OFFCURVE",
"103 -10 OFFCURVE",
"215 -10 CURVE SMOOTH"
);
},
{
closed = 1;
nodes = (
"702 522 LINE SMOOTH",
"778 522 OFFCURVE",
"812 555 OFFCURVE",
"812 611 CURVE SMOOTH",
"812 623 OFFCURVE",
"810 636 OFFCURVE",
"806 649 CURVE",
"748 649 LINE",
"750 639 OFFCURVE",
"751 631 OFFCURVE",
"751 623 CURVE SMOOTH",
"751 591 OFFCURVE",
"729 576 OFFCURVE",
"686 576 CURVE SMOOTH",
"587 576 LINE",
"587 522 LINE"
);
},
{
closed = 1;
nodes = (
"1045 -10 OFFCURVE",
"1110 99 OFFCURVE",
"1110 275 CURVE SMOOTH",
"1110 434 OFFCURVE",
"1047 574 OFFCURVE",
"902 576 CURVE",
"902 522 LINE",
"996 522 OFFCURVE",
"1048 414 OFFCURVE",
"1048 269 CURVE SMOOTH",
"1048 128 OFFCURVE",
"1009 42 OFFCURVE",
"935 42 CURVE SMOOTH",
"847 42 OFFCURVE",
"823 149 OFFCURVE",
"823 263 CURVE",
"780 224 LINE",
"780 90 OFFCURVE",
"817 -10 OFFCURVE",
"934 -10 CURVE SMOOTH"
);
}
);
width = 1160;
}
);
leftMetricsKey = kn_i;
rightMetricsKey = kn_u;
unicode = 0C8B;
},
{
glyphname = knvL;
lastChange = "2015-07-03 09:42:13 +0000";
layers = (
{
layerId = "9609CB55-EFEB-482C-9A6C-237B4D7F8578";
name = Bold;
paths = (
{
closed = 1;
nodes = (
"890 -12 OFFCURVE",
"987 99 OFFCURVE",
"987 287 CURVE SMOOTH",
"987 478 OFFCURVE",
"890 580 OFFCURVE",
"735 580 CURVE",
"735 446 LINE",
"816 446 OFFCURVE",
"845 382 OFFCURVE",
"845 279 CURVE SMOOTH",
"845 185 OFFCURVE",
"809 98 OFFCURVE",
"727 98 CURVE SMOOTH",
"663 98 OFFCURVE",
"636 132 OFFCURVE",
"636 186 CURVE SMOOTH",
"636 255 OFFCURVE",
"689 318 OFFCURVE",
"689 408 CURVE SMOOTH",
"689 507 OFFCURVE",
"628 587 OFFCURVE",
"514 587 CURVE SMOOTH",
"423 587 OFFCURVE",
"367 531 OFFCURVE",
"359 463 CURVE",
"351 531 OFFCURVE",
"293 587 OFFCURVE",
"200 587 CURVE SMOOTH",
"86 587 OFFCURVE",
"20 507 OFFCURVE",
"20 420 CURVE SMOOTH",
"20 383 OFFCURVE",
"27 343 OFFCURVE",
"41 312 CURVE",
"179 312 LINE",
"166 337 OFFCURVE",
"159 372 OFFCURVE",
"159 400 CURVE SMOOTH",
"159 439 OFFCURVE",
"180 471 OFFCURVE",
"219 471 CURVE SMOOTH",
"270 471 OFFCURVE",
"288 427 OFFCURVE",
"288 377 CURVE SMOOTH",
"288 349 LINE",
"430 349 LINE",
"430 377 LINE SMOOTH",
"430 428 OFFCURVE",
"447 471 OFFCURVE",
"493 471 CURVE SMOOTH",
"530 471 OFFCURVE",
"551 445 OFFCURVE",
"551 401 CURVE SMOOTH",
"551 320 OFFCURVE",
"496 253 OFFCURVE",
"496 169 CURVE SMOOTH",
"496 45 OFFCURVE",
"587 -12 OFFCURVE",
"714 -12 CURVE SMOOTH"
);
}
);
width = 1027;
},
{
layerId = "DCCD84DA-95A9-4923-A49E-D7B289AC34C6";
name = Light;
paths = (
{
closed = 1;
nodes = (
"783 -10 OFFCURVE",
"858 107 OFFCURVE",
"858 283 CURVE SMOOTH",
"858 461 OFFCURVE",
"792 568 OFFCURVE",
"659 576 CURVE",
"659 515 LINE",
"754 507 OFFCURVE",
"797 424 OFFCURVE",
"797 287 CURVE SMOOTH",
"797 138 OFFCURVE",
"747 42 OFFCURVE",
"658 42 CURVE SMOOTH",
"580 42 OFFCURVE",
"542 95 OFFCURVE",
"542 174 CURVE SMOOTH",
"542 265 OFFCURVE",
"600 332 OFFCURVE",
"600 426 CURVE SMOOTH",
"600 517 OFFCURVE",
"544 586 OFFCURVE",
"446 586 CURVE SMOOTH",
"366 586 OFFCURVE",
"321 531 OFFCURVE",
"318 470 CURVE",
"313 531 OFFCURVE",
"255 586 OFFCURVE",
"185 586 CURVE SMOOTH",
"85 586 OFFCURVE",
"30 513 OFFCURVE",
"30 423 CURVE SMOOTH",
"30 395 OFFCURVE",
"35 366 OFFCURVE",
"46 336 CURVE",
"108 336 LINE",
"97 363 OFFCURVE",
"92 392 OFFCURVE",
"92 420 CURVE SMOOTH",
"92 481 OFFCURVE",
"120 534 OFFCURVE",
"184 534 CURVE SMOOTH",
"250 534 OFFCURVE",
"287 481 OFFCURVE",
"287 403 CURVE SMOOTH",
"287 360 LINE",
"348 360 LINE",
"348 414 LINE SMOOTH",
"348 480 OFFCURVE",
"383 534 OFFCURVE",
"446 534 CURVE SMOOTH",
"504 534 OFFCURVE",
"539 494 OFFCURVE",
"539 425 CURVE SMOOTH",
"539 345 OFFCURVE",
"480 255 OFFCURVE",
"480 167 CURVE SMOOTH",
"480 66 OFFCURVE",
"542 -10 OFFCURVE",
"658 -10 CURVE SMOOTH"
);
}
);
width = 908;
}
);
leftMetricsKey = kn_i;
rightMetricsKey = kn_u;
unicode = 0C8C;
},
{
glyphname = knE;
lastChange = "2015-07-03 09:44:08 +0000";
layers = (
{
layerId = "9609CB55-EFEB-482C-9A6C-237B4D7F8578";
name = Bold;
paths = (
{
closed = 1;
nodes = (
"318 -10 OFFCURVE",
"380 38 OFFCURVE",
"395 114 CURVE",
"407 37 OFFCURVE",
"469 -10 OFFCURVE",
"555 -10 CURVE SMOOTH",
"691 -10 OFFCURVE",
"756 101 OFFCURVE",
"756 237 CURVE SMOOTH",
"756 423 OFFCURVE",
"628 586 OFFCURVE",
"392 586 CURVE SMOOTH",
"347 586 OFFCURVE",
"300 579 OFFCURVE",
"254 565 CURVE",
"254 448 LINE",
"290 462 OFFCURVE",
"338 471 OFFCURVE",
"382 471 CURVE SMOOTH",
"536 471 OFFCURVE",
"614 356 OFFCURVE",
"614 232 CURVE SMOOTH",
"614 176 OFFCURVE",
"601 106 OFFCURVE",
"542 106 CURVE SMOOTH",
"492 106 OFFCURVE",
"466 150 OFFCURVE",
"466 210 CURVE SMOOTH",
"466 246 LINE",
"324 246 LINE",
"324 210 LINE SMOOTH",
"324 147 OFFCURVE",
"296 106 OFFCURVE",
"245 106 CURVE SMOOTH",
"202 106 OFFCURVE",
"172 132 OFFCURVE",
"172 184 CURVE SMOOTH",
"172 224 OFFCURVE",
"196 257 OFFCURVE",
"241 257 CURVE SMOOTH",
"248 257 OFFCURVE",
"256 256 OFFCURVE",
"263 254 CURVE",
"263 364 LINE",
"245 369 OFFCURVE",
"224 371 OFFCURVE",
"206 371 CURVE SMOOTH",
"103 371 OFFCURVE",
"30 295 OFFCURVE",
"30 184 CURVE SMOOTH",
"30 69 OFFCURVE",
"106 -10 OFFCURVE",
"233 -10 CURVE SMOOTH"
);
}
);
width = 786;
},
{
layerId = "DCCD84DA-95A9-4923-A49E-D7B289AC34C6";
name = Light;
paths = (
{
closed = 1;
nodes = (
"302 -10 OFFCURVE",
"359 32 OFFCURVE",
"370 104 CURVE",
"381 32 OFFCURVE",
"439 -10 OFFCURVE",
"516 -10 CURVE SMOOTH",
"629 -10 OFFCURVE",
"701 94 OFFCURVE",
"701 241 CURVE SMOOTH",
"701 442 OFFCURVE",
"569 586 OFFCURVE",
"375 586 CURVE SMOOTH",
"323 586 OFFCURVE",
"272 577 OFFCURVE",
"230 561 CURVE",
"230 507 LINE",
"276 527 OFFCURVE",
"331 534 OFFCURVE",
"375 534 CURVE SMOOTH",
"532 534 OFFCURVE",
"639 411 OFFCURVE",
"639 241 CURVE SMOOTH",
"639 121 OFFCURVE",
"591 42 OFFCURVE",
"516 42 CURVE SMOOTH",
"441 42 OFFCURVE",
"400 101 OFFCURVE",
"400 172 CURVE SMOOTH",
"400 219 LINE",
"339 219 LINE",
"339 173 LINE SMOOTH",
"339 96 OFFCURVE",
"290 42 OFFCURVE",
"222 42 CURVE SMOOTH",
"144 42 OFFCURVE",
"101 96 OFFCURVE",
"101 165 CURVE SMOOTH",
"101 243 OFFCURVE",
"154 289 OFFCURVE",
"224 289 CURVE SMOOTH",
"234 289 OFFCURVE",
"244 288 OFFCURVE",
"255 286 CURVE",
"255 343 LINE",
"244 345 OFFCURVE",
"232 346 OFFCURVE",
"222 346 CURVE SMOOTH",
"118 346 OFFCURVE",
"40 273 OFFCURVE",
"40 163 CURVE SMOOTH",
"40 64 OFFCURVE",
"110 -10 OFFCURVE",
"223 -10 CURVE SMOOTH"
);
}
);
width = 741;
}
);
leftMetricsKey = kn_a;
rightMetricsKey = kn_a;
unicode = 0C8E;
},
{
glyphname = knEE;
lastChange = "2015-07-03 09:42:13 +0000";
layers = (
{
layerId = "9609CB55-EFEB-482C-9A6C-237B4D7F8578";
name = Bold;
paths = (
{
closed = 1;
nodes = (
"318 -10 OFFCURVE",
"380 38 OFFCURVE",
"395 114 CURVE",
"407 37 OFFCURVE",
"469 -10 OFFCURVE",
"555 -10 CURVE SMOOTH",
"696 -10 OFFCURVE",
"756 118 OFFCURVE",
"756 239 CURVE SMOOTH",
"756 394 OFFCURVE",
"667 523 OFFCURVE",
"494 583 CURVE",
"475 524 OFFCURVE",
"427 474 OFFCURVE",
"349 474 CURVE SMOOTH",
"284 474 OFFCURVE",
"240 504 OFFCURVE",
"240 563 CURVE SMOOTH",
"240 567 OFFCURVE",
"240 571 OFFCURVE",
"241 576 CURVE",
"118 576 LINE",
"116 565 OFFCURVE",
"115 553 OFFCURVE",
"115 542 CURVE SMOOTH",
"115 417 OFFCURVE",
"221 361 OFFCURVE",
"333 361 CURVE SMOOTH",
"423 361 OFFCURVE",
"502 398 OFFCURVE",
"543 464 CURVE",
"486 445 LINE",
"569 412 OFFCURVE",
"614 332 OFFCURVE",
"614 238 CURVE SMOOTH",
"614 165 OFFCURVE",
"595 106 OFFCURVE",
"539 106 CURVE SMOOTH",
"491 106 OFFCURVE",
"466 151 OFFCURVE",
"466 210 CURVE SMOOTH",
"466 246 LINE",
"324 246 LINE",
"324 210 LINE SMOOTH",
"324 144 OFFCURVE",
"293 106 OFFCURVE",
"237 106 CURVE SMOOTH",
"199 106 OFFCURVE",
"172 128 OFFCURVE",
"172 165 CURVE SMOOTH",
"172 203 OFFCURVE",
"199 227 OFFCURVE",
"231 227 CURVE SMOOTH",
"246 227 OFFCURVE",
"253 226 OFFCURVE",
"260 224 CURVE",
"260 336 LINE",
"242 340 OFFCURVE",
"225 342 OFFCURVE",
"209 342 CURVE SMOOTH",
"106 342 OFFCURVE",
"30 283 OFFCURVE",
"30 172 CURVE SMOOTH",
"30 62 OFFCURVE",
"106 -10 OFFCURVE",
"233 -10 CURVE SMOOTH"
);
}
);
width = 786;
},
{
background = {
paths = (
{
closed = 1;
nodes = (
"295 -10 OFFCURVE",
"352 32 OFFCURVE",
"363 104 CURVE",
"374 32 OFFCURVE",
"432 -10 OFFCURVE",
"509 -10 CURVE SMOOTH",
"621 -10 OFFCURVE",
"685 87 OFFCURVE",
"685 221 CURVE SMOOTH",
"685 373 OFFCURVE",
"598 525 OFFCURVE",
"469 576 CURVE",
"447 507 OFFCURVE",
"394 454 OFFCURVE",
"309 454 CURVE SMOOTH",
"237 454 OFFCURVE",
"184 479 OFFCURVE",
"184 551 CURVE SMOOTH",
"184 559 OFFCURVE",
"185 568 OFFCURVE",
"187 576 CURVE",
"125 576 LINE",
"123 565 OFFCURVE",
"122 555 OFFCURVE",
"122 546 CURVE SMOOTH",
"122 449 OFFCURVE",
"201 402 OFFCURVE",
"309 402 CURVE SMOOTH",
"403 402 OFFCURVE",
"471 454 OFFCURVE",
"503 521 CURVE",
"454 512 LINE",
"552 477 OFFCURVE",
"623 357 OFFCURVE",
"623 218 CURVE SMOOTH",
"623 111 OFFCURVE",
"581 42 OFFCURVE",
"509 42 CURVE SMOOTH",
"434 42 OFFCURVE",
"393 101 OFFCURVE",
"393 172 CURVE SMOOTH",
"393 219 LINE",
"332 219 LINE",
"332 173 LINE SMOOTH",
"332 96 OFFCURVE",
"283 42 OFFCURVE",
"215 42 CURVE SMOOTH",
"137 42 OFFCURVE",
"94 96 OFFCURVE",
"94 165 CURVE SMOOTH",
"94 243 OFFCURVE",
"147 289 OFFCURVE",
"217 289 CURVE SMOOTH",
"227 289 OFFCURVE",
"237 288 OFFCURVE",
"248 286 CURVE",
"248 343 LINE",
"237 345 OFFCURVE",
"225 346 OFFCURVE",
"215 346 CURVE SMOOTH",
"111 346 OFFCURVE",
"33 273 OFFCURVE",
"33 163 CURVE SMOOTH",
"33 64 OFFCURVE",
"103 -10 OFFCURVE",
"216 -10 CURVE SMOOTH"
);
}
);
};
layerId = "DCCD84DA-95A9-4923-A49E-D7B289AC34C6";
name = Light;
paths = (
{
closed = 1;
nodes = (
"295 -10 OFFCURVE",
"352 32 OFFCURVE",
"363 104 CURVE",
"374 32 OFFCURVE",
"432 -10 OFFCURVE",
"509 -10 CURVE SMOOTH",
"621 -10 OFFCURVE",
"685 87 OFFCURVE",
"685 221 CURVE SMOOTH",
"685 373 OFFCURVE",
"598 525 OFFCURVE",
"469 576 CURVE",
"447 507 OFFCURVE",
"394 454 OFFCURVE",
"309 454 CURVE SMOOTH",
"237 454 OFFCURVE",
"184 479 OFFCURVE",
"184 551 CURVE SMOOTH",
"184 559 OFFCURVE",
"185 568 OFFCURVE",
"187 576 CURVE",
"125 576 LINE",
"123 565 OFFCURVE",
"122 555 OFFCURVE",
"122 546 CURVE SMOOTH",
"122 449 OFFCURVE",
"201 402 OFFCURVE",
"309 402 CURVE SMOOTH",
"403 402 OFFCURVE",
"471 454 OFFCURVE",
"503 521 CURVE",
"454 512 LINE",
"552 477 OFFCURVE",
"623 357 OFFCURVE",
"623 218 CURVE SMOOTH",
"623 111 OFFCURVE",
"581 42 OFFCURVE",
"509 42 CURVE SMOOTH",
"434 42 OFFCURVE",
"393 101 OFFCURVE",
"393 172 CURVE SMOOTH",
"393 219 LINE",
"332 219 LINE",
"332 173 LINE SMOOTH",
"332 96 OFFCURVE",
"283 42 OFFCURVE",
"215 42 CURVE SMOOTH",
"144 42 OFFCURVE",
"101 86 OFFCURVE",
"101 150 CURVE SMOOTH",
"101 215 OFFCURVE",
"148 259 OFFCURVE",
"217 259 CURVE SMOOTH",
"227 259 OFFCURVE",
"237 258 OFFCURVE",
"248 256 CURVE",
"248 313 LINE",
"237 315 OFFCURVE",
"225 316 OFFCURVE",
"215 316 CURVE SMOOTH",
"111 316 OFFCURVE",
"40 248 OFFCURVE",
"40 148 CURVE SMOOTH",
"40 57 OFFCURVE",
"108 -10 OFFCURVE",
"216 -10 CURVE SMOOTH"
);
}
);
width = 725;
}
);
leftMetricsKey = kn_a;
rightMetricsKey = kn_a;
unicode = 0C8F;
},
{
glyphname = knAI;
lastChange = "2015-07-03 09:42:13 +0000";
layers = (
{
layerId = "9609CB55-EFEB-482C-9A6C-237B4D7F8578";
name = Bold;
paths = (
{
closed = 1;
nodes = (
"92 442 LINE",
"125 458 OFFCURVE",
"166 469 OFFCURVE",
"203 469 CURVE SMOOTH",
"267 469 OFFCURVE",
"307 437 OFFCURVE",
"318 371 CURVE",
"460 371 LINE",
"460 388 LINE SMOOTH",
"460 437 OFFCURVE",
"484 470 OFFCURVE",
"525 470 CURVE SMOOTH",
"603 470 OFFCURVE",
"616 383 OFFCURVE",
"616 281 CURVE SMOOTH",
"616 185 OFFCURVE",
"601 106 OFFCURVE",
"539 106 CURVE SMOOTH",
"492 106 OFFCURVE",
"466 150 OFFCURVE",
"466 210 CURVE SMOOTH",
"466 246 LINE",
"324 246 LINE",
"324 210 LINE SMOOTH",
"324 147 OFFCURVE",
"296 106 OFFCURVE",
"241 106 CURVE SMOOTH",
"199 106 OFFCURVE",
"172 129 OFFCURVE",
"172 171 CURVE SMOOTH",
"172 211 OFFCURVE",
"196 237 OFFCURVE",
"232 237 CURVE SMOOTH",
"246 237 OFFCURVE",
"251 236 OFFCURVE",
"260 234 CURVE",
"260 346 LINE",
"242 350 OFFCURVE",
"225 352 OFFCURVE",
"209 352 CURVE SMOOTH",
"106 352 OFFCURVE",
"30 291 OFFCURVE",
"30 176 CURVE SMOOTH",
"30 61 OFFCURVE",
"106 -10 OFFCURVE",
"233 -10 CURVE SMOOTH",
"318 -10 OFFCURVE",
"380 38 OFFCURVE",
"395 114 CURVE",
"407 37 OFFCURVE",
"469 -10 OFFCURVE",
"555 -10 CURVE SMOOTH",
"691 -10 OFFCURVE",
"758 114 OFFCURVE",
"758 281 CURVE SMOOTH",
"758 455 OFFCURVE",
"699 586 OFFCURVE",
"542 586 CURVE SMOOTH",
"460 586 OFFCURVE",
"402 541 OFFCURVE",
"389 472 CURVE",
"367 546 OFFCURVE",
"296 585 OFFCURVE",
"211 585 CURVE SMOOTH",
"169 585 OFFCURVE",
"123 575 OFFCURVE",
"92 563 CURVE"
);
}
);
width = 798;
},
{
background = {
paths = (
{
closed = 1;
nodes = (
"102 508 LINE",
"136 524 OFFCURVE",
"172 532 OFFCURVE",
"211 532 CURVE SMOOTH",
"297 532 OFFCURVE",
"335 473 OFFCURVE",
"335 380 CURVE",
"396 380 LINE",
"396 401 LINE SMOOTH",
"396 472 OFFCURVE",
"439 534 OFFCURVE",
"504 534 CURVE SMOOTH",
"590 534 OFFCURVE",
"626 431 OFFCURVE",
"626 290 CURVE SMOOTH",
"626 143 OFFCURVE",
"591 42 OFFCURVE",
"503 42 CURVE SMOOTH",
"434 42 OFFCURVE",
"393 101 OFFCURVE",
"393 172 CURVE SMOOTH",
"393 219 LINE",
"332 219 LINE",
"332 173 LINE SMOOTH",
"332 96 OFFCURVE",
"283 42 OFFCURVE",
"215 42 CURVE SMOOTH",
"142 42 OFFCURVE",
"101 87 OFFCURVE",
"101 153 CURVE SMOOTH",
"101 218 OFFCURVE",
"141 259 OFFCURVE",
"200 259 CURVE SMOOTH",
"210 259 OFFCURVE",
"220 258 OFFCURVE",
"231 256 CURVE",
"231 313 LINE",
"220 315 OFFCURVE",
"208 316 OFFCURVE",
"198 316 CURVE SMOOTH",
"106 316 OFFCURVE",
"40 251 OFFCURVE",
"40 151 CURVE SMOOTH",
"40 60 OFFCURVE",
"108 -10 OFFCURVE",
"216 -10 CURVE SMOOTH",
"295 -10 OFFCURVE",
"352 35 OFFCURVE",
"363 104 CURVE",
"372 35 OFFCURVE",
"432 -10 OFFCURVE",
"503 -10 CURVE SMOOTH",
"628 -10 OFFCURVE",
"688 112 OFFCURVE",
"688 291 CURVE SMOOTH",
"688 462 OFFCURVE",
"625 586 OFFCURVE",
"504 586 CURVE SMOOTH",
"435 586 OFFCURVE",
"378 536 OFFCURVE",
"366 474 CURVE",
"350 534 OFFCURVE",
"293 584 OFFCURVE",
"212 584 CURVE SMOOTH",
"170 584 OFFCURVE",
"133 576 OFFCURVE",
"102 562 CURVE"
);
}
);
};
layerId = "DCCD84DA-95A9-4923-A49E-D7B289AC34C6";
name = Light;
paths = (
{
closed = 1;
nodes = (
"102 508 LINE",
"136 524 OFFCURVE",
"172 532 OFFCURVE",
"211 532 CURVE SMOOTH",
"290 532 OFFCURVE",
"333 475 OFFCURVE",
"333 380 CURVE",
"394 380 LINE",
"394 401 LINE SMOOTH",
"394 472 OFFCURVE",
"430 534 OFFCURVE",
"500 534 CURVE SMOOTH",
"591 534 OFFCURVE",
"626 431 OFFCURVE",
"626 290 CURVE SMOOTH",
"626 143 OFFCURVE",
"592 42 OFFCURVE",
"503 42 CURVE SMOOTH",
"431 42 OFFCURVE",
"393 101 OFFCURVE",
"393 172 CURVE SMOOTH",
"393 219 LINE",
"332 219 LINE",
"332 173 LINE SMOOTH",
"332 96 OFFCURVE",
"283 42 OFFCURVE",
"211 42 CURVE SMOOTH",
"142 42 OFFCURVE",
"101 89 OFFCURVE",
"101 151 CURVE SMOOTH",
"101 211 OFFCURVE",
"138 259 OFFCURVE",
"200 259 CURVE SMOOTH",
"210 259 OFFCURVE",
"220 258 OFFCURVE",
"231 256 CURVE",
"231 313 LINE",
"220 315 OFFCURVE",
"208 316 OFFCURVE",
"198 316 CURVE SMOOTH",
"102 316 OFFCURVE",
"40 245 OFFCURVE",
"40 151 CURVE SMOOTH",
"40 60 OFFCURVE",
"108 -10 OFFCURVE",
"211 -10 CURVE SMOOTH",
"293 -10 OFFCURVE",
"351 37 OFFCURVE",
"363 104 CURVE",
"372 35 OFFCURVE",
"429 -10 OFFCURVE",
"503 -10 CURVE SMOOTH",
"628 -10 OFFCURVE",
"688 112 OFFCURVE",
"688 291 CURVE SMOOTH",
"688 462 OFFCURVE",
"626 586 OFFCURVE",
"502 586 CURVE SMOOTH",
"426 586 OFFCURVE",
"376 536 OFFCURVE",
"364 474 CURVE",
"348 534 OFFCURVE",
"293 584 OFFCURVE",
"213 584 CURVE SMOOTH",
"170 584 OFFCURVE",
"133 576 OFFCURVE",
"102 562 CURVE"
);
}
);
width = 738;
}
);
leftMetricsKey = kn_a;
rightMetricsKey = kn_u;
unicode = 0C90;
},
{
glyphname = knO;
lastChange = "2015-07-03 09:44:08 +0000";
layers = (
{
layerId = "9609CB55-EFEB-482C-9A6C-237B4D7F8578";
name = Bold;
paths = (
{
closed = 1;
nodes = (
"333 -10 OFFCURVE",
"407 33 OFFCURVE",
"420 114 CURVE",
"431 39 OFFCURVE",
"493 -10 OFFCURVE",
"578 -10 CURVE SMOOTH",
"714 -10 OFFCURVE",
"785 95 OFFCURVE",
"785 215 CURVE SMOOTH",
"785 338 OFFCURVE",
"713 433 OFFCURVE",
"586 433 CURVE SMOOTH",
"564 433 OFFCURVE",
"545 430 OFFCURVE",
"528 425 CURVE",
"528 313 LINE",
"539 316 OFFCURVE",
"550 318 OFFCURVE",
"560 318 CURVE SMOOTH",
"619 318 OFFCURVE",
"643 272 OFFCURVE",
"643 216 CURVE SMOOTH",
"643 153 OFFCURVE",
"622 106 OFFCURVE",
"567 106 CURVE SMOOTH",
"519 106 OFFCURVE",
"491 147 OFFCURVE",
"491 210 CURVE SMOOTH",
"491 251 LINE",
"349 251 LINE",
"349 210 LINE SMOOTH",
"349 144 OFFCURVE",
"313 106 OFFCURVE",
"250 106 CURVE SMOOTH",
"216 106 OFFCURVE",
"181 120 OFFCURVE",
"181 160 CURVE SMOOTH",
"181 250 OFFCURVE",
"406 276 OFFCURVE",
"406 427 CURVE SMOOTH",
"406 527 OFFCURVE",
"329 587 OFFCURVE",
"232 587 CURVE SMOOTH",
"115 587 OFFCURVE",
"54 517 OFFCURVE",
"54 430 CURVE SMOOTH",
"54 414 OFFCURVE",
"56 401 OFFCURVE",
"60 384 CURVE",
"192 384 LINE",
"189 396 OFFCURVE",
"187 406 OFFCURVE",
"187 418 CURVE SMOOTH",
"187 447 OFFCURVE",
"200 470 OFFCURVE",
"232 470 CURVE SMOOTH",
"259 470 OFFCURVE",
"275 450 OFFCURVE",
"275 423 CURVE SMOOTH",
"275 334 OFFCURVE",
"40 318 OFFCURVE",
"40 154 CURVE SMOOTH",
"40 53 OFFCURVE",
"119 -10 OFFCURVE",
"236 -10 CURVE"
);
}
);
width = 815;
},
{
background = {
paths = (
{
closed = 1;
nodes = (
"294 -10 OFFCURVE",
"354 32 OFFCURVE",
"371 104 CURVE",
"382 32 OFFCURVE",
"436 -10 OFFCURVE",
"515 -10 CURVE",
"628 -10 OFFCURVE",
"705 69 OFFCURVE",
"705 182 CURVE SMOOTH",
"705 304 OFFCURVE",
"635 375 OFFCURVE",
"523 375 CURVE SMOOTH",
"513 375 OFFCURVE",
"501 374 OFFCURVE",
"490 372 CURVE",
"490 315 LINE",
"501 317 OFFCURVE",
"511 318 OFFCURVE",
"521 318 CURVE SMOOTH",
"606 318 OFFCURVE",
"644 256 OFFCURVE",
"644 184 CURVE SMOOTH",
"644 107 OFFCURVE",
"608 42 OFFCURVE",
"516 42 CURVE",
"448 42 OFFCURVE",
"402 96 OFFCURVE",
"402 173 CURVE",
"402 219 LINE",
"341 219 LINE",
"341 172 LINE",
"341 98 OFFCURVE",
"289 42 OFFCURVE",
"213 42 CURVE SMOOTH",
"143 42 OFFCURVE",
"106 81 OFFCURVE",
"106 139 CURVE SMOOTH",
"106 282 OFFCURVE",
"343 292 OFFCURVE",
"343 448 CURVE SMOOTH",
"343 519 OFFCURVE",
"297 587 OFFCURVE",
"205 587 CURVE SMOOTH",
"116 587 OFFCURVE",
"62 528 OFFCURVE",
"62 448 CURVE SMOOTH",
"62 433 OFFCURVE",
"64 417 OFFCURVE",
"68 401 CURVE",
"127 401 LINE",
"124 417 OFFCURVE",
"122 431 OFFCURVE",
"122 444 CURVE SMOOTH",
"122 505 OFFCURVE",
"159 535 OFFCURVE",
"205 535 CURVE SMOOTH",
"255 535 OFFCURVE",
"284 499 OFFCURVE",
"284 447 CURVE SMOOTH",
"284 319 OFFCURVE",
"44 309 OFFCURVE",
"44 139 CURVE SMOOTH",
"44 50 OFFCURVE",
"113 -10 OFFCURVE",
"209 -10 CURVE SMOOTH"
);
}
);
};
layerId = "DCCD84DA-95A9-4923-A49E-D7B289AC34C6";
name = Light;
paths = (
{
closed = 1;
nodes = (
"300 -10 OFFCURVE",
"358 32 OFFCURVE",
"375 104 CURVE",
"386 32 OFFCURVE",
"440 -10 OFFCURVE",
"520 -10 CURVE SMOOTH",
"632 -10 OFFCURVE",
"701 75 OFFCURVE",
"701 184 CURVE SMOOTH",
"701 299 OFFCURVE",
"636 375 OFFCURVE",
"524 375 CURVE SMOOTH",
"514 375 OFFCURVE",
"502 374 OFFCURVE",
"491 372 CURVE",
"491 315 LINE",
"502 317 OFFCURVE",
"512 318 OFFCURVE",
"522 318 CURVE SMOOTH",
"603 318 OFFCURVE",
"640 256 OFFCURVE",
"640 184 CURVE SMOOTH",
"640 111 OFFCURVE",
"600 42 OFFCURVE",
"520 42 CURVE SMOOTH",
"449 42 OFFCURVE",
"406 96 OFFCURVE",
"406 173 CURVE",
"406 219 LINE",
"345 219 LINE",
"345 172 LINE",
"345 98 OFFCURVE",
"295 42 OFFCURVE",
"219 42 CURVE SMOOTH",
"149 42 OFFCURVE",
"112 81 OFFCURVE",
"112 139 CURVE SMOOTH",
"112 276 OFFCURVE",
"349 292 OFFCURVE",
"349 448 CURVE SMOOTH",
"349 519 OFFCURVE",
"303 587 OFFCURVE",
"211 587 CURVE SMOOTH",
"122 587 OFFCURVE",
"68 528 OFFCURVE",
"68 448 CURVE SMOOTH",
"68 433 OFFCURVE",
"70 417 OFFCURVE",
"74 401 CURVE",
"133 401 LINE",
"130 417 OFFCURVE",
"128 431 OFFCURVE",
"128 444 CURVE SMOOTH",
"128 505 OFFCURVE",
"165 535 OFFCURVE",
"211 535 CURVE SMOOTH",
"261 535 OFFCURVE",
"288 499 OFFCURVE",
"288 447 CURVE SMOOTH",
"288 324 OFFCURVE",
"50 309 OFFCURVE",
"50 139 CURVE SMOOTH",
"50 50 OFFCURVE",
"119 -10 OFFCURVE",
"215 -10 CURVE SMOOTH"
);
}
);
width = 741;
}
);
leftMetricsKey = kn_u;
rightMetricsKey = kn_a;
unicode = 0C92;
},
{
glyphname = knOO;
lastChange = "2015-07-03 09:44:08 +0000";
layers = (
{
layerId = "9609CB55-EFEB-482C-9A6C-237B4D7F8578";
name = Bold;
paths = (
{
closed = 1;
nodes = (
"333 -10 OFFCURVE",
"407 33 OFFCURVE",
"420 114 CURVE",
"431 39 OFFCURVE",
"493 -10 OFFCURVE",
"578 -10 CURVE SMOOTH",
"714 -10 OFFCURVE",
"785 95 OFFCURVE",
"785 215 CURVE SMOOTH",
"785 338 OFFCURVE",
"713 433 OFFCURVE",
"586 433 CURVE SMOOTH",
"564 433 OFFCURVE",
"545 430 OFFCURVE",
"528 425 CURVE",
"528 313 LINE",
"539 316 OFFCURVE",
"550 318 OFFCURVE",
"560 318 CURVE SMOOTH",
"619 318 OFFCURVE",
"643 272 OFFCURVE",
"643 216 CURVE SMOOTH",
"643 153 OFFCURVE",
"622 106 OFFCURVE",
"567 106 CURVE SMOOTH",
"519 106 OFFCURVE",
"491 147 OFFCURVE",
"491 210 CURVE SMOOTH",
"491 251 LINE",
"349 251 LINE",
"349 210 LINE SMOOTH",
"349 144 OFFCURVE",
"313 106 OFFCURVE",
"250 106 CURVE SMOOTH",
"216 106 OFFCURVE",
"181 120 OFFCURVE",
"181 160 CURVE SMOOTH",
"181 250 OFFCURVE",
"406 276 OFFCURVE",
"406 427 CURVE SMOOTH",
"406 527 OFFCURVE",
"329 587 OFFCURVE",
"232 587 CURVE SMOOTH",
"115 587 OFFCURVE",
"54 517 OFFCURVE",
"54 430 CURVE SMOOTH",
"54 414 OFFCURVE",
"56 401 OFFCURVE",
"60 384 CURVE",
"192 384 LINE",
"189 396 OFFCURVE",
"187 406 OFFCURVE",
"187 418 CURVE SMOOTH",
"187 447 OFFCURVE",
"200 470 OFFCURVE",
"232 470 CURVE SMOOTH",
"259 470 OFFCURVE",
"275 450 OFFCURVE",
"275 423 CURVE SMOOTH",
"275 334 OFFCURVE",
"40 318 OFFCURVE",
"40 154 CURVE SMOOTH",
"40 53 OFFCURVE",
"119 -10 OFFCURVE",
"236 -10 CURVE"
);
},
{
closed = 1;
nodes = (
"348 551 LINE",
"330 565 OFFCURVE",
"316 586 OFFCURVE",
"316 613 CURVE SMOOTH",
"316 638 OFFCURVE",
"331 659 OFFCURVE",
"359 659 CURVE SMOOTH",
"367 659 OFFCURVE",
"376 658 OFFCURVE",
"386 654 CURVE",
"386 767 LINE",
"367 773 OFFCURVE",
"346 776 OFFCURVE",
"327 776 CURVE SMOOTH",
"257 776 OFFCURVE",
"194 739 OFFCURVE",
"194 666 CURVE SMOOTH",
"194 619 OFFCURVE",
"228 573 OFFCURVE",
"278 545 CURVE"
);
}
);
width = 815;
},
{
background = {
paths = (
{
closed = 1;
nodes = (
"300 -10 OFFCURVE",
"360 32 OFFCURVE",
"377 104 CURVE",
"388 32 OFFCURVE",
"442 -10 OFFCURVE",
"521 -10 CURVE",
"634 -10 OFFCURVE",
"711 69 OFFCURVE",
"711 182 CURVE SMOOTH",
"711 304 OFFCURVE",
"641 375 OFFCURVE",
"529 375 CURVE SMOOTH",
"519 375 OFFCURVE",
"507 374 OFFCURVE",
"496 372 CURVE",
"496 315 LINE",
"507 317 OFFCURVE",
"517 318 OFFCURVE",
"527 318 CURVE SMOOTH",
"612 318 OFFCURVE",
"650 256 OFFCURVE",
"650 184 CURVE SMOOTH",
"650 107 OFFCURVE",
"614 42 OFFCURVE",
"522 42 CURVE",
"454 42 OFFCURVE",
"408 96 OFFCURVE",
"408 173 CURVE",
"408 219 LINE",
"347 219 LINE",
"347 172 LINE",
"347 98 OFFCURVE",
"295 42 OFFCURVE",
"219 42 CURVE SMOOTH",
"149 42 OFFCURVE",
"112 81 OFFCURVE",
"112 139 CURVE SMOOTH",
"112 282 OFFCURVE",
"349 292 OFFCURVE",
"349 448 CURVE SMOOTH",
"349 519 OFFCURVE",
"303 587 OFFCURVE",
"211 587 CURVE SMOOTH",
"122 587 OFFCURVE",
"68 528 OFFCURVE",
"68 448 CURVE SMOOTH",
"68 433 OFFCURVE",
"70 417 OFFCURVE",
"74 401 CURVE",
"133 401 LINE",
"130 417 OFFCURVE",
"128 431 OFFCURVE",
"128 444 CURVE SMOOTH",
"128 505 OFFCURVE",
"165 535 OFFCURVE",
"211 535 CURVE SMOOTH",
"261 535 OFFCURVE",
"290 499 OFFCURVE",
"290 447 CURVE SMOOTH",
"290 319 OFFCURVE",
"50 309 OFFCURVE",
"50 139 CURVE SMOOTH",
"50 50 OFFCURVE",
"119 -10 OFFCURVE",
"215 -10 CURVE SMOOTH"
);
},
{
closed = 1;
nodes = (
"308 551 LINE",
"267 585 OFFCURVE",
"252 618 OFFCURVE",
"252 647 CURVE SMOOTH",
"252 680 OFFCURVE",
"270 700 OFFCURVE",
"300 700 CURVE SMOOTH",
"311 700 OFFCURVE",
"324 698 OFFCURVE",
"338 692 CURVE",
"338 746 LINE",
"322 751 OFFCURVE",
"309 753 OFFCURVE",
"292 753 CURVE SMOOTH",
"241 753 OFFCURVE",
"198 715 OFFCURVE",
"198 663 CURVE SMOOTH",
"198 615 OFFCURVE",
"228 577 OFFCURVE",
"278 549 CURVE"
);
}
);
};
layerId = "DCCD84DA-95A9-4923-A49E-D7B289AC34C6";
name = Light;
paths = (
{
closed = 1;
nodes = (
"300 -10 OFFCURVE",
"358 32 OFFCURVE",
"375 104 CURVE",
"386 32 OFFCURVE",
"440 -10 OFFCURVE",
"520 -10 CURVE SMOOTH",
"632 -10 OFFCURVE",
"701 75 OFFCURVE",
"701 184 CURVE SMOOTH",
"701 299 OFFCURVE",
"636 375 OFFCURVE",
"524 375 CURVE SMOOTH",
"514 375 OFFCURVE",
"502 374 OFFCURVE",
"491 372 CURVE",
"491 315 LINE",
"502 317 OFFCURVE",
"512 318 OFFCURVE",
"522 318 CURVE SMOOTH",
"603 318 OFFCURVE",
"640 256 OFFCURVE",
"640 184 CURVE SMOOTH",
"640 111 OFFCURVE",
"600 42 OFFCURVE",
"520 42 CURVE SMOOTH",
"449 42 OFFCURVE",
"406 96 OFFCURVE",
"406 173 CURVE",
"406 219 LINE",
"345 219 LINE",
"345 172 LINE",
"345 98 OFFCURVE",
"295 42 OFFCURVE",
"219 42 CURVE SMOOTH",
"149 42 OFFCURVE",
"112 81 OFFCURVE",
"112 139 CURVE SMOOTH",
"112 276 OFFCURVE",
"349 292 OFFCURVE",
"349 448 CURVE SMOOTH",
"349 519 OFFCURVE",
"303 587 OFFCURVE",
"211 587 CURVE SMOOTH",
"122 587 OFFCURVE",
"68 528 OFFCURVE",
"68 448 CURVE SMOOTH",
"68 433 OFFCURVE",
"70 417 OFFCURVE",
"74 401 CURVE",
"133 401 LINE",
"130 417 OFFCURVE",
"128 431 OFFCURVE",
"128 444 CURVE SMOOTH",
"128 505 OFFCURVE",
"165 535 OFFCURVE",
"211 535 CURVE SMOOTH",
"261 535 OFFCURVE",
"288 499 OFFCURVE",
"288 447 CURVE SMOOTH",
"288 324 OFFCURVE",
"50 309 OFFCURVE",
"50 139 CURVE SMOOTH",
"50 50 OFFCURVE",
"119 -10 OFFCURVE",
"215 -10 CURVE SMOOTH"
);
},
{
closed = 1;
nodes = (
"308 551 LINE",
"264 588 OFFCURVE",
"249 618 OFFCURVE",
"249 650 CURVE SMOOTH",
"249 679 OFFCURVE",
"266 701 OFFCURVE",
"296 701 CURVE SMOOTH",
"307 701 OFFCURVE",
"318 699 OFFCURVE",
"329 694 CURVE",
"329 747 LINE",
"316 752 OFFCURVE",
"302 754 OFFCURVE",
"289 754 CURVE SMOOTH",
"228 754 OFFCURVE",
"189 712 OFFCURVE",
"189 664 CURVE SMOOTH",
"189 610 OFFCURVE",
"229 571 OFFCURVE",
"282 550 CURVE"
);
}
);
width = 741;
}
);
leftMetricsKey = kn_u;
rightMetricsKey = kn_a;
unicode = 0C93;
},
{
glyphname = knAU;
lastChange = "2015-07-03 09:44:08 +0000";
layers = (
{
layerId = "9609CB55-EFEB-482C-9A6C-237B4D7F8578";
name = Bold;
paths = (
{
closed = 1;
nodes = (
"328 -10 OFFCURVE",
"392 33 OFFCURVE",
"405 114 CURVE",
"416 39 OFFCURVE",
"478 -10 OFFCURVE",
"570 -10 CURVE SMOOTH",
"680 -10 OFFCURVE",
"770 55 OFFCURVE",
"770 175 CURVE SMOOTH",
"770 257 OFFCURVE",
"718 330 OFFCURVE",
"609 330 CURVE SMOOTH",
"585 330 OFFCURVE",
"567 328 OFFCURVE",
"549 323 CURVE",
"549 211 LINE",
"558 213 OFFCURVE",
"567 214 OFFCURVE",
"575 214 CURVE SMOOTH",
"612 214 OFFCURVE",
"628 194 OFFCURVE",
"628 163 CURVE SMOOTH",
"628 129 OFFCURVE",
"602 106 OFFCURVE",
"564 106 CURVE SMOOTH",
"502 106 OFFCURVE",
"476 148 OFFCURVE",
"476 210 CURVE SMOOTH",
"476 251 LINE",
"334 251 LINE",
"334 210 LINE SMOOTH",
"334 144 OFFCURVE",
"301 106 OFFCURVE",
"245 106 CURVE SMOOTH",
"211 106 OFFCURVE",
"181 120 OFFCURVE",
"181 160 CURVE SMOOTH",
"181 250 OFFCURVE",
"401 276 OFFCURVE",
"401 427 CURVE SMOOTH",
"401 511 OFFCURVE",
"335 557 OFFCURVE",
"227 557 CURVE SMOOTH",
"110 557 OFFCURVE",
"62 517 OFFCURVE",
"62 430 CURVE SMOOTH",
"62 414 OFFCURVE",
"64 401 OFFCURVE",
"68 384 CURVE",
"190 384 LINE",
"187 396 OFFCURVE",
"185 406 OFFCURVE",
"185 418 CURVE SMOOTH",
"185 447 OFFCURVE",
"199 470 OFFCURVE",
"229 470 CURVE SMOOTH",
"255 470 OFFCURVE",
"270 452 OFFCURVE",
"270 425 CURVE SMOOTH",
"270 334 OFFCURVE",
"40 318 OFFCURVE",
"40 154 CURVE SMOOTH",
"40 53 OFFCURVE",
"114 -10 OFFCURVE",
"231 -10 CURVE SMOOTH"
);
},
{
closed = 1;
nodes = (
"283 484 LINE SMOOTH",
"394 484 OFFCURVE",
"452 534 OFFCURVE",
"452 620 CURVE SMOOTH",
"452 664 LINE",
"320 664 LINE",
"320 646 LINE SMOOTH",
"320 619 OFFCURVE",
"320 585 OFFCURVE",
"269 585 CURVE SMOOTH",
"49 585 LINE",
"49 484 LINE"
);
},
{
closed = 1;
nodes = (
"748 360 OFFCURVE",
"819 450 OFFCURVE",
"819 556 CURVE SMOOTH",
"819 712 OFFCURVE",
"693 773 OFFCURVE",
"564 773 CURVE SMOOTH",
"49 773 LINE",
"49 661 LINE",
"557 661 LINE SMOOTH",
"650 661 OFFCURVE",
"692 616 OFFCURVE",
"692 550 CURVE SMOOTH",
"692 503 OFFCURVE",
"670 466 OFFCURVE",
"628 466 CURVE SMOOTH",
"606 466 OFFCURVE",
"591 476 OFFCURVE",
"591 494 CURVE SMOOTH",
"591 513 OFFCURVE",
"605 523 OFFCURVE",
"621 523 CURVE SMOOTH",
"629 523 OFFCURVE",
"634 522 OFFCURVE",
"638 521 CURVE",
"638 614 LINE",
"626 619 OFFCURVE",
"612 620 OFFCURVE",
"599 620 CURVE SMOOTH",
"531 620 OFFCURVE",
"473 574 OFFCURVE",
"473 498 CURVE SMOOTH",
"473 415 OFFCURVE",
"534 360 OFFCURVE",
"631 360 CURVE SMOOTH"
);
}
);
width = 849;
},
{
background = {
paths = (
{
closed = 1;
nodes = (
"300 -10 OFFCURVE",
"360 32 OFFCURVE",
"377 104 CURVE",
"388 32 OFFCURVE",
"442 -10 OFFCURVE",
"528 -10 CURVE SMOOTH",
"639 -10 OFFCURVE",
"709 59 OFFCURVE",
"709 160 CURVE SMOOTH",
"709 258 OFFCURVE",
"644 325 OFFCURVE",
"552 325 CURVE SMOOTH",
"530 325 OFFCURVE",
"513 322 OFFCURVE",
"496 316 CURVE",
"496 259 LINE",
"513 266 OFFCURVE",
"530 269 OFFCURVE",
"551 269 CURVE SMOOTH",
"606 269 OFFCURVE",
"648 231 OFFCURVE",
"648 162 CURVE SMOOTH",
"648 90 OFFCURVE",
"603 42 OFFCURVE",
"529 42 CURVE SMOOTH",
"454 42 OFFCURVE",
"408 96 OFFCURVE",
"408 173 CURVE",
"408 219 LINE",
"347 219 LINE",
"347 172 LINE",
"347 98 OFFCURVE",
"295 42 OFFCURVE",
"219 42 CURVE SMOOTH",
"149 42 OFFCURVE",
"112 81 OFFCURVE",
"112 139 CURVE SMOOTH",
"112 282 OFFCURVE",
"349 282 OFFCURVE",
"349 438 CURVE SMOOTH",
"349 511 OFFCURVE",
"293 567 OFFCURVE",
"211 567 CURVE SMOOTH",
"127 567 OFFCURVE",
"70 516 OFFCURVE",
"70 436 CURVE SMOOTH",
"70 423 OFFCURVE",
"71 410 OFFCURVE",
"74 396 CURVE",
"133 396 LINE",
"130 409 OFFCURVE",
"129 421 OFFCURVE",
"129 433 CURVE SMOOTH",
"129 484 OFFCURVE",
"156 517 OFFCURVE",
"211 517 CURVE SMOOTH",
"260 517 OFFCURVE",
"290 482 OFFCURVE",
"290 437 CURVE SMOOTH",
"290 309 OFFCURVE",
"50 309 OFFCURVE",
"50 139 CURVE SMOOTH",
"50 50 OFFCURVE",
"119 -10 OFFCURVE",
"215 -10 CURVE SMOOTH"
);
},
{
closed = 1;
nodes = (
"289 522 LINE",
"367 522 OFFCURVE",
"414 559 OFFCURVE",
"414 651 CURVE",
"414 703 LINE",
"353 703 LINE",
"353 658 LINE",
"353 604 OFFCURVE",
"337 576 OFFCURVE",
"264 576 CURVE",
"57 576 LINE",
"57 522 LINE"
);
},
{
closed = 1;
nodes = (
"671 413 OFFCURVE",
"737 475 OFFCURVE",
"737 570 CURVE SMOOTH",
"737 650 OFFCURVE",
"691 746 OFFCURVE",
"541 746 CURVE SMOOTH",
"59 746 LINE",
"59 692 LINE",
"534 692 LINE SMOOTH",
"639 692 OFFCURVE",
"676 631 OFFCURVE",
"676 570 CURVE SMOOTH",
"676 514 OFFCURVE",
"649 465 OFFCURVE",
"590 465 CURVE SMOOTH",
"544 465 OFFCURVE",
"521 489 OFFCURVE",
"521 522 CURVE SMOOTH",
"521 553 OFFCURVE",
"543 577 OFFCURVE",
"576 577 CURVE SMOOTH",
"588 577 OFFCURVE",
"599 575 OFFCURVE",
"609 572 CURVE",
"609 623 LINE",
"595 627 OFFCURVE",
"583 629 OFFCURVE",
"568 629 CURVE SMOOTH",
"511 629 OFFCURVE",
"460 588 OFFCURVE",
"460 522 CURVE SMOOTH",
"460 456 OFFCURVE",
"510 413 OFFCURVE",
"588 413 CURVE SMOOTH"
);
}
);
};
layerId = "DCCD84DA-95A9-4923-A49E-D7B289AC34C6";
name = Light;
paths = (
{
closed = 1;
nodes = (
"300 -10 OFFCURVE",
"360 32 OFFCURVE",
"377 104 CURVE",
"388 32 OFFCURVE",
"442 -10 OFFCURVE",
"531 -10 CURVE SMOOTH",
"638 -10 OFFCURVE",
"707 62 OFFCURVE",
"707 162 CURVE SMOOTH",
"707 259 OFFCURVE",
"642 325 OFFCURVE",
"552 325 CURVE SMOOTH",
"530 325 OFFCURVE",
"513 322 OFFCURVE",
"496 316 CURVE",
"496 259 LINE",
"513 266 OFFCURVE",
"530 269 OFFCURVE",
"551 269 CURVE SMOOTH",
"604 269 OFFCURVE",
"646 232 OFFCURVE",
"646 164 CURVE SMOOTH",
"646 93 OFFCURVE",
"603 42 OFFCURVE",
"532 42 CURVE SMOOTH",
"454 42 OFFCURVE",
"408 96 OFFCURVE",
"408 173 CURVE",
"408 219 LINE",
"347 219 LINE",
"347 172 LINE",
"347 98 OFFCURVE",
"295 42 OFFCURVE",
"219 42 CURVE SMOOTH",
"149 42 OFFCURVE",
"112 81 OFFCURVE",
"112 139 CURVE SMOOTH",
"112 279 OFFCURVE",
"349 279 OFFCURVE",
"349 438 CURVE SMOOTH",
"349 511 OFFCURVE",
"293 567 OFFCURVE",
"211 567 CURVE SMOOTH",
"127 567 OFFCURVE",
"70 516 OFFCURVE",
"70 436 CURVE SMOOTH",
"70 423 OFFCURVE",
"71 410 OFFCURVE",
"74 396 CURVE",
"133 396 LINE",
"130 409 OFFCURVE",
"129 421 OFFCURVE",
"129 433 CURVE SMOOTH",
"129 484 OFFCURVE",
"156 517 OFFCURVE",
"211 517 CURVE SMOOTH",
"260 517 OFFCURVE",
"290 482 OFFCURVE",
"290 437 CURVE SMOOTH",
"290 313 OFFCURVE",
"50 309 OFFCURVE",
"50 139 CURVE SMOOTH",
"50 50 OFFCURVE",
"119 -10 OFFCURVE",
"215 -10 CURVE SMOOTH"
);
},
{
closed = 1;
nodes = (
"289 522 LINE",
"367 522 OFFCURVE",
"414 559 OFFCURVE",
"414 651 CURVE",
"414 703 LINE",
"353 703 LINE",
"353 658 LINE",
"353 604 OFFCURVE",
"337 576 OFFCURVE",
"264 576 CURVE",
"57 576 LINE",
"57 522 LINE"
);
},
{
closed = 1;
nodes = (
"671 413 OFFCURVE",
"737 475 OFFCURVE",
"737 570 CURVE SMOOTH",
"737 650 OFFCURVE",
"691 746 OFFCURVE",
"541 746 CURVE SMOOTH",
"59 746 LINE",
"59 692 LINE",
"534 692 LINE SMOOTH",
"639 692 OFFCURVE",
"676 631 OFFCURVE",
"676 570 CURVE SMOOTH",
"676 514 OFFCURVE",
"649 465 OFFCURVE",
"590 465 CURVE SMOOTH",
"544 465 OFFCURVE",
"521 489 OFFCURVE",
"521 522 CURVE SMOOTH",
"521 553 OFFCURVE",
"543 577 OFFCURVE",
"576 577 CURVE SMOOTH",
"588 577 OFFCURVE",
"599 575 OFFCURVE",
"609 572 CURVE",
"609 623 LINE",
"595 627 OFFCURVE",
"583 629 OFFCURVE",
"568 629 CURVE SMOOTH",
"511 629 OFFCURVE",
"460 588 OFFCURVE",
"460 522 CURVE SMOOTH",
"460 456 OFFCURVE",
"510 413 OFFCURVE",
"588 413 CURVE SMOOTH"
);
}
);
width = 777;
}
);
leftMetricsKey = kn_u;
rightMetricsKey = kn_a;
unicode = 0C94;
},
{
glyphname = knmAA;
lastChange = "2015-07-03 09:42:13 +0000";
layers = (
{
background = {
paths = (
{
closed = 1;
nodes = (
"95 464 LINE",
"340 464 LINE SMOOTH",
"492 464 OFFCURVE",
"549 390 OFFCURVE",
"549 286 CURVE SMOOTH",
"549 257 OFFCURVE",
"548 228 OFFCURVE",
"545 201 CURVE",
"573 209 LINE",
"565 277 OFFCURVE",
"517 313 OFFCURVE",
"450 313 CURVE SMOOTH",
"359 313 OFFCURVE",
"302 244 OFFCURVE",
"302 154 CURVE SMOOTH",
"302 64 OFFCURVE",
"366 -11 OFFCURVE",
"478 -11 CURVE SMOOTH",
"627 -11 OFFCURVE",
"686 124 OFFCURVE",
"686 272 CURVE SMOOTH",
"686 456 OFFCURVE",
"577 576 OFFCURVE",
"363 576 CURVE SMOOTH",
"95 576 LINE"
);
},
{
closed = 1;
nodes = (
"450 101 OFFCURVE",
"431 126 OFFCURVE",
"431 157 CURVE SMOOTH",
"431 188 OFFCURVE",
"449 215 OFFCURVE",
"484 215 CURVE SMOOTH",
"519 215 OFFCURVE",
"540 193 OFFCURVE",
"540 159 CURVE SMOOTH",
"540 128 OFFCURVE",
"520 101 OFFCURVE",
"487 101 CURVE SMOOTH"
);
}
);
};
layerId = "9609CB55-EFEB-482C-9A6C-237B4D7F8578";
name = Bold;
paths = (
{
closed = 1;
nodes = (
"567 210 LINE",
"564 277 OFFCURVE",
"514 314 OFFCURVE",
"446 314 CURVE SMOOTH",
"357 314 OFFCURVE",
"298 246 OFFCURVE",
"298 155 CURVE SMOOTH",
"298 70 OFFCURVE",
"362 -10 OFFCURVE",
"483 -10 CURVE SMOOTH",
"621 -10 OFFCURVE",
"688 115 OFFCURVE",
"688 254 CURVE SMOOTH",
"688 429 OFFCURVE",
"587 576 OFFCURVE",
"370 576 CURVE",
"95 576 LINE",
"95 464 LINE",
"332 464 LINE",
"470 464 OFFCURVE",
"550 388 OFFCURVE",
"550 271 CURVE SMOOTH",
"550 249 OFFCURVE",
"547 226 OFFCURVE",
"542 202 CURVE"
);
},
{
closed = 1;
nodes = (
"445 102 OFFCURVE",
"425 126 OFFCURVE",
"425 158 CURVE SMOOTH",
"425 189 OFFCURVE",
"443 216 OFFCURVE",
"478 216 CURVE SMOOTH",
"515 216 OFFCURVE",
"534 191 OFFCURVE",
"534 160 CURVE SMOOTH",
"534 129 OFFCURVE",
"515 102 OFFCURVE",
"481 102 CURVE SMOOTH"
);
}
);
width = 748;
},
{
background = {
paths = (
{
closed = 1;
nodes = (
"610 -10 OFFCURVE",
"660 112 OFFCURVE",
"660 249 CURVE SMOOTH",
"660 430 OFFCURVE",
"555 576 OFFCURVE",
"359 576 CURVE",
"106 576 LINE",
"106 522 LINE",
"354 522 LINE",
"512 522 OFFCURVE",
"605 409 OFFCURVE",
"605 249 CURVE SMOOTH",
"605 218 OFFCURVE",
"602 186 OFFCURVE",
"596 152 CURVE",
"622 154 LINE",
"622 250 OFFCURVE",
"560 302 OFFCURVE",
"474 302 CURVE SMOOTH",
"383 302 OFFCURVE",
"319 235 OFFCURVE",
"319 144 CURVE SMOOTH",
"319 58 OFFCURVE",
"381 -10 OFFCURVE",
"479 -10 CURVE SMOOTH"
);
},
{
closed = 1;
nodes = (
"420 42 OFFCURVE",
"381 86 OFFCURVE",
"381 142 CURVE SMOOTH",
"381 203 OFFCURVE",
"417 250 OFFCURVE",
"479 250 CURVE SMOOTH",
"540 250 OFFCURVE",
"580 208 OFFCURVE",
"580 146 CURVE SMOOTH",
"580 88 OFFCURVE",
"540 42 OFFCURVE",
"480 42 CURVE SMOOTH"
);
}
);
};
layerId = "DCCD84DA-95A9-4923-A49E-D7B289AC34C6";
name = Light;
paths = (
{
closed = 1;
nodes = (
"617 134 LINE",
"617 221 OFFCURVE",
"562 282 OFFCURVE",
"479 282 CURVE SMOOTH",
"395 282 OFFCURVE",
"334 214 OFFCURVE",
"334 134 CURVE SMOOTH",
"334 55 OFFCURVE",
"394 -10 OFFCURVE",
"479 -10 CURVE SMOOTH",
"605 -10 OFFCURVE",
"661 112 OFFCURVE",
"661 250 CURVE SMOOTH",
"661 429 OFFCURVE",
"561 576 OFFCURVE",
"359 576 CURVE",
"106 576 LINE",
"106 522 LINE",
"352 524 LINE",
"509 524 OFFCURVE",
"606 410 OFFCURVE",
"606 242 CURVE SMOOTH",
"606 208 OFFCURVE",
"603 168 OFFCURVE",
"595 134 CURVE"
);
},
{
closed = 1;
nodes = (
"430 42 OFFCURVE",
"396 83 OFFCURVE",
"396 135 CURVE SMOOTH",
"396 185 OFFCURVE",
"428 230 OFFCURVE",
"481 230 CURVE SMOOTH",
"540 230 OFFCURVE",
"575 188 OFFCURVE",
"575 139 CURVE SMOOTH",
"575 86 OFFCURVE",
"535 42 OFFCURVE",
"484 42 CURVE SMOOTH"
);
}
);
width = 686;
}
);
unicode = 0CBE;
},
{
glyphname = knmI;
lastChange = "2015-07-03 09:42:13 +0000";
layers = (
{
background = {
paths = (
{
closed = 1;
nodes = (
"343 888 OFFCURVE",
"427 802 OFFCURVE",
"427 680 CURVE SMOOTH",
"427 548 OFFCURVE",
"330 461 OFFCURVE",
"205 461 CURVE SMOOTH",
"91 461 OFFCURVE",
"40 509 OFFCURVE",
"40 509 CURVE",
"40 626 LINE",
"40 626 OFFCURVE",
"103 577 OFFCURVE",
"207 577 CURVE SMOOTH",
"283 577 OFFCURVE",
"305 601 OFFCURVE",
"305 662 CURVE",
"280 632 OFFCURVE",
"249 621 OFFCURVE",
"215 621 CURVE SMOOTH",
"124 621 OFFCURVE",
"67 675 OFFCURVE",
"67 747 CURVE SMOOTH",
"67 821 OFFCURVE",
"127 888 OFFCURVE",
"235 888 CURVE SMOOTH"
);
},
{
closed = 1;
nodes = (
"210 781 OFFCURVE",
"187 770 OFFCURVE",
"187 740 CURVE SMOOTH",
"187 715 OFFCURVE",
"211 701 OFFCURVE",
"246 701 CURVE SMOOTH",
"267 701 OFFCURVE",
"285 709 OFFCURVE",
"301 722 CURVE",
"289 763 OFFCURVE",
"259 781 OFFCURVE",
"233 781 CURVE SMOOTH"
);
}
);
};
layerId = "9609CB55-EFEB-482C-9A6C-237B4D7F8578";
name = Bold;
paths = (
{
closed = 1;
nodes = (
"330 461 OFFCURVE",
"427 554 OFFCURVE",
"427 681 CURVE SMOOTH",
"427 788 OFFCURVE",
"359 886 OFFCURVE",
"230 886 CURVE SMOOTH",
"131 886 OFFCURVE",
"68 821 OFFCURVE",
"68 745 CURVE SMOOTH",
"68 667 OFFCURVE",
"120 622 OFFCURVE",
"203 622 CURVE SMOOTH",
"223 622 OFFCURVE",
"240 625 OFFCURVE",
"260 632 CURVE",
"260 711 LINE",
"248 708 OFFCURVE",
"240 707 OFFCURVE",
"229 707 CURVE SMOOTH",
"202 707 OFFCURVE",
"187 720 OFFCURVE",
"187 743 CURVE SMOOTH",
"187 766 OFFCURVE",
"205 784 OFFCURVE",
"236 784 CURVE SMOOTH",
"284 784 OFFCURVE",
"307 732 OFFCURVE",
"307 682 CURVE SMOOTH",
"307 605 OFFCURVE",
"262 566 OFFCURVE",
"196 566 CURVE SMOOTH",
"140 566 OFFCURVE",
"86 582 OFFCURVE",
"43 604 CURVE",
"43 496 LINE",
"82 474 OFFCURVE",
"132 461 OFFCURVE",
"195 461 CURVE SMOOTH"
);
}
);
width = 457;
},
{
layerId = "DCCD84DA-95A9-4923-A49E-D7B289AC34C6";
name = Light;
paths = (
{
closed = 1;
nodes = (
"320 482 OFFCURVE",
"395 582 OFFCURVE",
"395 688 CURVE SMOOTH",
"395 789 OFFCURVE",
"333 865 OFFCURVE",
"237 865 CURVE SMOOTH",
"158 865 OFFCURVE",
"108 812 OFFCURVE",
"108 750 CURVE SMOOTH",
"108 685 OFFCURVE",
"157 648 OFFCURVE",
"215 648 CURVE SMOOTH",
"236 648 OFFCURVE",
"253 651 OFFCURVE",
"273 660 CURVE",
"273 711 LINE",
"258 704 OFFCURVE",
"242 701 OFFCURVE",
"227 701 CURVE SMOOTH",
"195 701 OFFCURVE",
"169 716 OFFCURVE",
"169 752 CURVE SMOOTH",
"169 785 OFFCURVE",
"193 813 OFFCURVE",
"239 813 CURVE SMOOTH",
"300 813 OFFCURVE",
"334 759 OFFCURVE",
"334 688 CURVE SMOOTH",
"334 601 OFFCURVE",
"286 536 OFFCURVE",
"182 536 CURVE SMOOTH",
"139 536 OFFCURVE",
"97 546 OFFCURVE",
"54 566 CURVE",
"54 512 LINE",
"93 493 OFFCURVE",
"140 482 OFFCURVE",
"189 482 CURVE SMOOTH"
);
}
);
width = 405;
}
);
unicode = 0CBF;
},
{
glyphname = knmII;
lastChange = "2015-07-03 09:42:13 +0000";
layers = (
{
background = {
paths = (
{
closed = 1;
nodes = (
"730 0 LINE",
"730 9 LINE",
"596 93 OFFCURVE",
"514 194 OFFCURVE",
"514 322 CURVE SMOOTH",
"514 338 OFFCURVE",
"515 356 OFFCURVE",
"518 374 CURVE",
"495 366 LINE",
"497 300 OFFCURVE",
"547 262 OFFCURVE",
"618 262 CURVE SMOOTH",
"709 262 OFFCURVE",
"767 331 OFFCURVE",
"767 421 CURVE SMOOTH",
"767 501 OFFCURVE",
"709 586 OFFCURVE",
"600 586 CURVE SMOOTH",
"457 586 OFFCURVE",
"384 450 OFFCURVE",
"384 321 CURVE SMOOTH",
"384 185 OFFCURVE",
"449 70 OFFCURVE",
"564 0 CURVE"
);
},
{
closed = 1;
nodes = (
"330 461 OFFCURVE",
"427 554 OFFCURVE",
"427 681 CURVE SMOOTH",
"427 788 OFFCURVE",
"359 886 OFFCURVE",
"230 886 CURVE SMOOTH",
"131 886 OFFCURVE",
"68 821 OFFCURVE",
"68 745 CURVE SMOOTH",
"68 667 OFFCURVE",
"120 622 OFFCURVE",
"203 622 CURVE SMOOTH",
"223 622 OFFCURVE",
"240 625 OFFCURVE",
"260 632 CURVE",
"260 711 LINE",
"248 708 OFFCURVE",
"240 707 OFFCURVE",
"229 707 CURVE SMOOTH",
"202 707 OFFCURVE",
"187 720 OFFCURVE",
"187 743 CURVE SMOOTH",
"187 766 OFFCURVE",
"205 784 OFFCURVE",
"236 784 CURVE SMOOTH",
"284 784 OFFCURVE",
"307 732 OFFCURVE",
"307 682 CURVE SMOOTH",
"307 605 OFFCURVE",
"262 566 OFFCURVE",
"196 566 CURVE SMOOTH",
"140 566 OFFCURVE",
"86 582 OFFCURVE",
"43 604 CURVE",
"43 496 LINE",
"82 474 OFFCURVE",
"132 461 OFFCURVE",
"195 461 CURVE SMOOTH"
);
},
{
closed = 1;
nodes = (
"549 360 OFFCURVE",
"528 382 OFFCURVE",
"528 416 CURVE SMOOTH",
"528 447 OFFCURVE",
"548 474 OFFCURVE",
"581 474 CURVE SMOOTH",
"618 474 OFFCURVE",
"637 449 OFFCURVE",
"637 418 CURVE SMOOTH",
"637 387 OFFCURVE",
"619 360 OFFCURVE",
"584 360 CURVE SMOOTH"
);
}
);
};
components = (
{
name = knLengthmark;
transform = "{1, 0, 0, 1, 340, 0}";
}
);
layerId = "9609CB55-EFEB-482C-9A6C-237B4D7F8578";
name = Bold;
paths = (
{
closed = 1;
nodes = (
"330 461 OFFCURVE",
"427 554 OFFCURVE",
"427 681 CURVE SMOOTH",
"427 788 OFFCURVE",
"359 886 OFFCURVE",
"230 886 CURVE SMOOTH",
"131 886 OFFCURVE",
"68 821 OFFCURVE",
"68 745 CURVE SMOOTH",
"68 667 OFFCURVE",
"120 622 OFFCURVE",
"203 622 CURVE SMOOTH",
"223 622 OFFCURVE",
"240 625 OFFCURVE",
"260 632 CURVE",
"260 711 LINE",
"248 708 OFFCURVE",
"240 707 OFFCURVE",
"229 707 CURVE SMOOTH",
"202 707 OFFCURVE",
"187 720 OFFCURVE",
"187 743 CURVE SMOOTH",
"187 766 OFFCURVE",
"205 784 OFFCURVE",
"236 784 CURVE SMOOTH",
"284 784 OFFCURVE",
"307 732 OFFCURVE",
"307 682 CURVE SMOOTH",
"307 605 OFFCURVE",
"262 566 OFFCURVE",
"196 566 CURVE SMOOTH",
"140 566 OFFCURVE",
"86 582 OFFCURVE",
"43 604 CURVE",
"43 496 LINE",
"82 474 OFFCURVE",
"132 461 OFFCURVE",
"195 461 CURVE SMOOTH"
);
}
);
width = 787;
},
{
background = {
paths = (
{
closed = 1;
nodes = (
"700 0 LINE",
"700 6 LINE",
"576 81 OFFCURVE",
"476 218 OFFCURVE",
"476 348 CURVE SMOOTH",
"476 373 OFFCURVE",
"477 389 OFFCURVE",
"482 414 CURVE",
"459 422 LINE",
"467 326 OFFCURVE",
"511 274 OFFCURVE",
"597 274 CURVE SMOOTH",
"688 274 OFFCURVE",
"752 339 OFFCURVE",
"752 430 CURVE SMOOTH",
"752 511 OFFCURVE",
"694 586 OFFCURVE",
"598 586 CURVE SMOOTH",
"477 586 OFFCURVE",
"422 474 OFFCURVE",
"422 353 CURVE SMOOTH",
"422 204 OFFCURVE",
"521 63 OFFCURVE",
"630 0 CURVE"
);
},
{
closed = 1;
nodes = (
"350 482 OFFCURVE",
"425 582 OFFCURVE",
"425 688 CURVE SMOOTH",
"425 789 OFFCURVE",
"363 865 OFFCURVE",
"267 865 CURVE SMOOTH",
"188 865 OFFCURVE",
"138 812 OFFCURVE",
"138 750 CURVE SMOOTH",
"138 685 OFFCURVE",
"187 648 OFFCURVE",
"245 648 CURVE SMOOTH",
"266 648 OFFCURVE",
"283 651 OFFCURVE",
"303 660 CURVE",
"303 711 LINE",
"288 704 OFFCURVE",
"272 701 OFFCURVE",
"257 701 CURVE SMOOTH",
"225 701 OFFCURVE",
"199 716 OFFCURVE",
"199 752 CURVE SMOOTH",
"199 785 OFFCURVE",
"223 813 OFFCURVE",
"269 813 CURVE SMOOTH",
"330 813 OFFCURVE",
"364 759 OFFCURVE",
"364 688 CURVE SMOOTH",
"364 601 OFFCURVE",
"316 536 OFFCURVE",
"212 536 CURVE SMOOTH",
"169 536 OFFCURVE",
"127 546 OFFCURVE",
"84 566 CURVE",
"84 512 LINE",
"123 493 OFFCURVE",
"170 482 OFFCURVE",
"219 482 CURVE SMOOTH"
);
},
{
closed = 1;
nodes = (
"531 326 OFFCURVE",
"491 368 OFFCURVE",
"491 430 CURVE SMOOTH",
"491 485 OFFCURVE",
"532 534 OFFCURVE",
"592 534 CURVE SMOOTH",
"651 534 OFFCURVE",
"690 488 OFFCURVE",
"690 432 CURVE SMOOTH",
"690 371 OFFCURVE",
"653 326 OFFCURVE",
"595 326 CURVE SMOOTH"
);
}
);
};
components = (
{
name = knLengthmark;
transform = "{1, 0, 0, 1, 349, 0}";
}
);
layerId = "DCCD84DA-95A9-4923-A49E-D7B289AC34C6";
name = Light;
paths = (
{
closed = 1;
nodes = (
"350 482 OFFCURVE",
"425 582 OFFCURVE",
"425 688 CURVE SMOOTH",
"425 789 OFFCURVE",
"363 865 OFFCURVE",
"267 865 CURVE SMOOTH",
"188 865 OFFCURVE",
"138 812 OFFCURVE",
"138 750 CURVE SMOOTH",
"138 685 OFFCURVE",
"187 648 OFFCURVE",
"245 648 CURVE SMOOTH",
"266 648 OFFCURVE",
"283 651 OFFCURVE",
"303 660 CURVE",
"303 711 LINE",
"288 704 OFFCURVE",
"272 701 OFFCURVE",
"257 701 CURVE SMOOTH",
"225 701 OFFCURVE",
"199 716 OFFCURVE",
"199 752 CURVE SMOOTH",
"199 785 OFFCURVE",
"223 813 OFFCURVE",
"269 813 CURVE SMOOTH",
"330 813 OFFCURVE",
"364 759 OFFCURVE",
"364 688 CURVE SMOOTH",
"364 601 OFFCURVE",
"316 536 OFFCURVE",
"212 536 CURVE SMOOTH",
"169 536 OFFCURVE",
"127 546 OFFCURVE",
"84 566 CURVE",
"84 512 LINE",
"123 493 OFFCURVE",
"170 482 OFFCURVE",
"219 482 CURVE SMOOTH"
);
}
);
width = 772;
}
);
unicode = 0CC0;
},
{
glyphname = knmU;
lastChange = "2015-07-03 09:42:13 +0000";
layers = (
{
background = {
paths = (
{
closed = 1;
nodes = (
"220 -10 OFFCURVE",
"303 111 OFFCURVE",
"303 269 CURVE SMOOTH",
"303 433 OFFCURVE",
"225 576 OFFCURVE",
"33 576 CURVE",
"33 461 LINE",
"120 461 OFFCURVE",
"162 372 OFFCURVE",
"162 269 CURVE SMOOTH",
"162 183 OFFCURVE",
"132 106 OFFCURVE",
"69 106 CURVE SMOOTH",
"0 106 OFFCURVE",
"-31 160 OFFCURVE",
"-31 259 CURVE",
"-96 224 LINE",
"-96 80 OFFCURVE",
"-48 -10 OFFCURVE",
"90 -10 CURVE SMOOTH"
);
}
);
};
layerId = "9609CB55-EFEB-482C-9A6C-237B4D7F8578";
name = Bold;
paths = (
{
closed = 1;
nodes = (
"-109 193 LINE",
"-109 65 OFFCURVE",
"-55 -10 OFFCURVE",
"70 -10 CURVE SMOOTH",
"228 -10 OFFCURVE",
"301 113 OFFCURVE",
"301 275 CURVE SMOOTH",
"301 446 OFFCURVE",
"240 576 OFFCURVE",
"47 576 CURVE",
"47 461 LINE",
"140 461 OFFCURVE",
"160 364 OFFCURVE",
"160 261 CURVE SMOOTH",
"160 163 OFFCURVE",
"132 106 OFFCURVE",
"60 106 CURVE SMOOTH",
"14 106 OFFCURVE",
"-25 138 OFFCURVE",
"-25 193 CURVE"
);
}
);
width = 341;
},
{
background = {
paths = (
{
closed = 1;
nodes = (
"197 -10 OFFCURVE",
"265 99 OFFCURVE",
"265 275 CURVE SMOOTH",
"265 434 OFFCURVE",
"192 574 OFFCURVE",
"47 576 CURVE",
"47 522 LINE",
"141 522 OFFCURVE",
"203 414 OFFCURVE",
"203 269 CURVE SMOOTH",
"203 128 OFFCURVE",
"161 42 OFFCURVE",
"81 42 CURVE SMOOTH",
"-18 42 OFFCURVE",
"-42 149 OFFCURVE",
"-42 263 CURVE",
"-85 224 LINE",
"-85 90 OFFCURVE",
"-48 -10 OFFCURVE",
"80 -10 CURVE SMOOTH"
);
}
);
};
layerId = "DCCD84DA-95A9-4923-A49E-D7B289AC34C6";
name = Light;
paths = (
{
closed = 1;
nodes = (
"-82 162 LINE",
"-82 58 OFFCURVE",
"-29 -10 OFFCURVE",
"71 -10 CURVE SMOOTH",
"183 -10 OFFCURVE",
"264 89 OFFCURVE",
"264 275 CURVE SMOOTH",
"264 434 OFFCURVE",
"191 574 OFFCURVE",
"46 576 CURVE",
"46 522 LINE",
"140 522 OFFCURVE",
"202 414 OFFCURVE",
"202 269 CURVE SMOOTH",
"202 118 OFFCURVE",
"142 42 OFFCURVE",
"68 42 CURVE SMOOTH",
"7 42 OFFCURVE",
"-36 84 OFFCURVE",
"-36 162 CURVE"
);
}
);
width = 314;
}
);
rightMetricsKey = kn_u;
unicode = 0CC1;
},
{
glyphname = knmUU;
lastChange = "2015-07-03 09:42:13 +0000";
layers = (
{
background = {
paths = (
{
closed = 1;
nodes = (
"205 -12 OFFCURVE",
"175 471 OFFCURVE",
"375 471 CURVE SMOOTH",
"467 471 OFFCURVE",
"500 386 OFFCURVE",
"500 277 CURVE SMOOTH",
"500 249 OFFCURVE",
"497 226 OFFCURVE",
"492 202 CURVE",
"517 210 LINE",
"516 276 OFFCURVE",
"466 314 OFFCURVE",
"396 314 CURVE SMOOTH",
"304 314 OFFCURVE",
"248 243 OFFCURVE",
"248 152 CURVE SMOOTH",
"248 65 OFFCURVE",
"316 -10 OFFCURVE",
"428 -10 CURVE SMOOTH",
"573 -10 OFFCURVE",
"648 117 OFFCURVE",
"648 271 CURVE SMOOTH",
"648 440 OFFCURVE",
"571 586 OFFCURVE",
"374 586 CURVE SMOOTH",
"50 586 OFFCURVE",
"67 122 OFFCURVE",
"-50 104 CURVE SMOOTH",
"-54 103 OFFCURVE",
"-57 103 OFFCURVE",
"-60 103 CURVE SMOOTH",
"-100 103 OFFCURVE",
"-125 140 OFFCURVE",
"-125 191 CURVE",
"-209 191 LINE",
"-209 67 OFFCURVE",
"-157 -12 OFFCURVE",
"-42 -12 CURVE"
);
},
{
closed = 1;
nodes = (
"395 102 OFFCURVE",
"375 126 OFFCURVE",
"375 158 CURVE SMOOTH",
"375 189 OFFCURVE",
"393 216 OFFCURVE",
"428 216 CURVE SMOOTH",
"465 216 OFFCURVE",
"484 191 OFFCURVE",
"484 160 CURVE SMOOTH",
"484 129 OFFCURVE",
"465 102 OFFCURVE",
"431 102 CURVE SMOOTH"
);
}
);
};
layerId = "9609CB55-EFEB-482C-9A6C-237B4D7F8578";
name = Bold;
paths = (
{
closed = 1;
nodes = (
"205 -12 OFFCURVE",
"175 471 OFFCURVE",
"375 471 CURVE SMOOTH",
"467 471 OFFCURVE",
"500 386 OFFCURVE",
"500 277 CURVE SMOOTH",
"500 249 OFFCURVE",
"497 226 OFFCURVE",
"492 202 CURVE",
"517 210 LINE",
"516 276 OFFCURVE",
"466 314 OFFCURVE",
"396 314 CURVE SMOOTH",
"304 314 OFFCURVE",
"248 243 OFFCURVE",
"248 152 CURVE SMOOTH",
"248 65 OFFCURVE",
"316 -10 OFFCURVE",
"428 -10 CURVE SMOOTH",
"573 -10 OFFCURVE",
"648 117 OFFCURVE",
"648 271 CURVE SMOOTH",
"648 440 OFFCURVE",
"571 586 OFFCURVE",
"374 586 CURVE SMOOTH",
"43 586 OFFCURVE",
"71 103 OFFCURVE",
"-60 103 CURVE SMOOTH",
"-103 103 OFFCURVE",
"-125 140 OFFCURVE",
"-125 191 CURVE",
"-209 191 LINE",
"-209 67 OFFCURVE",
"-157 -12 OFFCURVE",
"-42 -12 CURVE"
);
},
{
closed = 1;
nodes = (
"395 102 OFFCURVE",
"375 126 OFFCURVE",
"375 158 CURVE SMOOTH",
"375 189 OFFCURVE",
"393 216 OFFCURVE",
"428 216 CURVE SMOOTH",
"465 216 OFFCURVE",
"484 191 OFFCURVE",
"484 160 CURVE SMOOTH",
"484 129 OFFCURVE",
"465 102 OFFCURVE",
"431 102 CURVE SMOOTH"
);
}
);
width = 720;
},
{
background = {
paths = (
{
closed = 1;
nodes = (
"177 -10 OFFCURVE",
"138 534 OFFCURVE",
"386 534 CURVE SMOOTH",
"489 534 OFFCURVE",
"555 419 OFFCURVE",
"555 259 CURVE SMOOTH",
"555 228 OFFCURVE",
"552 186 OFFCURVE",
"546 152 CURVE",
"572 154 LINE",
"572 247 OFFCURVE",
"510 302 OFFCURVE",
"424 302 CURVE SMOOTH",
"333 302 OFFCURVE",
"269 233 OFFCURVE",
"269 142 CURVE SMOOTH",
"269 56 OFFCURVE",
"331 -10 OFFCURVE",
"429 -10 CURVE SMOOTH",
"558 -10 OFFCURVE",
"610 114 OFFCURVE",
"610 260 CURVE SMOOTH",
"610 435 OFFCURVE",
"536 586 OFFCURVE",
"387 586 CURVE SMOOTH",
"84 586 OFFCURVE",
"119 42 OFFCURVE",
"-53 42 CURVE SMOOTH",
"-104 42 OFFCURVE",
"-137 84 OFFCURVE",
"-137 162 CURVE",
"-183 162 LINE",
"-183 58 OFFCURVE",
"-140 -10 OFFCURVE",
"-53 -10 CURVE"
);
},
{
closed = 1;
nodes = (
"370 42 OFFCURVE",
"331 86 OFFCURVE",
"331 142 CURVE SMOOTH",
"331 203 OFFCURVE",
"367 250 OFFCURVE",
"429 250 CURVE SMOOTH",
"490 250 OFFCURVE",
"530 208 OFFCURVE",
"530 146 CURVE SMOOTH",
"530 88 OFFCURVE",
"490 42 OFFCURVE",
"430 42 CURVE SMOOTH"
);
}
);
};
layerId = "DCCD84DA-95A9-4923-A49E-D7B289AC34C6";
name = Light;
paths = (
{
closed = 1;
nodes = (
"177 -10 OFFCURVE",
"138 534 OFFCURVE",
"386 534 CURVE",
"492 534 OFFCURVE",
"557 419 OFFCURVE",
"557 273 CURVE SMOOTH",
"557 234 OFFCURVE",
"547 181 OFFCURVE",
"537 136 CURVE",
"557 134 LINE",
"557 221 OFFCURVE",
"502 282 OFFCURVE",
"419 282 CURVE SMOOTH",
"335 282 OFFCURVE",
"274 214 OFFCURVE",
"274 134 CURVE SMOOTH",
"274 55 OFFCURVE",
"334 -10 OFFCURVE",
"419 -10 CURVE SMOOTH",
"552 -10 OFFCURVE",
"610 125 OFFCURVE",
"610 274 CURVE SMOOTH",
"610 442 OFFCURVE",
"538 586 OFFCURVE",
"387 586 CURVE",
"84 586 OFFCURVE",
"119 42 OFFCURVE",
"-53 42 CURVE SMOOTH",
"-104 42 OFFCURVE",
"-137 84 OFFCURVE",
"-137 162 CURVE",
"-183 162 LINE",
"-183 58 OFFCURVE",
"-140 -10 OFFCURVE",
"-53 -10 CURVE"
);
},
{
closed = 1;
nodes = (
"370 42 OFFCURVE",
"336 83 OFFCURVE",
"336 135 CURVE SMOOTH",
"336 185 OFFCURVE",
"368 230 OFFCURVE",
"421 230 CURVE SMOOTH",
"480 230 OFFCURVE",
"515 188 OFFCURVE",
"515 139 CURVE SMOOTH",
"515 86 OFFCURVE",
"475 42 OFFCURVE",
"424 42 CURVE SMOOTH"
);
}
);
width = 675;
}
);
unicode = 0CC2;
},
{
glyphname = knmE;
lastChange = "2015-07-03 09:42:13 +0000";
layers = (
{
background = {
paths = (
{
closed = 1;
nodes = (
"-230 452 LINE",
"-230 576 LINE",
"160 576 LINE SMOOTH",
"198 576 OFFCURVE",
"214 592 OFFCURVE",
"214 617 CURVE SMOOTH",
"214 642 OFFCURVE",
"196 653 OFFCURVE",
"174 653 CURVE SMOOTH",
"161 653 OFFCURVE",
"149 651 OFFCURVE",
"135 648 CURVE",
"135 772 LINE",
"155 776 OFFCURVE",
"172 778 OFFCURVE",
"189 778 CURVE SMOOTH",
"295 778 OFFCURVE",
"357 717 OFFCURVE",
"357 617 CURVE SMOOTH",
"357 517 OFFCURVE",
"276 452 OFFCURVE",
"160 452 CURVE SMOOTH"
);
}
);
};
layerId = "9609CB55-EFEB-482C-9A6C-237B4D7F8578";
name = Bold;
paths = (
{
closed = 1;
nodes = (
"141 464 LINE SMOOTH",
"268 464 OFFCURVE",
"342 527 OFFCURVE",
"342 630 CURVE SMOOTH",
"342 709 OFFCURVE",
"288 780 OFFCURVE",
"188 780 CURVE SMOOTH",
"157 780 OFFCURVE",
"129 775 OFFCURVE",
"105 765 CURVE",
"105 655 LINE",
"121 662 OFFCURVE",
"140 665 OFFCURVE",
"155 665 CURVE SMOOTH",
"187 665 OFFCURVE",
"202 646 OFFCURVE",
"202 622 CURVE SMOOTH",
"202 592 OFFCURVE",
"179 576 OFFCURVE",
"139 576 CURVE SMOOTH",
"-230 576 LINE",
"-230 464 LINE"
);
}
);
width = 0;
},
{
layerId = "DCCD84DA-95A9-4923-A49E-D7B289AC34C6";
name = Light;
paths = (
{
closed = 1;
nodes = (
"147 522 LINE SMOOTH",
"233 522 OFFCURVE",
"283 568 OFFCURVE",
"283 641 CURVE SMOOTH",
"283 703 OFFCURVE",
"242 756 OFFCURVE",
"165 756 CURVE SMOOTH",
"151 756 OFFCURVE",
"134 754 OFFCURVE",
"120 750 CURVE",
"120 699 LINE",
"133 702 OFFCURVE",
"146 703 OFFCURVE",
"157 703 CURVE SMOOTH",
"201 703 OFFCURVE",
"222 680 OFFCURVE",
"222 641 CURVE SMOOTH",
"222 602 OFFCURVE",
"199 576 OFFCURVE",
"136 576 CURVE SMOOTH",
"-187 576 LINE",
"-187 522 LINE"
);
}
);
width = 313;
}
);
unicode = 0CC6;
},
{
glyphname = knmEE;
lastChange = "2015-07-03 09:42:13 +0000";
layers = (
{
background = {
paths = (
{
closed = 1;
nodes = (
"838 0 LINE",
"838 9 LINE",
"704 93 OFFCURVE",
"622 194 OFFCURVE",
"622 322 CURVE SMOOTH",
"622 338 OFFCURVE",
"623 356 OFFCURVE",
"626 374 CURVE",
"603 366 LINE",
"605 300 OFFCURVE",
"655 262 OFFCURVE",
"726 262 CURVE SMOOTH",
"817 262 OFFCURVE",
"875 331 OFFCURVE",
"875 421 CURVE SMOOTH",
"875 501 OFFCURVE",
"817 586 OFFCURVE",
"708 586 CURVE SMOOTH",
"565 586 OFFCURVE",
"492 450 OFFCURVE",
"492 321 CURVE SMOOTH",
"492 185 OFFCURVE",
"557 70 OFFCURVE",
"672 0 CURVE"
);
},
{
closed = 1;
nodes = (
"321 464 LINE SMOOTH",
"448 464 OFFCURVE",
"522 527 OFFCURVE",
"522 630 CURVE SMOOTH",
"522 709 OFFCURVE",
"468 780 OFFCURVE",
"368 780 CURVE SMOOTH",
"337 780 OFFCURVE",
"309 775 OFFCURVE",
"285 765 CURVE",
"285 655 LINE",
"301 662 OFFCURVE",
"320 665 OFFCURVE",
"335 665 CURVE SMOOTH",
"367 665 OFFCURVE",
"382 646 OFFCURVE",
"382 622 CURVE SMOOTH",
"382 592 OFFCURVE",
"359 576 OFFCURVE",
"319 576 CURVE SMOOTH",
"-50 576 LINE",
"-50 464 LINE"
);
},
{
closed = 1;
nodes = (
"657 360 OFFCURVE",
"636 382 OFFCURVE",
"636 416 CURVE SMOOTH",
"636 447 OFFCURVE",
"656 474 OFFCURVE",
"689 474 CURVE SMOOTH",
"726 474 OFFCURVE",
"745 449 OFFCURVE",
"745 418 CURVE SMOOTH",
"745 387 OFFCURVE",
"727 360 OFFCURVE",
"692 360 CURVE SMOOTH"
);
}
);
};
components = (
{
name = knLengthmark;
transform = "{1, 0, 0, 1, 446, 0}";
}
);
layerId = "9609CB55-EFEB-482C-9A6C-237B4D7F8578";
name = Bold;
paths = (
{
closed = 1;
nodes = (
"321 464 LINE SMOOTH",
"448 464 OFFCURVE",
"522 527 OFFCURVE",
"522 630 CURVE SMOOTH",
"522 709 OFFCURVE",
"468 780 OFFCURVE",
"368 780 CURVE SMOOTH",
"337 780 OFFCURVE",
"309 775 OFFCURVE",
"285 765 CURVE",
"285 655 LINE",
"301 662 OFFCURVE",
"320 665 OFFCURVE",
"335 665 CURVE SMOOTH",
"367 665 OFFCURVE",
"382 646 OFFCURVE",
"382 622 CURVE SMOOTH",
"382 592 OFFCURVE",
"359 576 OFFCURVE",
"319 576 CURVE SMOOTH",
"-50 576 LINE",
"-50 464 LINE"
);
}
);
width = 913;
},
{
background = {
paths = (
{
closed = 1;
nodes = (
"590 0 LINE",
"590 6 LINE",
"466 81 OFFCURVE",
"366 218 OFFCURVE",
"366 348 CURVE SMOOTH",
"366 373 OFFCURVE",
"367 389 OFFCURVE",
"372 414 CURVE",
"349 422 LINE",
"357 326 OFFCURVE",
"401 274 OFFCURVE",
"487 274 CURVE SMOOTH",
"578 274 OFFCURVE",
"642 339 OFFCURVE",
"642 430 CURVE SMOOTH",
"642 511 OFFCURVE",
"584 586 OFFCURVE",
"488 586 CURVE SMOOTH",
"367 586 OFFCURVE",
"312 474 OFFCURVE",
"312 353 CURVE SMOOTH",
"312 204 OFFCURVE",
"411 63 OFFCURVE",
"520 0 CURVE"
);
},
{
closed = 1;
nodes = (
"177 522 LINE SMOOTH",
"263 522 OFFCURVE",
"313 568 OFFCURVE",
"313 641 CURVE SMOOTH",
"313 703 OFFCURVE",
"272 756 OFFCURVE",
"195 756 CURVE SMOOTH",
"181 756 OFFCURVE",
"164 754 OFFCURVE",
"150 750 CURVE",
"150 699 LINE",
"163 702 OFFCURVE",
"176 703 OFFCURVE",
"187 703 CURVE SMOOTH",
"231 703 OFFCURVE",
"252 680 OFFCURVE",
"252 641 CURVE SMOOTH",
"252 602 OFFCURVE",
"229 576 OFFCURVE",
"166 576 CURVE SMOOTH",
"-187 576 LINE",
"-187 522 LINE"
);
},
{
closed = 1;
nodes = (
"421 326 OFFCURVE",
"381 368 OFFCURVE",
"381 430 CURVE SMOOTH",
"381 485 OFFCURVE",
"422 534 OFFCURVE",
"482 534 CURVE SMOOTH",
"541 534 OFFCURVE",
"580 488 OFFCURVE",
"580 432 CURVE SMOOTH",
"580 371 OFFCURVE",
"543 326 OFFCURVE",
"485 326 CURVE SMOOTH"
);
}
);
};
components = (
{
name = knLengthmark;
transform = "{1, 0, 0, 1, 242, 0}";
}
);
layerId = "DCCD84DA-95A9-4923-A49E-D7B289AC34C6";
name = Light;
paths = (
{
closed = 1;
nodes = (
"177 522 LINE SMOOTH",
"263 522 OFFCURVE",
"313 568 OFFCURVE",
"313 641 CURVE SMOOTH",
"313 703 OFFCURVE",
"272 756 OFFCURVE",
"195 756 CURVE SMOOTH",
"181 756 OFFCURVE",
"164 754 OFFCURVE",
"150 750 CURVE",
"150 699 LINE",
"163 702 OFFCURVE",
"176 703 OFFCURVE",
"187 703 CURVE SMOOTH",
"231 703 OFFCURVE",
"252 680 OFFCURVE",
"252 641 CURVE SMOOTH",
"252 602 OFFCURVE",
"229 576 OFFCURVE",
"166 576 CURVE SMOOTH",
"-187 576 LINE",
"-187 522 LINE"
);
}
);
width = 662;
}
);
unicode = 0CC7;
},
{
glyphname = knmO;
lastChange = "2015-07-03 09:42:13 +0000";
layers = (
{
background = {
paths = (
{
closed = 1;
nodes = (
"171 464 LINE SMOOTH",
"298 464 OFFCURVE",
"372 527 OFFCURVE",
"372 630 CURVE SMOOTH",
"372 709 OFFCURVE",
"318 780 OFFCURVE",
"218 780 CURVE SMOOTH",
"187 780 OFFCURVE",
"159 775 OFFCURVE",
"135 765 CURVE",
"135 655 LINE",
"151 662 OFFCURVE",
"170 665 OFFCURVE",
"185 665 CURVE SMOOTH",
"217 665 OFFCURVE",
"232 646 OFFCURVE",
"232 622 CURVE SMOOTH",
"232 592 OFFCURVE",
"209 576 OFFCURVE",
"169 576 CURVE SMOOTH",
"-230 576 LINE",
"-230 464 LINE"
);
},
{
closed = 1;
nodes = (
"38 48 LINE",
"77 11 OFFCURVE",
"128 -12 OFFCURVE",
"188 -12 CURVE SMOOTH",
"448 -12 OFFCURVE",
"425 470 OFFCURVE",
"622 470 CURVE SMOOTH",
"725 470 OFFCURVE",
"759 379 OFFCURVE",
"759 286 CURVE SMOOTH",
"759 257 OFFCURVE",
"758 228 OFFCURVE",
"755 201 CURVE",
"781 209 LINE",
"775 267 OFFCURVE",
"727 313 OFFCURVE",
"653 313 CURVE SMOOTH",
"550 313 OFFCURVE",
"492 226 OFFCURVE",
"492 139 CURVE SMOOTH",
"492 43 OFFCURVE",
"564 -21 OFFCURVE",
"668 -21 CURVE SMOOTH",
"827 -21 OFFCURVE",
"897 122 OFFCURVE",
"897 276 CURVE SMOOTH",
"897 430 OFFCURVE",
"821 586 OFFCURVE",
"620 586 CURVE SMOOTH",
"304 586 OFFCURVE",
"319 104 OFFCURVE",
"176 104 CURVE SMOOTH",
"147 104 OFFCURVE",
"126 120 OFFCURVE",
"104 142 CURVE"
);
},
{
closed = 1;
nodes = (
"640 91 OFFCURVE",
"621 116 OFFCURVE",
"621 147 CURVE SMOOTH",
"621 178 OFFCURVE",
"639 205 OFFCURVE",
"677 205 CURVE SMOOTH",
"709 205 OFFCURVE",
"730 181 OFFCURVE",
"730 148 CURVE SMOOTH",
"730 117 OFFCURVE",
"710 91 OFFCURVE",
"677 91 CURVE SMOOTH"
);
}
);
};
components = (
{
name = knmUU;
transform = "{1, 0, 0, 1, 220, 0}";
}
);
layerId = "9609CB55-EFEB-482C-9A6C-237B4D7F8578";
name = Bold;
paths = (
{
closed = 1;
nodes = (
"171 464 LINE SMOOTH",
"298 464 OFFCURVE",
"372 527 OFFCURVE",
"372 630 CURVE SMOOTH",
"372 709 OFFCURVE",
"318 780 OFFCURVE",
"218 780 CURVE SMOOTH",
"187 780 OFFCURVE",
"159 775 OFFCURVE",
"135 765 CURVE",
"135 655 LINE",
"151 662 OFFCURVE",
"170 665 OFFCURVE",
"185 665 CURVE SMOOTH",
"217 665 OFFCURVE",
"232 646 OFFCURVE",
"232 622 CURVE SMOOTH",
"232 592 OFFCURVE",
"209 576 OFFCURVE",
"169 576 CURVE SMOOTH",
"-230 576 LINE",
"-230 464 LINE"
);
}
);
width = 938;
},
{
background = {
paths = (
{
closed = 1;
nodes = (
"237 522 LINE SMOOTH",
"323 522 OFFCURVE",
"373 568 OFFCURVE",
"373 641 CURVE SMOOTH",
"373 703 OFFCURVE",
"332 756 OFFCURVE",
"255 756 CURVE SMOOTH",
"241 756 OFFCURVE",
"224 754 OFFCURVE",
"210 750 CURVE",
"210 699 LINE",
"223 702 OFFCURVE",
"236 703 OFFCURVE",
"247 703 CURVE SMOOTH",
"291 703 OFFCURVE",
"312 680 OFFCURVE",
"312 641 CURVE SMOOTH",
"312 602 OFFCURVE",
"289 576 OFFCURVE",
"226 576 CURVE SMOOTH",
"-157 576 LINE",
"-157 522 LINE"
);
},
{
closed = 1;
nodes = (
"39 41 LINE",
"76 9 OFFCURVE",
"116 -10 OFFCURVE",
"169 -10 CURVE SMOOTH",
"397 -10 OFFCURVE",
"386 534 OFFCURVE",
"608 534 CURVE SMOOTH",
"726 534 OFFCURVE",
"782 418 OFFCURVE",
"782 277 CURVE SMOOTH",
"782 243 OFFCURVE",
"777 182 OFFCURVE",
"771 150 CURVE",
"790 154 LINE",
"790 250 OFFCURVE",
"738 302 OFFCURVE",
"652 302 CURVE SMOOTH",
"561 302 OFFCURVE",
"497 230 OFFCURVE",
"497 139 CURVE SMOOTH",
"497 58 OFFCURVE",
"553 -10 OFFCURVE",
"642 -10 CURVE SMOOTH",
"784 -10 OFFCURVE",
"835 126 OFFCURVE",
"835 277 CURVE SMOOTH",
"835 436 OFFCURVE",
"772 586 OFFCURVE",
"609 586 CURVE SMOOTH",
"336 586 OFFCURVE",
"342 42 OFFCURVE",
"167 42 CURVE SMOOTH",
"124 42 OFFCURVE",
"93 62 OFFCURVE",
"66 86 CURVE"
);
},
{
closed = 1;
nodes = (
"598 42 OFFCURVE",
"559 88 OFFCURVE",
"559 144 CURVE SMOOTH",
"559 205 OFFCURVE",
"596 250 OFFCURVE",
"654 250 CURVE SMOOTH",
"718 250 OFFCURVE",
"758 208 OFFCURVE",
"758 146 CURVE SMOOTH",
"758 91 OFFCURVE",
"717 42 OFFCURVE",
"657 42 CURVE SMOOTH"
);
}
);
};
components = (
{
name = knmUU;
transform = "{1, 0, 0, 1, 200, 0}";
}
);
layerId = "DCCD84DA-95A9-4923-A49E-D7B289AC34C6";
name = Light;
paths = (
{
closed = 1;
nodes = (
"237 522 LINE SMOOTH",
"323 522 OFFCURVE",
"373 568 OFFCURVE",
"373 641 CURVE SMOOTH",
"373 703 OFFCURVE",
"332 756 OFFCURVE",
"255 756 CURVE SMOOTH",
"241 756 OFFCURVE",
"224 754 OFFCURVE",
"210 750 CURVE",
"210 699 LINE",
"223 702 OFFCURVE",
"236 703 OFFCURVE",
"247 703 CURVE SMOOTH",
"291 703 OFFCURVE",
"312 680 OFFCURVE",
"312 641 CURVE SMOOTH",
"312 602 OFFCURVE",
"289 576 OFFCURVE",
"226 576 CURVE SMOOTH",
"-157 576 LINE",
"-157 522 LINE"
);
}
);
width = 880;
}
);
unicode = 0CCA;
},
{
glyphname = knmOO;
lastChange = "2015-07-03 09:42:13 +0000";
layers = (
{
background = {
paths = (
{
closed = 1;
nodes = (
"781 209 LINE",
"775 267 OFFCURVE",
"727 313 OFFCURVE",
"653 313 CURVE SMOOTH",
"550 313 OFFCURVE",
"492 226 OFFCURVE",
"492 139 CURVE SMOOTH",
"492 43 OFFCURVE",
"564 -21 OFFCURVE",
"668 -21 CURVE SMOOTH",
"827 -21 OFFCURVE",
"897 122 OFFCURVE",
"897 276 CURVE SMOOTH",
"897 430 OFFCURVE",
"821 586 OFFCURVE",
"620 586 CURVE SMOOTH",
"304 586 OFFCURVE",
"319 104 OFFCURVE",
"176 104 CURVE SMOOTH",
"147 104 OFFCURVE",
"126 120 OFFCURVE",
"104 142 CURVE",
"38 48 LINE",
"77 11 OFFCURVE",
"128 -12 OFFCURVE",
"188 -12 CURVE SMOOTH",
"448 -12 OFFCURVE",
"425 470 OFFCURVE",
"622 470 CURVE SMOOTH",
"725 470 OFFCURVE",
"759 379 OFFCURVE",
"759 286 CURVE SMOOTH",
"759 257 OFFCURVE",
"758 228 OFFCURVE",
"755 201 CURVE"
);
},
{
closed = 1;
nodes = (
"171 464 LINE SMOOTH",
"298 464 OFFCURVE",
"372 527 OFFCURVE",
"372 630 CURVE SMOOTH",
"372 709 OFFCURVE",
"318 780 OFFCURVE",
"218 780 CURVE SMOOTH",
"187 780 OFFCURVE",
"159 775 OFFCURVE",
"135 765 CURVE",
"135 655 LINE",
"151 662 OFFCURVE",
"170 665 OFFCURVE",
"185 665 CURVE SMOOTH",
"217 665 OFFCURVE",
"232 646 OFFCURVE",
"232 622 CURVE SMOOTH",
"232 592 OFFCURVE",
"209 576 OFFCURVE",
"169 576 CURVE SMOOTH",
"-230 576 LINE",
"-230 464 LINE"
);
},
{
closed = 1;
nodes = (
"640 91 OFFCURVE",
"621 116 OFFCURVE",
"621 147 CURVE SMOOTH",
"621 178 OFFCURVE",
"639 205 OFFCURVE",
"677 205 CURVE SMOOTH",
"709 205 OFFCURVE",
"730 181 OFFCURVE",
"730 148 CURVE SMOOTH",
"730 117 OFFCURVE",
"710 91 OFFCURVE",
"677 91 CURVE SMOOTH"
);
},
{
closed = 1;
nodes = (
"1300 0 LINE",
"1300 9 LINE",
"1166 93 OFFCURVE",
"1084 194 OFFCURVE",
"1084 322 CURVE SMOOTH",
"1084 338 OFFCURVE",
"1085 356 OFFCURVE",
"1088 374 CURVE",
"1065 366 LINE",
"1067 300 OFFCURVE",
"1117 262 OFFCURVE",
"1188 262 CURVE SMOOTH",
"1279 262 OFFCURVE",
"1337 331 OFFCURVE",
"1337 421 CURVE SMOOTH",
"1337 501 OFFCURVE",
"1279 586 OFFCURVE",
"1170 586 CURVE SMOOTH",
"1027 586 OFFCURVE",
"954 450 OFFCURVE",
"954 321 CURVE SMOOTH",
"954 188 OFFCURVE",
"1022 67 OFFCURVE",
"1134 0 CURVE"
);
},
{
closed = 1;
nodes = (
"1119 360 OFFCURVE",
"1098 382 OFFCURVE",
"1098 416 CURVE SMOOTH",
"1098 447 OFFCURVE",
"1118 474 OFFCURVE",
"1151 474 CURVE SMOOTH",
"1188 474 OFFCURVE",
"1207 449 OFFCURVE",
"1207 418 CURVE SMOOTH",
"1207 387 OFFCURVE",
"1189 360 OFFCURVE",
"1154 360 CURVE SMOOTH"
);
}
);
};
components = (
{
name = knmUU;
transform = "{1, 0, 0, 1, 219, 0}";
},
{
name = knLengthmark;
transform = "{1, 0, 0, 1, 909, 0}";
}
);
layerId = "9609CB55-EFEB-482C-9A6C-237B4D7F8578";
name = Bold;
paths = (
{
closed = 1;
nodes = (
"171 464 LINE SMOOTH",
"298 464 OFFCURVE",
"372 527 OFFCURVE",
"372 630 CURVE SMOOTH",
"372 709 OFFCURVE",
"318 780 OFFCURVE",
"218 780 CURVE SMOOTH",
"187 780 OFFCURVE",
"159 775 OFFCURVE",
"135 765 CURVE",
"135 655 LINE",
"151 662 OFFCURVE",
"170 665 OFFCURVE",
"185 665 CURVE SMOOTH",
"217 665 OFFCURVE",
"232 646 OFFCURVE",
"232 622 CURVE SMOOTH",
"232 592 OFFCURVE",
"209 576 OFFCURVE",
"169 576 CURVE SMOOTH",
"-230 576 LINE",
"-230 464 LINE"
);
}
);
width = 1367;
},
{
background = {
paths = (
{
closed = 1;
nodes = (
"790 154 LINE",
"790 250 OFFCURVE",
"738 302 OFFCURVE",
"652 302 CURVE SMOOTH",
"561 302 OFFCURVE",
"497 230 OFFCURVE",
"497 139 CURVE SMOOTH",
"497 58 OFFCURVE",
"553 -10 OFFCURVE",
"642 -10 CURVE SMOOTH",
"784 -10 OFFCURVE",
"835 126 OFFCURVE",
"835 277 CURVE SMOOTH",
"835 436 OFFCURVE",
"772 586 OFFCURVE",
"609 586 CURVE SMOOTH",
"336 586 OFFCURVE",
"342 42 OFFCURVE",
"167 42 CURVE SMOOTH",
"124 42 OFFCURVE",
"93 62 OFFCURVE",
"66 86 CURVE",
"39 41 LINE",
"76 9 OFFCURVE",
"116 -10 OFFCURVE",
"169 -10 CURVE SMOOTH",
"397 -10 OFFCURVE",
"386 534 OFFCURVE",
"608 534 CURVE SMOOTH",
"726 534 OFFCURVE",
"782 418 OFFCURVE",
"782 277 CURVE SMOOTH",
"782 243 OFFCURVE",
"777 182 OFFCURVE",
"771 150 CURVE"
);
},
{
closed = 1;
nodes = (
"237 522 LINE SMOOTH",
"323 522 OFFCURVE",
"373 568 OFFCURVE",
"373 641 CURVE SMOOTH",
"373 703 OFFCURVE",
"332 756 OFFCURVE",
"255 756 CURVE SMOOTH",
"241 756 OFFCURVE",
"224 754 OFFCURVE",
"210 750 CURVE",
"210 699 LINE",
"223 702 OFFCURVE",
"236 703 OFFCURVE",
"247 703 CURVE SMOOTH",
"291 703 OFFCURVE",
"312 680 OFFCURVE",
"312 641 CURVE SMOOTH",
"312 602 OFFCURVE",
"289 576 OFFCURVE",
"226 576 CURVE SMOOTH",
"-157 576 LINE",
"-157 522 LINE"
);
},
{
closed = 1;
nodes = (
"598 42 OFFCURVE",
"559 88 OFFCURVE",
"559 144 CURVE SMOOTH",
"559 205 OFFCURVE",
"596 250 OFFCURVE",
"654 250 CURVE SMOOTH",
"718 250 OFFCURVE",
"758 208 OFFCURVE",
"758 146 CURVE SMOOTH",
"758 91 OFFCURVE",
"717 42 OFFCURVE",
"657 42 CURVE SMOOTH"
);
},
{
closed = 1;
nodes = (
"1200 0 LINE",
"1200 6 LINE",
"1076 81 OFFCURVE",
"976 218 OFFCURVE",
"976 348 CURVE SMOOTH",
"976 373 OFFCURVE",
"977 389 OFFCURVE",
"982 414 CURVE",
"959 422 LINE",
"967 326 OFFCURVE",
"1011 274 OFFCURVE",
"1097 274 CURVE SMOOTH",
"1188 274 OFFCURVE",
"1252 339 OFFCURVE",
"1252 430 CURVE SMOOTH",
"1252 511 OFFCURVE",
"1194 586 OFFCURVE",
"1098 586 CURVE SMOOTH",
"977 586 OFFCURVE",
"922 474 OFFCURVE",
"922 353 CURVE SMOOTH",
"922 204 OFFCURVE",
"1021 63 OFFCURVE",
"1130 0 CURVE"
);
},
{
closed = 1;
nodes = (
"1031 326 OFFCURVE",
"991 368 OFFCURVE",
"991 430 CURVE SMOOTH",
"991 485 OFFCURVE",
"1032 534 OFFCURVE",
"1092 534 CURVE SMOOTH",
"1151 534 OFFCURVE",
"1190 488 OFFCURVE",
"1190 432 CURVE SMOOTH",
"1190 371 OFFCURVE",
"1153 326 OFFCURVE",
"1095 326 CURVE SMOOTH"
);
}
);
};
components = (
{
name = knmUU;
transform = "{1, 0, 0, 1, 200, 0}";
},
{
name = knLengthmark;
transform = "{1, 0, 0, 1, 850, 0}";
}
);
layerId = "DCCD84DA-95A9-4923-A49E-D7B289AC34C6";
name = Light;
paths = (
{
closed = 1;
nodes = (
"237 522 LINE SMOOTH",
"323 522 OFFCURVE",
"373 568 OFFCURVE",
"373 641 CURVE SMOOTH",
"373 703 OFFCURVE",
"332 756 OFFCURVE",
"255 756 CURVE SMOOTH",
"241 756 OFFCURVE",
"224 754 OFFCURVE",
"210 750 CURVE",
"210 699 LINE",
"223 702 OFFCURVE",
"236 703 OFFCURVE",
"247 703 CURVE SMOOTH",
"291 703 OFFCURVE",
"312 680 OFFCURVE",
"312 641 CURVE SMOOTH",
"312 602 OFFCURVE",
"289 576 OFFCURVE",
"226 576 CURVE SMOOTH",
"-157 576 LINE",
"-157 522 LINE"
);
}
);
width = 1272;
}
);
unicode = 0CCB;
},
{
glyphname = knmAU;
lastChange = "2015-07-03 09:42:13 +0000";
layers = (
{
background = {
paths = (
{
closed = 1;
nodes = (
"240 776 LINE",
"240 652 LINE",
"355 652 LINE",
"355 636 LINE SMOOTH",
"355 606 OFFCURVE",
"351 576 OFFCURVE",
"273 576 CURVE SMOOTH",
"110 576 LINE",
"110 452 LINE",
"287 452 LINE SMOOTH",
"432 452 OFFCURVE",
"494 524 OFFCURVE",
"494 629 CURVE SMOOTH",
"494 652 LINE",
"661 652 LINE SMOOTH",
"762 652 OFFCURVE",
"833 611 OFFCURVE",
"833 505 CURVE SMOOTH",
"833 395 OFFCURVE",
"790 356 OFFCURVE",
"739 356 CURVE SMOOTH",
"698 356 OFFCURVE",
"677 377 OFFCURVE",
"677 405 CURVE SMOOTH",
"677 432 OFFCURVE",
"696 452 OFFCURVE",
"727 452 CURVE SMOOTH",
"743 452 OFFCURVE",
"763 447 OFFCURVE",
"772 441 CURVE",
"772 564 LINE",
"757 570 OFFCURVE",
"736 575 OFFCURVE",
"702 575 CURVE SMOOTH",
"601 575 OFFCURVE",
"533 506 OFFCURVE",
"533 409 CURVE SMOOTH",
"533 310 OFFCURVE",
"604 230 OFFCURVE",
"739 230 CURVE SMOOTH",
"883 230 OFFCURVE",
"979 336 OFFCURVE",
"979 501 CURVE SMOOTH",
"979 684 OFFCURVE",
"860 776 OFFCURVE",
"661 776 CURVE SMOOTH"
);
}
);
};
layerId = "9609CB55-EFEB-482C-9A6C-237B4D7F8578";
name = Bold;
paths = (
{
closed = 1;
nodes = (
"334 464 LINE SMOOTH",
"455 464 OFFCURVE",
"503 531 OFFCURVE",
"503 630 CURVE SMOOTH",
"503 674 LINE",
"371 675 LINE",
"371 638 LINE SMOOTH",
"371 597 OFFCURVE",
"351 576 OFFCURVE",
"300 576 CURVE SMOOTH",
"110 576 LINE",
"110 464 LINE"
);
},
{
closed = 1;
nodes = (
"823 280 OFFCURVE",
"903 374 OFFCURVE",
"903 507 CURVE SMOOTH",
"903 657 OFFCURVE",
"807 773 OFFCURVE",
"625 773 CURVE SMOOTH",
"240 773 LINE",
"240 661 LINE",
"608 661 LINE SMOOTH",
"725 661 OFFCURVE",
"777 597 OFFCURVE",
"777 501 CURVE SMOOTH",
"777 436 OFFCURVE",
"751 386 OFFCURVE",
"703 386 CURVE SMOOTH",
"677 386 OFFCURVE",
"662 401 OFFCURVE",
"662 423 CURVE SMOOTH",
"662 448 OFFCURVE",
"680 463 OFFCURVE",
"704 463 CURVE SMOOTH",
"710 463 OFFCURVE",
"718 463 OFFCURVE",
"724 461 CURVE",
"724 555 LINE",
"710 558 OFFCURVE",
"694 559 OFFCURVE",
"681 559 CURVE SMOOTH",
"600 559 OFFCURVE",
"544 497 OFFCURVE",
"544 422 CURVE SMOOTH",
"544 336 OFFCURVE",
"605 280 OFFCURVE",
"702 280 CURVE SMOOTH"
);
}
);
width = 923;
},
{
layerId = "DCCD84DA-95A9-4923-A49E-D7B289AC34C6";
name = Light;
paths = (
{
closed = 1;
nodes = (
"377 522 LINE SMOOTH",
"455 522 OFFCURVE",
"502 559 OFFCURVE",
"502 651 CURVE",
"502 713 LINE",
"441 713 LINE",
"441 658 LINE",
"441 604 OFFCURVE",
"425 576 OFFCURVE",
"352 576 CURVE",
"145 576 LINE",
"145 522 LINE"
);
},
{
closed = 1;
nodes = (
"755 323 OFFCURVE",
"825 397 OFFCURVE",
"825 518 CURVE SMOOTH",
"825 656 OFFCURVE",
"727 756 OFFCURVE",
"599 756 CURVE SMOOTH",
"247 756 LINE",
"247 702 LINE",
"582 702 LINE SMOOTH",
"702 702 OFFCURVE",
"764 628 OFFCURVE",
"764 517 CURVE SMOOTH",
"764 425 OFFCURVE",
"726 375 OFFCURVE",
"670 375 CURVE SMOOTH",
"627 375 OFFCURVE",
"599 397 OFFCURVE",
"599 437 CURVE SMOOTH",
"599 477 OFFCURVE",
"624 506 OFFCURVE",
"667 506 CURVE SMOOTH",
"677 506 OFFCURVE",
"687 505 OFFCURVE",
"697 502 CURVE",
"697 553 LINE",
"684 556 OFFCURVE",
"670 558 OFFCURVE",
"658 558 CURVE SMOOTH",
"590 558 OFFCURVE",
"538 512 OFFCURVE",
"538 442 CURVE SMOOTH",
"538 371 OFFCURVE",
"590 323 OFFCURVE",
"666 323 CURVE SMOOTH"
);
}
);
width = 845;
}
);
unicode = 0CCC;
},
{
glyphname = knLengthmark;
lastChange = "2015-07-03 09:42:13 +0000";
layers = (
{
background = {
paths = (
{
closed = 1;
nodes = (
"468 501 OFFCURVE",
"398 586 OFFCURVE",
"269 586 CURVE SMOOTH",
"137 586 OFFCURVE",
"36 470 OFFCURVE",
"36 311 CURVE SMOOTH",
"36 146 OFFCURVE",
"162 28 OFFCURVE",
"218 0 CURVE",
"412 0 LINE",
"412 14 LINE",
"306 66 OFFCURVE",
"198 152 OFFCURVE",
"175 272 CURVE",
"210 241 OFFCURVE",
"256 231 OFFCURVE",
"293 231 CURVE SMOOTH",
"398 231 OFFCURVE",
"468 299 OFFCURVE",
"468 406 CURVE SMOOTH"
);
},
{
closed = 1;
nodes = (
"192 424 OFFCURVE",
"227 458 OFFCURVE",
"272 458 CURVE SMOOTH",
"314 458 OFFCURVE",
"335 432 OFFCURVE",
"335 402 CURVE SMOOTH",
"335 360 OFFCURVE",
"304 342 OFFCURVE",
"267 342 CURVE SMOOTH",
"236 342 OFFCURVE",
"206 351 OFFCURVE",
"178 373 CURVE"
);
}
);
};
layerId = "9609CB55-EFEB-482C-9A6C-237B4D7F8578";
name = Bold;
paths = (
{
closed = 1;
nodes = (
"386 0 LINE",
"386 9 LINE",
"253 99 OFFCURVE",
"170 204 OFFCURVE",
"170 322 CURVE SMOOTH",
"170 338 OFFCURVE",
"171 356 OFFCURVE",
"174 374 CURVE",
"144 368 LINE",
"144 298 OFFCURVE",
"203 262 OFFCURVE",
"268 262 CURVE SMOOTH",
"364 262 OFFCURVE",
"423 332 OFFCURVE",
"423 421 CURVE SMOOTH",
"423 511 OFFCURVE",
"358 586 OFFCURVE",
"246 586 CURVE SMOOTH",
"112 586 OFFCURVE",
"40 466 OFFCURVE",
"40 332 CURVE SMOOTH",
"40 189 OFFCURVE",
"110 69 OFFCURVE",
"220 0 CURVE"
);
},
{
closed = 1;
nodes = (
"205 360 OFFCURVE",
"184 382 OFFCURVE",
"184 416 CURVE SMOOTH",
"184 447 OFFCURVE",
"204 474 OFFCURVE",
"237 474 CURVE SMOOTH",
"274 474 OFFCURVE",
"293 449 OFFCURVE",
"293 418 CURVE SMOOTH",
"293 387 OFFCURVE",
"275 360 OFFCURVE",
"240 360 CURVE SMOOTH"
);
}
);
width = 433;
},
{
background = {
paths = (
{
closed = 1;
nodes = (
"343 0 LINE",
"343 6 LINE",
"212 88 OFFCURVE",
"124 223 OFFCURVE",
"124 348 CURVE SMOOTH",
"124 373 OFFCURVE",
"125 389 OFFCURVE",
"130 414 CURVE",
"107 422 LINE",
"106 323 OFFCURVE",
"161 274 OFFCURVE",
"245 274 CURVE SMOOTH",
"336 274 OFFCURVE",
"400 339 OFFCURVE",
"400 430 CURVE SMOOTH",
"400 511 OFFCURVE",
"342 586 OFFCURVE",
"246 586 CURVE SMOOTH",
"125 586 OFFCURVE",
"70 484 OFFCURVE",
"70 353 CURVE SMOOTH",
"70 209 OFFCURVE",
"161 69 OFFCURVE",
"268 0 CURVE"
);
},
{
closed = 1;
nodes = (
"179 326 OFFCURVE",
"139 368 OFFCURVE",
"139 430 CURVE SMOOTH",
"139 485 OFFCURVE",
"180 534 OFFCURVE",
"240 534 CURVE SMOOTH",
"299 534 OFFCURVE",
"338 488 OFFCURVE",
"338 432 CURVE SMOOTH",
"338 371 OFFCURVE",
"301 326 OFFCURVE",
"243 326 CURVE SMOOTH"
);
}
);
};
layerId = "DCCD84DA-95A9-4923-A49E-D7B289AC34C6";
name = Light;
paths = (
{
closed = 1;
nodes = (
"343 0 LINE",
"343 6 LINE",
"197 103 OFFCURVE",
"123 229 OFFCURVE",
"123 363 CURVE SMOOTH",
"123 391 OFFCURVE",
"127 415 OFFCURVE",
"131 440 CURVE",
"111 442 LINE",
"111 355 OFFCURVE",
"166 294 OFFCURVE",
"249 294 CURVE SMOOTH",
"333 294 OFFCURVE",
"394 362 OFFCURVE",
"394 442 CURVE SMOOTH",
"394 521 OFFCURVE",
"334 586 OFFCURVE",
"249 586 CURVE SMOOTH",
"113 586 OFFCURVE",
"70 460 OFFCURVE",
"70 363 CURVE SMOOTH",
"70 209 OFFCURVE",
"151 80 OFFCURVE",
"268 0 CURVE"
);
},
{
closed = 1;
nodes = (
"188 346 OFFCURVE",
"153 388 OFFCURVE",
"153 437 CURVE SMOOTH",
"153 490 OFFCURVE",
"193 534 OFFCURVE",
"244 534 CURVE SMOOTH",
"298 534 OFFCURVE",
"332 493 OFFCURVE",
"332 441 CURVE SMOOTH",
"332 391 OFFCURVE",
"300 346 OFFCURVE",
"247 346 CURVE SMOOTH"
);
}
);
width = 419;
}
);
unicode = 0CD5;
},
{
glyphname = knKA;
lastChange = "2015-07-03 09:42:13 +0000";
layers = (
{
layerId = "9609CB55-EFEB-482C-9A6C-237B4D7F8578";
name = Bold;
paths = (
{
closed = 1;
nodes = (
"489 -10 OFFCURVE",
"589 76 OFFCURVE",
"589 177 CURVE SMOOTH",
"589 286 OFFCURVE",
"461 336 OFFCURVE",
"317 336 CURVE SMOOTH",
"162 336 OFFCURVE",
"45 277 OFFCURVE",
"45 169 CURVE SMOOTH",
"45 47 OFFCURVE",
"151 -10 OFFCURVE",
"317 -10 CURVE SMOOTH"
);
},
{
closed = 1;
nodes = (
"233 105 OFFCURVE",
"187 134 OFFCURVE",
"187 196 CURVE SMOOTH",
"187 257 OFFCURVE",
"235 294 OFFCURVE",
"317 294 CURVE SMOOTH",
"402 294 OFFCURVE",
"447 256 OFFCURVE",
"447 199 CURVE SMOOTH",
"447 143 OFFCURVE",
"399 105 OFFCURVE",
"317 105 CURVE SMOOTH"
);
},
{
closed = 1;
nodes = (
"191 274 LINE",
"314 312 LINE",
"453 274 LINE",
"604 274 LINE",
"604 386 LINE",
"30 386 LINE",
"30 274 LINE"
);
},
{
closed = 1;
nodes = (
"386 359 LINE",
"386 477 LINE",
"244 477 LINE",
"244 359 LINE"
);
},
{
closed = 1;
nodes = (
"445 464 LINE SMOOTH",
"548 464 OFFCURVE",
"609 503 OFFCURVE",
"609 585 CURVE SMOOTH",
"609 606 OFFCURVE",
"604 627 OFFCURVE",
"595 649 CURVE",
"473 649 LINE",
"477 639 OFFCURVE",
"479 629 OFFCURVE",
"479 619 CURVE SMOOTH",
"479 589 OFFCURVE",
"456 576 OFFCURVE",
"416 576 CURVE SMOOTH",
"30 576 LINE",
"30 464 LINE"
);
}
);
width = 639;
},
{
layerId = "DCCD84DA-95A9-4923-A49E-D7B289AC34C6";
name = Light;
paths = (
{
closed = 1;
nodes = (
"420 -10 OFFCURVE",
"514 70 OFFCURVE",
"514 187 CURVE SMOOTH",
"514 304 OFFCURVE",
"420 374 OFFCURVE",
"283 374 CURVE SMOOTH",
"146 374 OFFCURVE",
"52 301 OFFCURVE",
"52 179 CURVE SMOOTH",
"52 67 OFFCURVE",
"146 -10 OFFCURVE",
"283 -10 CURVE SMOOTH"
);
},
{
closed = 1;
nodes = (
"181 42 OFFCURVE",
"112 100 OFFCURVE",
"112 186 CURVE SMOOTH",
"112 267 OFFCURVE",
"181 332 OFFCURVE",
"283 332 CURVE SMOOTH",
"385 332 OFFCURVE",
"454 268 OFFCURVE",
"454 189 CURVE SMOOTH",
"454 102 OFFCURVE",
"385 42 OFFCURVE",
"283 42 CURVE SMOOTH"
);
},
{
closed = 1;
nodes = (
"222 332 LINE",
"280 350 LINE",
"346 332 LINE",
"530 332 LINE",
"530 386 LINE",
"40 386 LINE",
"40 332 LINE"
);
},
{
closed = 1;
nodes = (
"311 369 LINE",
"311 547 LINE",
"251 547 LINE",
"251 369 LINE"
);
},
{
closed = 1;
nodes = (
"420 522 LINE SMOOTH",
"496 522 OFFCURVE",
"530 555 OFFCURVE",
"530 611 CURVE SMOOTH",
"530 623 OFFCURVE",
"528 636 OFFCURVE",
"524 649 CURVE",
"466 649 LINE",
"468 639 OFFCURVE",
"469 631 OFFCURVE",
"469 623 CURVE SMOOTH",
"469 591 OFFCURVE",
"447 576 OFFCURVE",
"404 576 CURVE SMOOTH",
"40 576 LINE",
"40 522 LINE"
);
}
);
width = 570;
}
);
leftMetricsKey = kn_a;
rightMetricsKey = kn_a;
unicode = 0C95;
},
{
glyphname = knKHA;
lastChange = "2015-07-03 09:42:13 +0000";
layers = (
{
background = {
paths = (
{
closed = 1;
nodes = (
"466 -10 OFFCURVE",
"597 162 OFFCURVE",
"597 331 CURVE SMOOTH",
"597 478 OFFCURVE",
"503 586 OFFCURVE",
"373 586 CURVE SMOOTH",
"263 586 OFFCURVE",
"200 520 OFFCURVE",
"200 442 CURVE SMOOTH",
"200 360 OFFCURVE",
"268 316 OFFCURVE",
"340 316 CURVE SMOOTH",
"371 316 OFFCURVE",
"399 321 OFFCURVE",
"423 335 CURVE",
"423 431 LINE",
"406 419 OFFCURVE",
"389 413 OFFCURVE",
"368 413 CURVE SMOOTH",
"342 413 OFFCURVE",
"324 421 OFFCURVE",
"324 441 CURVE SMOOTH",
"324 462 OFFCURVE",
"340 474 OFFCURVE",
"373 474 CURVE SMOOTH",
"435 474 OFFCURVE",
"467 413 OFFCURVE",
"467 339 CURVE SMOOTH",
"467 207 OFFCURVE",
"393 102 OFFCURVE",
"242 102 CURVE SMOOTH",
"193 102 OFFCURVE",
"152 115 OFFCURVE",
"152 151 CURVE SMOOTH",
"152 174 OFFCURVE",
"170 192 OFFCURVE",
"202 192 CURVE SMOOTH",
"325 192 OFFCURVE",
"437 -9 OFFCURVE",
"626 -9 CURVE SMOOTH",
"782 -9 OFFCURVE",
"901 114 OFFCURVE",
"901 300 CURVE SMOOTH",
"901 448 OFFCURVE",
"819 575 OFFCURVE",
"632 575 CURVE",
"632 460 LINE",
"726 452 OFFCURVE",
"759 377 OFFCURVE",
"759 299 CURVE SMOOTH",
"759 212 OFFCURVE",
"720 117 OFFCURVE",
"618 117 CURVE SMOOTH",
"464 117 OFFCURVE",
"376 308 OFFCURVE",
"185 308 CURVE SMOOTH",
"86 308 OFFCURVE",
"20 245 OFFCURVE",
"20 153 CURVE SMOOTH",
"20 58 OFFCURVE",
"101 -10 OFFCURVE",
"240 -10 CURVE SMOOTH"
);
}
);
};
layerId = "9609CB55-EFEB-482C-9A6C-237B4D7F8578";
name = Bold;
paths = (
{
closed = 1;
nodes = (
"466 -10 OFFCURVE",
"597 162 OFFCURVE",
"597 331 CURVE SMOOTH",
"597 478 OFFCURVE",
"503 586 OFFCURVE",
"373 586 CURVE SMOOTH",
"263 586 OFFCURVE",
"200 520 OFFCURVE",
"200 442 CURVE SMOOTH",
"200 360 OFFCURVE",
"268 316 OFFCURVE",
"340 316 CURVE SMOOTH",
"371 316 OFFCURVE",
"399 321 OFFCURVE",
"423 335 CURVE",
"423 431 LINE",
"406 419 OFFCURVE",
"389 413 OFFCURVE",
"368 413 CURVE SMOOTH",
"342 413 OFFCURVE",
"324 421 OFFCURVE",
"324 441 CURVE SMOOTH",
"324 462 OFFCURVE",
"340 474 OFFCURVE",
"373 474 CURVE SMOOTH",
"435 474 OFFCURVE",
"467 413 OFFCURVE",
"467 339 CURVE SMOOTH",
"467 207 OFFCURVE",
"393 102 OFFCURVE",
"242 102 CURVE SMOOTH",
"193 102 OFFCURVE",
"152 115 OFFCURVE",
"152 151 CURVE SMOOTH",
"152 174 OFFCURVE",
"170 192 OFFCURVE",
"202 192 CURVE SMOOTH",
"325 192 OFFCURVE",
"437 -9 OFFCURVE",
"626 -9 CURVE SMOOTH",
"792 -9 OFFCURVE",
"901 104 OFFCURVE",
"901 287 CURVE SMOOTH",
"901 448 OFFCURVE",
"819 575 OFFCURVE",
"632 575 CURVE",
"632 460 LINE",
"726 452 OFFCURVE",
"759 377 OFFCURVE",
"759 289 CURVE SMOOTH",
"759 194 OFFCURVE",
"720 117 OFFCURVE",
"618 117 CURVE SMOOTH",
"464 117 OFFCURVE",
"376 308 OFFCURVE",
"185 308 CURVE SMOOTH",
"86 308 OFFCURVE",
"20 245 OFFCURVE",
"20 153 CURVE SMOOTH",
"20 58 OFFCURVE",
"101 -10 OFFCURVE",
"240 -10 CURVE SMOOTH"
);
}
);
width = 941;
},
{
background = {
paths = (
{
closed = 1;
nodes = (
"405 -10 OFFCURVE",
"538 156 OFFCURVE",
"538 349 CURVE SMOOTH",
"538 476 OFFCURVE",
"464 586 OFFCURVE",
"354 586 CURVE SMOOTH",
"274 586 OFFCURVE",
"216 536 OFFCURVE",
"216 464 CURVE SMOOTH",
"216 397 OFFCURVE",
"269 350 OFFCURVE",
"339 350 CURVE SMOOTH",
"368 350 OFFCURVE",
"397 356 OFFCURVE",
"422 367 CURVE",
"422 418 LINE",
"400 409 OFFCURVE",
"378 403 OFFCURVE",
"353 403 CURVE SMOOTH",
"305 403 OFFCURVE",
"278 427 OFFCURVE",
"278 467 CURVE SMOOTH",
"278 505 OFFCURVE",
"305 534 OFFCURVE",
"351 534 CURVE SMOOTH",
"427 534 OFFCURVE",
"476 451 OFFCURVE",
"476 350 CURVE SMOOTH",
"476 187 OFFCURVE",
"369 42 OFFCURVE",
"217 42 CURVE SMOOTH",
"142 42 OFFCURVE",
"92 71 OFFCURVE",
"92 121 CURVE SMOOTH",
"92 161 OFFCURVE",
"122 192 OFFCURVE",
"177 192 CURVE SMOOTH",
"307 192 OFFCURVE",
"417 -9 OFFCURVE",
"601 -9 CURVE SMOOTH",
"742 -9 OFFCURVE",
"833 104 OFFCURVE",
"833 273 CURVE SMOOTH",
"833 434 OFFCURVE",
"741 565 OFFCURVE",
"597 576 CURVE",
"597 521 LINE",
"711 504 OFFCURVE",
"771 400 OFFCURVE",
"771 269 CURVE SMOOTH",
"771 134 OFFCURVE",
"706 43 OFFCURVE",
"600 43 CURVE SMOOTH",
"450 43 OFFCURVE",
"337 244 OFFCURVE",
"167 244 CURVE SMOOTH",
"89 244 OFFCURVE",
"30 191 OFFCURVE",
"30 123 CURVE SMOOTH",
"30 39 OFFCURVE",
"103 -10 OFFCURVE",
"215 -10 CURVE SMOOTH"
);
}
);
};
layerId = "DCCD84DA-95A9-4923-A49E-D7B289AC34C6";
name = Light;
paths = (
{
closed = 1;
nodes = (
"405 -10 OFFCURVE",
"538 156 OFFCURVE",
"538 349 CURVE SMOOTH",
"538 490 OFFCURVE",
"455 586 OFFCURVE",
"341 586 CURVE SMOOTH",
"255 586 OFFCURVE",
"196 535 OFFCURVE",
"196 464 CURVE SMOOTH",
"196 397 OFFCURVE",
"249 350 OFFCURVE",
"319 350 CURVE SMOOTH",
"357 350 OFFCURVE",
"381 355 OFFCURVE",
"412 369 CURVE",
"412 420 LINE",
"384 409 OFFCURVE",
"358 403 OFFCURVE",
"333 403 CURVE SMOOTH",
"285 403 OFFCURVE",
"258 427 OFFCURVE",
"258 467 CURVE SMOOTH",
"258 505 OFFCURVE",
"286 534 OFFCURVE",
"340 534 CURVE SMOOTH",
"417 534 OFFCURVE",
"476 459 OFFCURVE",
"476 350 CURVE SMOOTH",
"476 187 OFFCURVE",
"369 42 OFFCURVE",
"217 42 CURVE SMOOTH",
"142 42 OFFCURVE",
"92 71 OFFCURVE",
"92 121 CURVE SMOOTH",
"92 161 OFFCURVE",
"122 192 OFFCURVE",
"177 192 CURVE SMOOTH",
"304 192 OFFCURVE",
"397 -9 OFFCURVE",
"586 -9 CURVE SMOOTH",
"737 -9 OFFCURVE",
"833 107 OFFCURVE",
"833 292 CURVE SMOOTH",
"833 460 OFFCURVE",
"741 573 OFFCURVE",
"597 576 CURVE",
"597 521 LINE",
"711 512 OFFCURVE",
"771 426 OFFCURVE",
"771 288 CURVE SMOOTH",
"771 138 OFFCURVE",
"697 43 OFFCURVE",
"585 43 CURVE SMOOTH",
"430 43 OFFCURVE",
"334 244 OFFCURVE",
"167 244 CURVE SMOOTH",
"89 244 OFFCURVE",
"30 191 OFFCURVE",
"30 123 CURVE SMOOTH",
"30 39 OFFCURVE",
"103 -10 OFFCURVE",
"215 -10 CURVE SMOOTH"
);
}
);
width = 883;
}
);
leftMetricsKey = kn_i;
rightMetricsKey = kn_u;
unicode = 0C96;
},
{
glyphname = knGA;
lastChange = "2015-07-03 09:42:13 +0000";
layers = (
{
layerId = "9609CB55-EFEB-482C-9A6C-237B4D7F8578";
name = Bold;
paths = (
{
closed = 1;
nodes = (
"207 0 LINE",
"189 58 OFFCURVE",
"178 121 OFFCURVE",
"178 206 CURVE SMOOTH",
"178 322 OFFCURVE",
"199 464 OFFCURVE",
"292 464 CURVE",
"384 464 OFFCURVE",
"406 322 OFFCURVE",
"406 206 CURVE SMOOTH",
"406 121 OFFCURVE",
"395 58 OFFCURVE",
"377 0 CURVE",
"526 0 LINE",
"540 51 OFFCURVE",
"549 115 OFFCURVE",
"549 181 CURVE SMOOTH",
"549 353 OFFCURVE",
"496 540 OFFCURVE",
"292 540 CURVE",
"88 540 OFFCURVE",
"35 353 OFFCURVE",
"35 181 CURVE SMOOTH",
"35 115 OFFCURVE",
"44 51 OFFCURVE",
"58 0 CURVE"
);
},
{
closed = 1;
nodes = (
"405 464 LINE SMOOTH",
"508 464 OFFCURVE",
"569 503 OFFCURVE",
"569 585 CURVE SMOOTH",
"569 606 OFFCURVE",
"564 627 OFFCURVE",
"555 649 CURVE",
"433 649 LINE",
"437 639 OFFCURVE",
"439 629 OFFCURVE",
"439 619 CURVE SMOOTH",
"439 589 OFFCURVE",
"416 576 OFFCURVE",
"376 576 CURVE SMOOTH",
"30 576 LINE",
"30 464 LINE"
);
}
);
width = 599;
},
{
layerId = "DCCD84DA-95A9-4923-A49E-D7B289AC34C6";
name = Light;
paths = (
{
closed = 1;
nodes = (
"145 1 LINE",
"123 71 OFFCURVE",
"112 158 OFFCURVE",
"112 236 CURVE SMOOTH",
"112 390 OFFCURVE",
"162 522 OFFCURVE",
"272 522 CURVE SMOOTH",
"382 522 OFFCURVE",
"431 390 OFFCURVE",
"431 236 CURVE SMOOTH",
"431 158 OFFCURVE",
"419 70 OFFCURVE",
"397 0 CURVE",
"461 0 LINE",
"482 72 OFFCURVE",
"493 160 OFFCURVE",
"493 237 CURVE SMOOTH",
"493 422 OFFCURVE",
"421 571 OFFCURVE",
"272 571 CURVE SMOOTH",
"123 571 OFFCURVE",
"50 422 OFFCURVE",
"50 237 CURVE SMOOTH",
"50 160 OFFCURVE",
"60 73 OFFCURVE",
"81 1 CURVE"
);
},
{
closed = 1;
nodes = (
"418 522 LINE SMOOTH",
"494 522 OFFCURVE",
"528 555 OFFCURVE",
"528 611 CURVE SMOOTH",
"528 623 OFFCURVE",
"526 636 OFFCURVE",
"522 649 CURVE",
"464 649 LINE",
"466 639 OFFCURVE",
"467 631 OFFCURVE",
"467 623 CURVE SMOOTH",
"467 591 OFFCURVE",
"445 576 OFFCURVE",
"402 576 CURVE SMOOTH",
"40 576 LINE",
"40 522 LINE"
);
}
);
width = 568;
}
);
leftMetricsKey = kn_a;
rightMetricsKey = kn_a;
unicode = 0C97;
},
{
glyphname = knGHA;
lastChange = "2015-07-03 09:42:13 +0000";
layers = (
{
background = {
paths = (
{
closed = 1;
nodes = (
"318 -10 OFFCURVE",
"380 38 OFFCURVE",
"395 114 CURVE",
"407 35 OFFCURVE",
"475 -10 OFFCURVE",
"558 -10 CURVE SMOOTH",
"685 -10 OFFCURVE",
"757 89 OFFCURVE",
"757 200 CURVE SMOOTH",
"757 315 OFFCURVE",
"681 393 OFFCURVE",
"578 393 CURVE SMOOTH",
"562 393 OFFCURVE",
"545 391 OFFCURVE",
"527 387 CURVE",
"527 275 LINE",
"534 277 OFFCURVE",
"541 278 OFFCURVE",
"548 278 CURVE SMOOTH",
"592 278 OFFCURVE",
"615 248 OFFCURVE",
"615 200 CURVE SMOOTH",
"615 151 OFFCURVE",
"592 106 OFFCURVE",
"542 106 CURVE",
"488 106 OFFCURVE",
"466 151 OFFCURVE",
"466 210 CURVE SMOOTH",
"466 246 LINE",
"324 246 LINE",
"324 210 LINE SMOOTH",
"324 147 OFFCURVE",
"296 106 OFFCURVE",
"245 106 CURVE SMOOTH",
"202 106 OFFCURVE",
"172 132 OFFCURVE",
"172 184 CURVE SMOOTH",
"172 226 OFFCURVE",
"199 257 OFFCURVE",
"239 257 CURVE SMOOTH",
"246 257 OFFCURVE",
"253 256 OFFCURVE",
"260 254 CURVE",
"260 366 LINE",
"242 370 OFFCURVE",
"225 372 OFFCURVE",
"209 372 CURVE SMOOTH",
"106 372 OFFCURVE",
"30 299 OFFCURVE",
"30 184 CURVE SMOOTH",
"30 69 OFFCURVE",
"106 -10 OFFCURVE",
"233 -10 CURVE SMOOTH"
);
},
{
closed = 1;
nodes = (
"456 -200 LINE",
"461 -186 OFFCURVE",
"464 -170 OFFCURVE",
"464 -154 CURVE SMOOTH",
"464 -97 OFFCURVE",
"439 -51 OFFCURVE",
"403 14 CURVE",
"387 14 LINE",
"352 -54 OFFCURVE",
"326 -97 OFFCURVE",
"326 -154 CURVE SMOOTH",
"326 -170 OFFCURVE",
"329 -187 OFFCURVE",
"334 -200 CURVE"
);
},
{
closed = 1;
nodes = (
"437 289 OFFCURVE",
"468 320 OFFCURVE",
"468 361 CURVE SMOOTH",
"468 402 OFFCURVE",
"437 433 OFFCURVE",
"396 433 CURVE SMOOTH",
"355 433 OFFCURVE",
"324 402 OFFCURVE",
"324 361 CURVE SMOOTH",
"324 320 OFFCURVE",
"355 289 OFFCURVE",
"396 289 CURVE SMOOTH"
);
},
{
closed = 1;
nodes = (
"576 464 LINE SMOOTH",
"679 464 OFFCURVE",
"740 503 OFFCURVE",
"740 585 CURVE SMOOTH",
"740 606 OFFCURVE",
"735 627 OFFCURVE",
"726 649 CURVE",
"604 649 LINE",
"608 639 OFFCURVE",
"610 629 OFFCURVE",
"610 619 CURVE SMOOTH",
"610 589 OFFCURVE",
"587 576 OFFCURVE",
"547 576 CURVE SMOOTH",
"44 576 LINE",
"44 464 LINE"
);
},
{
closed = 1;
nodes = (
"849 269 OFFCURVE",
"887 313 OFFCURVE",
"887 375 CURVE SMOOTH",
"887 399 OFFCURVE",
"880 427 OFFCURVE",
"866 448 CURVE",
"750 448 LINE",
"759 434 OFFCURVE",
"765 414 OFFCURVE",
"765 399 CURVE SMOOTH",
"765 369 OFFCURVE",
"746 355 OFFCURVE",
"720 355 CURVE SMOOTH",
"698 355 OFFCURVE",
"681 363 OFFCURVE",
"660 374 CURVE",
"648 365 LINE",
"672 321 OFFCURVE",
"719 269 OFFCURVE",
"783 269 CURVE SMOOTH"
);
}
);
};
layerId = "9609CB55-EFEB-482C-9A6C-237B4D7F8578";
name = Bold;
paths = (
{
closed = 1;
nodes = (
"318 -10 OFFCURVE",
"380 38 OFFCURVE",
"395 114 CURVE",
"407 35 OFFCURVE",
"475 -10 OFFCURVE",
"558 -10 CURVE SMOOTH",
"685 -10 OFFCURVE",
"757 89 OFFCURVE",
"757 200 CURVE SMOOTH",
"757 315 OFFCURVE",
"681 393 OFFCURVE",
"578 393 CURVE SMOOTH",
"562 393 OFFCURVE",
"545 391 OFFCURVE",
"527 387 CURVE",
"527 275 LINE",
"534 277 OFFCURVE",
"541 278 OFFCURVE",
"548 278 CURVE SMOOTH",
"592 278 OFFCURVE",
"615 248 OFFCURVE",
"615 200 CURVE SMOOTH",
"615 151 OFFCURVE",
"592 106 OFFCURVE",
"542 106 CURVE",
"488 106 OFFCURVE",
"466 151 OFFCURVE",
"466 210 CURVE SMOOTH",
"466 246 LINE",
"324 246 LINE",
"324 210 LINE SMOOTH",
"324 147 OFFCURVE",
"296 106 OFFCURVE",
"245 106 CURVE SMOOTH",
"202 106 OFFCURVE",
"172 132 OFFCURVE",
"172 184 CURVE SMOOTH",
"172 226 OFFCURVE",
"199 257 OFFCURVE",
"239 257 CURVE SMOOTH",
"246 257 OFFCURVE",
"253 256 OFFCURVE",
"260 254 CURVE",
"260 366 LINE",
"242 370 OFFCURVE",
"225 372 OFFCURVE",
"209 372 CURVE SMOOTH",
"106 372 OFFCURVE",
"30 299 OFFCURVE",
"30 184 CURVE SMOOTH",
"30 69 OFFCURVE",
"106 -10 OFFCURVE",
"233 -10 CURVE SMOOTH"
);
},
{
closed = 1;
nodes = (
"471 -186 LINE",
"471 -171 LINE",
"427 14 LINE",
"361 14 LINE",
"317 -171 LINE",
"317 -186 LINE"
);
},
{
closed = 1;
nodes = (
"437 289 OFFCURVE",
"468 320 OFFCURVE",
"468 361 CURVE SMOOTH",
"468 402 OFFCURVE",
"437 433 OFFCURVE",
"396 433 CURVE SMOOTH",
"355 433 OFFCURVE",
"324 402 OFFCURVE",
"324 361 CURVE SMOOTH",
"324 320 OFFCURVE",
"355 289 OFFCURVE",
"396 289 CURVE SMOOTH"
);
},
{
closed = 1;
nodes = (
"576 464 LINE SMOOTH",
"679 464 OFFCURVE",
"740 503 OFFCURVE",
"740 585 CURVE SMOOTH",
"740 606 OFFCURVE",
"735 627 OFFCURVE",
"726 649 CURVE",
"604 649 LINE",
"608 639 OFFCURVE",
"610 629 OFFCURVE",
"610 619 CURVE SMOOTH",
"610 589 OFFCURVE",
"587 576 OFFCURVE",
"547 576 CURVE SMOOTH",
"44 576 LINE",
"44 464 LINE"
);
},
{
closed = 1;
nodes = (
"849 269 OFFCURVE",
"887 313 OFFCURVE",
"887 375 CURVE SMOOTH",
"887 399 OFFCURVE",
"880 427 OFFCURVE",
"866 448 CURVE",
"750 448 LINE",
"759 434 OFFCURVE",
"765 414 OFFCURVE",
"765 399 CURVE SMOOTH",
"765 369 OFFCURVE",
"746 355 OFFCURVE",
"720 355 CURVE SMOOTH",
"698 355 OFFCURVE",
"681 363 OFFCURVE",
"660 374 CURVE",
"648 365 LINE",
"672 321 OFFCURVE",
"719 269 OFFCURVE",
"783 269 CURVE SMOOTH"
);
}
);
width = 907;
},
{
layerId = "DCCD84DA-95A9-4923-A49E-D7B289AC34C6";
name = Light;
paths = (
{
closed = 1;
nodes = (
"304 -10 OFFCURVE",
"363 32 OFFCURVE",
"374 104 CURVE",
"385 32 OFFCURVE",
"439 -10 OFFCURVE",
"516 -10 CURVE",
"624 -10 OFFCURVE",
"698 64 OFFCURVE",
"698 193 CURVE SMOOTH",
"698 304 OFFCURVE",
"630 381 OFFCURVE",
"536 381 CURVE SMOOTH",
"526 381 OFFCURVE",
"514 380 OFFCURVE",
"503 378 CURVE",
"503 321 LINE",
"514 323 OFFCURVE",
"524 324 OFFCURVE",
"534 324 CURVE SMOOTH",
"596 324 OFFCURVE",
"637 275 OFFCURVE",
"637 195 CURVE SMOOTH",
"637 96 OFFCURVE",
"588 42 OFFCURVE",
"517 42 CURVE SMOOTH",
"442 42 OFFCURVE",
"404 101 OFFCURVE",
"404 172 CURVE SMOOTH",
"404 219 LINE",
"343 219 LINE",
"343 173 LINE SMOOTH",
"343 94 OFFCURVE",
"294 42 OFFCURVE",
"221 42 CURVE SMOOTH",
"143 42 OFFCURVE",
"101 96 OFFCURVE",
"101 164 CURVE SMOOTH",
"101 235 OFFCURVE",
"142 284 OFFCURVE",
"204 284 CURVE SMOOTH",
"214 284 OFFCURVE",
"224 283 OFFCURVE",
"235 281 CURVE",
"235 338 LINE",
"224 340 OFFCURVE",
"212 341 OFFCURVE",
"202 341 CURVE SMOOTH",
"108 341 OFFCURVE",
"40 264 OFFCURVE",
"40 162 CURVE SMOOTH",
"40 63 OFFCURVE",
"109 -10 OFFCURVE",
"222 -10 CURVE SMOOTH"
);
},
{
closed = 1;
nodes = (
"419 -196 LINE",
"419 -181 LINE",
"388 4 LINE",
"362 4 LINE",
"331 -181 LINE",
"331 -196 LINE"
);
},
{
closed = 1;
nodes = (
"405 340 OFFCURVE",
"428 363 OFFCURVE",
"428 394 CURVE SMOOTH",
"428 425 OFFCURVE",
"405 448 OFFCURVE",
"374 448 CURVE SMOOTH",
"343 448 OFFCURVE",
"320 425 OFFCURVE",
"320 394 CURVE SMOOTH",
"320 363 OFFCURVE",
"343 340 OFFCURVE",
"374 340 CURVE SMOOTH"
);
},
{
closed = 1;
nodes = (
"560 522 LINE SMOOTH",
"636 522 OFFCURVE",
"670 555 OFFCURVE",
"670 611 CURVE SMOOTH",
"670 623 OFFCURVE",
"668 636 OFFCURVE",
"664 649 CURVE",
"606 649 LINE",
"608 639 OFFCURVE",
"609 631 OFFCURVE",
"609 623 CURVE SMOOTH",
"609 591 OFFCURVE",
"587 576 OFFCURVE",
"544 576 CURVE SMOOTH",
"65 576 LINE",
"65 522 LINE"
);
},
{
closed = 1;
nodes = (
"779 289 OFFCURVE",
"815 326 OFFCURVE",
"815 376 CURVE SMOOTH",
"815 395 OFFCURVE",
"811 416 OFFCURVE",
"798 438 CURVE",
"736 438 LINE",
"750 417 OFFCURVE",
"755 398 OFFCURVE",
"755 379 CURVE SMOOTH",
"755 354 OFFCURVE",
"737 335 OFFCURVE",
"705 335 CURVE SMOOTH",
"663 335 OFFCURVE",
"641 348 OFFCURVE",
"597 369 CURVE",
"591 354 LINE",
"632 314 OFFCURVE",
"660 289 OFFCURVE",
"722 289 CURVE SMOOTH"
);
}
);
width = 835;
}
);
leftMetricsKey = kn_a;
unicode = 0C98;
},
{
glyphname = knNGA;
lastChange = "2015-07-03 09:42:13 +0000";
layers = (
{
layerId = "9609CB55-EFEB-482C-9A6C-237B4D7F8578";
name = Bold;
paths = (
{
closed = 1;
nodes = (
"333 -10 OFFCURVE",
"407 33 OFFCURVE",
"420 114 CURVE",
"431 39 OFFCURVE",
"490 -10 OFFCURVE",
"597 -10 CURVE SMOOTH",
"714 -10 OFFCURVE",
"785 61 OFFCURVE",
"785 154 CURVE SMOOTH",
"785 182 OFFCURVE",
"779 214 OFFCURVE",
"767 240 CURVE",
"629 240 LINE",
"642 219 OFFCURVE",
"646 196 OFFCURVE",
"646 174 CURVE SMOOTH",
"646 138 OFFCURVE",
"629 106 OFFCURVE",
"580 106 CURVE SMOOTH",
"519 106 OFFCURVE",
"491 147 OFFCURVE",
"491 210 CURVE SMOOTH",
"491 231 LINE",
"349 231 LINE",
"349 210 LINE SMOOTH",
"349 144 OFFCURVE",
"313 106 OFFCURVE",
"250 106 CURVE SMOOTH",
"216 106 OFFCURVE",
"181 120 OFFCURVE",
"181 160 CURVE SMOOTH",
"181 260 OFFCURVE",
"386 296 OFFCURVE",
"386 437 CURVE SMOOTH",
"386 529 OFFCURVE",
"309 587 OFFCURVE",
"222 587 CURVE SMOOTH",
"112 587 OFFCURVE",
"52 525 OFFCURVE",
"52 443 CURVE SMOOTH",
"52 425 OFFCURVE",
"54 406 OFFCURVE",
"60 389 CURVE",
"192 389 LINE",
"187 400 OFFCURVE",
"184 413 OFFCURVE",
"184 425 CURVE SMOOTH",
"184 449 OFFCURVE",
"195 470 OFFCURVE",
"221 470 CURVE SMOOTH",
"245 470 OFFCURVE",
"255 455 OFFCURVE",
"255 433 CURVE SMOOTH",
"255 351 OFFCURVE",
"40 308 OFFCURVE",
"40 154 CURVE SMOOTH",
"40 53 OFFCURVE",
"119 -10 OFFCURVE",
"236 -10 CURVE SMOOTH"
);
},
{
closed = 1;
nodes = (
"582 260 OFFCURVE",
"613 291 OFFCURVE",
"613 332 CURVE SMOOTH",
"613 373 OFFCURVE",
"582 404 OFFCURVE",
"541 404 CURVE SMOOTH",
"500 404 OFFCURVE",
"469 373 OFFCURVE",
"469 332 CURVE SMOOTH",
"469 291 OFFCURVE",
"500 260 OFFCURVE",
"541 260 CURVE SMOOTH"
);
},
{
closed = 1;
nodes = (
"440 398 LINE SMOOTH",
"504 444 OFFCURVE",
"555 470 OFFCURVE",
"597 470 CURVE SMOOTH",
"635 470 OFFCURVE",
"654 452 OFFCURVE",
"654 420 CURVE SMOOTH",
"654 410 OFFCURVE",
"651 397 OFFCURVE",
"648 388 CURVE",
"783 388 LINE",
"789 405 OFFCURVE",
"791 433 OFFCURVE",
"791 448 CURVE SMOOTH",
"791 533 OFFCURVE",
"721 586 OFFCURVE",
"622 586 CURVE SMOOTH",
"552 586 OFFCURVE",
"490 559 OFFCURVE",
"428 517 CURVE SMOOTH",
"340 457 LINE",
"303 299 LINE"
);
}
);
width = 821;
},
{
background = {
paths = (
{
closed = 1;
nodes = (
"303 -10 OFFCURVE",
"368 32 OFFCURVE",
"385 104 CURVE",
"395 34 OFFCURVE",
"452 -10 OFFCURVE",
"538 -10 CURVE SMOOTH",
"647 -10 OFFCURVE",
"721 65 OFFCURVE",
"721 172 CURVE SMOOTH",
"721 198 OFFCURVE",
"716 222 OFFCURVE",
"711 240 CURVE",
"649 240 LINE",
"655 223 OFFCURVE",
"660 199 OFFCURVE",
"660 174 CURVE SMOOTH",
"660 103 OFFCURVE",
"627 42 OFFCURVE",
"539 42 CURVE SMOOTH",
"464 42 OFFCURVE",
"416 96 OFFCURVE",
"416 173 CURVE",
"416 219 LINE",
"355 219 LINE",
"355 172 LINE",
"355 98 OFFCURVE",
"298 42 OFFCURVE",
"224 42 CURVE SMOOTH",
"152 42 OFFCURVE",
"112 81 OFFCURVE",
"112 139 CURVE SMOOTH",
"112 277 OFFCURVE",
"349 297 OFFCURVE",
"349 448 CURVE SMOOTH",
"349 519 OFFCURVE",
"303 587 OFFCURVE",
"211 587 CURVE SMOOTH",
"122 587 OFFCURVE",
"68 528 OFFCURVE",
"68 448 CURVE SMOOTH",
"68 433 OFFCURVE",
"70 417 OFFCURVE",
"74 401 CURVE",
"133 401 LINE",
"130 417 OFFCURVE",
"128 431 OFFCURVE",
"128 444 CURVE SMOOTH",
"128 505 OFFCURVE",
"165 535 OFFCURVE",
"211 535 CURVE SMOOTH",
"261 535 OFFCURVE",
"290 499 OFFCURVE",
"290 447 CURVE SMOOTH",
"290 324 OFFCURVE",
"50 304 OFFCURVE",
"50 139 CURVE SMOOTH",
"50 50 OFFCURVE",
"122 -10 OFFCURVE",
"220 -10 CURVE SMOOTH"
);
},
{
closed = 1;
nodes = (
"548 280 OFFCURVE",
"571 303 OFFCURVE",
"571 334 CURVE SMOOTH",
"571 365 OFFCURVE",
"548 388 OFFCURVE",
"517 388 CURVE SMOOTH",
"486 388 OFFCURVE",
"463 365 OFFCURVE",
"463 334 CURVE SMOOTH",
"463 303 OFFCURVE",
"486 280 OFFCURVE",
"517 280 CURVE SMOOTH"
);
},
{
closed = 1;
nodes = (
"432 448 LINE SMOOTH",
"467 476 OFFCURVE",
"539 535 OFFCURVE",
"595 535 CURVE SMOOTH",
"639 535 OFFCURVE",
"662 508 OFFCURVE",
"662 470 CURVE SMOOTH",
"662 451 OFFCURVE",
"659 432 OFFCURVE",
"648 408 CURVE",
"710 408 LINE",
"718 429 OFFCURVE",
"721 447 OFFCURVE",
"721 470 CURVE SMOOTH",
"721 542 OFFCURVE",
"671 587 OFFCURVE",
"595 587 CURVE SMOOTH",
"518 587 OFFCURVE",
"457 537 OFFCURVE",
"390 482 CURVE SMOOTH",
"304 412 LINE",
"286 330 LINE"
);
}
);
};
layerId = "DCCD84DA-95A9-4923-A49E-D7B289AC34C6";
name = Light;
paths = (
{
closed = 1;
nodes = (
"303 -10 OFFCURVE",
"372 34 OFFCURVE",
"388 104 CURVE",
"398 37 OFFCURVE",
"454 -10 OFFCURVE",
"546 -10 CURVE SMOOTH",
"654 -10 OFFCURVE",
"721 65 OFFCURVE",
"721 166 CURVE SMOOTH",
"721 198 OFFCURVE",
"715 222 OFFCURVE",
"709 240 CURVE",
"647 240 LINE",
"654 223 OFFCURVE",
"660 199 OFFCURVE",
"660 168 CURVE SMOOTH",
"660 102 OFFCURVE",
"625 42 OFFCURVE",
"544 42 CURVE SMOOTH",
"464 42 OFFCURVE",
"419 94 OFFCURVE",
"419 173 CURVE",
"419 219 LINE",
"358 219 LINE",
"358 172 LINE",
"358 98 OFFCURVE",
"298 42 OFFCURVE",
"224 42 CURVE SMOOTH",
"152 42 OFFCURVE",
"112 81 OFFCURVE",
"112 139 CURVE SMOOTH",
"112 275 OFFCURVE",
"344 299 OFFCURVE",
"344 450 CURVE SMOOTH",
"344 521 OFFCURVE",
"298 587 OFFCURVE",
"206 587 CURVE SMOOTH",
"117 587 OFFCURVE",
"63 528 OFFCURVE",
"63 448 CURVE SMOOTH",
"63 433 OFFCURVE",
"65 417 OFFCURVE",
"69 401 CURVE",
"128 401 LINE",
"125 417 OFFCURVE",
"123 431 OFFCURVE",
"123 444 CURVE SMOOTH",
"123 505 OFFCURVE",
"160 535 OFFCURVE",
"206 535 CURVE SMOOTH",
"256 535 OFFCURVE",
"285 501 OFFCURVE",
"285 449 CURVE SMOOTH",
"285 331 OFFCURVE",
"50 303 OFFCURVE",
"50 139 CURVE SMOOTH",
"50 50 OFFCURVE",
"122 -10 OFFCURVE",
"220 -10 CURVE SMOOTH"
);
},
{
closed = 1;
nodes = (
"543 280 OFFCURVE",
"566 303 OFFCURVE",
"566 334 CURVE SMOOTH",
"566 365 OFFCURVE",
"543 388 OFFCURVE",
"512 388 CURVE SMOOTH",
"481 388 OFFCURVE",
"458 365 OFFCURVE",
"458 334 CURVE SMOOTH",
"458 303 OFFCURVE",
"481 280 OFFCURVE",
"512 280 CURVE SMOOTH"
);
},
{
closed = 1;
nodes = (
"427 448 LINE SMOOTH",
"462 476 OFFCURVE",
"534 535 OFFCURVE",
"595 535 CURVE SMOOTH",
"641 535 OFFCURVE",
"662 504 OFFCURVE",
"662 466 CURVE SMOOTH",
"662 449 OFFCURVE",
"659 429 OFFCURVE",
"651 408 CURVE",
"713 408 LINE",
"719 426 OFFCURVE",
"721 446 OFFCURVE",
"721 466 CURVE SMOOTH",
"721 538 OFFCURVE",
"681 587 OFFCURVE",
"597 587 CURVE SMOOTH",
"513 587 OFFCURVE",
"452 537 OFFCURVE",
"385 482 CURVE SMOOTH",
"299 412 LINE",
"281 330 LINE"
);
}
);
width = 761;
}
);
leftMetricsKey = kn_u;
rightMetricsKey = kn_a;
unicode = 0C99;
},
{
glyphname = knCA;
lastChange = "2015-07-03 09:42:13 +0000";
layers = (
{
layerId = "9609CB55-EFEB-482C-9A6C-237B4D7F8578";
name = Bold;
paths = (
{
closed = 1;
nodes = (
"333 -10 OFFCURVE",
"407 33 OFFCURVE",
"420 114 CURVE",
"431 39 OFFCURVE",
"493 -10 OFFCURVE",
"588 -10 CURVE SMOOTH",
"711 -10 OFFCURVE",
"785 60 OFFCURVE",
"785 159 CURVE SMOOTH",
"785 267 OFFCURVE",
"685 316 OFFCURVE",
"572 316 CURVE SMOOTH",
"538 316 OFFCURVE",
"529 314 OFFCURVE",
"510 310 CURVE",
"510 279 LINE",
"574 279 OFFCURVE",
"644 260 OFFCURVE",
"644 181 CURVE SMOOTH",
"644 137 OFFCURVE",
"621 106 OFFCURVE",
"577 106 CURVE SMOOTH",
"519 106 OFFCURVE",
"491 147 OFFCURVE",
"491 210 CURVE SMOOTH",
"491 244 LINE",
"349 244 LINE",
"349 210 LINE SMOOTH",
"349 144 OFFCURVE",
"313 106 OFFCURVE",
"250 106 CURVE SMOOTH",
"216 106 OFFCURVE",
"181 120 OFFCURVE",
"181 160 CURVE SMOOTH",
"181 250 OFFCURVE",
"406 276 OFFCURVE",
"406 427 CURVE SMOOTH",
"406 527 OFFCURVE",
"329 587 OFFCURVE",
"232 587 CURVE SMOOTH",
"115 587 OFFCURVE",
"54 517 OFFCURVE",
"54 430 CURVE SMOOTH",
"54 414 OFFCURVE",
"56 401 OFFCURVE",
"60 384 CURVE",
"192 384 LINE",
"189 396 OFFCURVE",
"187 406 OFFCURVE",
"187 418 CURVE SMOOTH",
"187 447 OFFCURVE",
"200 470 OFFCURVE",
"232 470 CURVE SMOOTH",
"259 470 OFFCURVE",
"275 450 OFFCURVE",
"275 423 CURVE SMOOTH",
"275 334 OFFCURVE",
"40 318 OFFCURVE",
"40 154 CURVE SMOOTH",
"40 53 OFFCURVE",
"119 -10 OFFCURVE",
"236 -10 CURVE"
);
},
{
closed = 1;
nodes = (
"814 279 LINE",
"814 386 LINE",
"510 386 LINE",
"510 279 LINE"
);
},
{
closed = 1;
nodes = (
"714 364 LINE",
"714 477 LINE",
"595 477 LINE",
"595 364 LINE"
);
},
{
closed = 1;
nodes = (
"660 469 LINE SMOOTH",
"763 469 OFFCURVE",
"824 503 OFFCURVE",
"824 585 CURVE SMOOTH",
"824 606 OFFCURVE",
"819 627 OFFCURVE",
"810 649 CURVE",
"688 649 LINE",
"692 639 OFFCURVE",
"694 629 OFFCURVE",
"694 619 CURVE SMOOTH",
"694 589 OFFCURVE",
"671 576 OFFCURVE",
"631 576 CURVE SMOOTH",
"510 576 LINE",
"510 469 LINE"
);
}
);
width = 854;
},
{
layerId = "DCCD84DA-95A9-4923-A49E-D7B289AC34C6";
name = Light;
paths = (
{
closed = 1;
nodes = (
"300 -10 OFFCURVE",
"360 32 OFFCURVE",
"377 104 CURVE",
"388 32 OFFCURVE",
"442 -10 OFFCURVE",
"521 -10 CURVE SMOOTH",
"631 -10 OFFCURVE",
"701 64 OFFCURVE",
"701 172 CURVE SMOOTH",
"701 284 OFFCURVE",
"601 355 OFFCURVE",
"489 355 CURVE SMOOTH",
"479 355 OFFCURVE",
"467 354 OFFCURVE",
"456 352 CURVE",
"450 330 LINE",
"568 330 OFFCURVE",
"640 267 OFFCURVE",
"640 174 CURVE SMOOTH",
"640 96 OFFCURVE",
"602 42 OFFCURVE",
"522 42 CURVE SMOOTH",
"454 42 OFFCURVE",
"408 96 OFFCURVE",
"408 173 CURVE",
"408 219 LINE",
"347 219 LINE",
"347 172 LINE",
"347 98 OFFCURVE",
"295 42 OFFCURVE",
"219 42 CURVE SMOOTH",
"149 42 OFFCURVE",
"112 81 OFFCURVE",
"112 139 CURVE SMOOTH",
"112 282 OFFCURVE",
"349 292 OFFCURVE",
"349 448 CURVE SMOOTH",
"349 519 OFFCURVE",
"303 587 OFFCURVE",
"211 587 CURVE SMOOTH",
"122 587 OFFCURVE",
"68 528 OFFCURVE",
"68 448 CURVE SMOOTH",
"68 433 OFFCURVE",
"70 417 OFFCURVE",
"74 401 CURVE",
"133 401 LINE",
"130 417 OFFCURVE",
"128 431 OFFCURVE",
"128 444 CURVE SMOOTH",
"128 505 OFFCURVE",
"165 535 OFFCURVE",
"211 535 CURVE SMOOTH",
"261 535 OFFCURVE",
"290 499 OFFCURVE",
"290 447 CURVE SMOOTH",
"290 319 OFFCURVE",
"50 309 OFFCURVE",
"50 139 CURVE SMOOTH",
"50 50 OFFCURVE",
"119 -10 OFFCURVE",
"215 -10 CURVE SMOOTH"
);
},
{
closed = 1;
nodes = (
"707 330 LINE",
"707 384 LINE",
"450 384 LINE",
"450 330 LINE"
);
},
{
closed = 1;
nodes = (
"604 379 LINE",
"604 547 LINE",
"544 547 LINE",
"544 379 LINE"
);
},
{
closed = 1;
nodes = (
"601 522 LINE SMOOTH",
"677 522 OFFCURVE",
"711 555 OFFCURVE",
"711 611 CURVE SMOOTH",
"711 623 OFFCURVE",
"709 636 OFFCURVE",
"705 649 CURVE",
"647 649 LINE",
"649 639 OFFCURVE",
"650 631 OFFCURVE",
"650 623 CURVE SMOOTH",
"650 591 OFFCURVE",
"628 576 OFFCURVE",
"585 576 CURVE SMOOTH",
"450 576 LINE",
"450 522 LINE"
);
}
);
width = 751;
}
);
leftMetricsKey = kn_u;
rightMetricsKey = kn_a;
unicode = 0C9A;
},
{
glyphname = knCHA;
lastChange = "2015-07-03 09:42:13 +0000";
layers = (
{
background = {
paths = (
{
closed = 1;
nodes = (
"643 464 LINE SMOOTH",
"746 464 OFFCURVE",
"807 503 OFFCURVE",
"807 585 CURVE SMOOTH",
"807 606 OFFCURVE",
"802 627 OFFCURVE",
"793 649 CURVE",
"671 649 LINE",
"675 639 OFFCURVE",
"677 629 OFFCURVE",
"677 619 CURVE SMOOTH",
"677 589 OFFCURVE",
"654 576 OFFCURVE",
"614 576 CURVE SMOOTH",
"489 576 LINE",
"489 464 LINE"
);
},
{
closed = 1;
nodes = (
"432 14 LINE",
"396 -48 OFFCURVE",
"368 -90 OFFCURVE",
"368 -133 CURVE SMOOTH",
"368 -176 OFFCURVE",
"402 -202 OFFCURVE",
"439 -202 CURVE SMOOTH",
"476 -202 OFFCURVE",
"510 -176 OFFCURVE",
"510 -133 CURVE SMOOTH",
"510 -90 OFFCURVE",
"481 -48 OFFCURVE",
"448 14 CURVE"
);
},
{
closed = 1;
nodes = (
"173 366 LINE",
"182 298 OFFCURVE",
"226 262 OFFCURVE",
"296 262 CURVE SMOOTH",
"387 262 OFFCURVE",
"444 331 OFFCURVE",
"444 421 CURVE SMOOTH",
"444 496 OFFCURVE",
"394 586 OFFCURVE",
"282 586 CURVE SMOOTH",
"112 586 OFFCURVE",
"40 414 OFFCURVE",
"40 284 CURVE SMOOTH",
"40 131 OFFCURVE",
"116 -10 OFFCURVE",
"278 -10 CURVE SMOOTH",
"367 -10 OFFCURVE",
"423 38 OFFCURVE",
"440 114 CURVE",
"452 37 OFFCURVE",
"514 -10 OFFCURVE",
"604 -10 CURVE SMOOTH",
"743 -10 OFFCURVE",
"817 108 OFFCURVE",
"817 242 CURVE SMOOTH",
"817 379 OFFCURVE",
"721 492 OFFCURVE",
"556 492 CURVE SMOOTH",
"534 492 OFFCURVE",
"511 489 OFFCURVE",
"489 485 CURVE",
"489 464 LINE",
"641 445 OFFCURVE",
"676 351 OFFCURVE",
"676 246 CURVE SMOOTH",
"676 177 OFFCURVE",
"651 106 OFFCURVE",
"589 106 CURVE SMOOTH",
"537 106 OFFCURVE",
"511 150 OFFCURVE",
"511 210 CURVE SMOOTH",
"511 236 LINE",
"369 236 LINE",
"369 210 LINE SMOOTH",
"369 147 OFFCURVE",
"343 106 OFFCURVE",
"286 106 CURVE SMOOTH",
"214 106 OFFCURVE",
"182 196 OFFCURVE",
"182 289 CURVE SMOOTH",
"182 318 OFFCURVE",
"185 347 OFFCURVE",
"191 374 CURVE"
);
},
{
closed = 1;
nodes = (
"259 474 CURVE SMOOTH",
"296 474 OFFCURVE",
"315 449 OFFCURVE",
"315 418 CURVE SMOOTH",
"315 387 OFFCURVE",
"297 360 OFFCURVE",
"262 360 CURVE SMOOTH",
"227 360 OFFCURVE",
"206 382 OFFCURVE",
"206 416 CURVE SMOOTH",
"206 447 OFFCURVE",
"226 474 OFFCURVE"
);
}
);
};
layerId = "9609CB55-EFEB-482C-9A6C-237B4D7F8578";
name = Bold;
paths = (
{
closed = 1;
nodes = (
"367 -10 OFFCURVE",
"423 38 OFFCURVE",
"440 114 CURVE",
"452 37 OFFCURVE",
"514 -10 OFFCURVE",
"604 -10 CURVE SMOOTH",
"743 -10 OFFCURVE",
"817 108 OFFCURVE",
"817 242 CURVE SMOOTH",
"817 379 OFFCURVE",
"721 492 OFFCURVE",
"556 492 CURVE SMOOTH",
"534 492 OFFCURVE",
"511 489 OFFCURVE",
"489 485 CURVE",
"489 464 LINE",
"641 445 OFFCURVE",
"676 351 OFFCURVE",
"676 246 CURVE SMOOTH",
"676 177 OFFCURVE",
"651 106 OFFCURVE",
"589 106 CURVE SMOOTH",
"537 106 OFFCURVE",
"511 150 OFFCURVE",
"511 210 CURVE SMOOTH",
"511 236 LINE",
"369 236 LINE",
"369 210 LINE SMOOTH",
"369 147 OFFCURVE",
"343 106 OFFCURVE",
"286 106 CURVE SMOOTH",
"214 106 OFFCURVE",
"182 196 OFFCURVE",
"182 289 CURVE SMOOTH",
"182 318 OFFCURVE",
"185 347 OFFCURVE",
"191 374 CURVE",
"173 366 LINE",
"182 298 OFFCURVE",
"226 262 OFFCURVE",
"296 262 CURVE SMOOTH",
"387 262 OFFCURVE",
"444 331 OFFCURVE",
"444 421 CURVE SMOOTH",
"444 496 OFFCURVE",
"394 586 OFFCURVE",
"282 586 CURVE SMOOTH",
"112 586 OFFCURVE",
"40 414 OFFCURVE",
"40 284 CURVE SMOOTH",
"40 131 OFFCURVE",
"116 -10 OFFCURVE",
"278 -10 CURVE SMOOTH"
);
},
{
closed = 1;
nodes = (
"516 -196 LINE",
"516 -181 LINE",
"472 4 LINE",
"406 4 LINE",
"362 -181 LINE",
"362 -196 LINE"
);
},
{
closed = 1;
nodes = (
"227 360 OFFCURVE",
"206 382 OFFCURVE",
"206 416 CURVE SMOOTH",
"206 447 OFFCURVE",
"226 474 OFFCURVE",
"259 474 CURVE SMOOTH",
"296 474 OFFCURVE",
"315 449 OFFCURVE",
"315 418 CURVE SMOOTH",
"315 387 OFFCURVE",
"297 360 OFFCURVE",
"262 360 CURVE SMOOTH"
);
},
{
closed = 1;
nodes = (
"643 464 LINE SMOOTH",
"746 464 OFFCURVE",
"807 503 OFFCURVE",
"807 585 CURVE SMOOTH",
"807 606 OFFCURVE",
"802 627 OFFCURVE",
"793 649 CURVE",
"671 649 LINE",
"675 639 OFFCURVE",
"677 629 OFFCURVE",
"677 619 CURVE SMOOTH",
"677 589 OFFCURVE",
"654 576 OFFCURVE",
"614 576 CURVE SMOOTH",
"489 576 LINE",
"489 464 LINE"
);
}
);
width = 847;
},
{
background = {
paths = (
{
closed = 1;
nodes = (
"334 -10 OFFCURVE",
"392 32 OFFCURVE",
"408 104 CURVE",
"419 32 OFFCURVE",
"475 -10 OFFCURVE",
"555 -10 CURVE SMOOTH",
"669 -10 OFFCURVE",
"755 79 OFFCURVE",
"755 248 CURVE SMOOTH",
"755 394 OFFCURVE",
"670 551 OFFCURVE",
"509 551 CURVE SMOOTH",
"496 551 OFFCURVE",
"488 550 OFFCURVE",
"475 548 CURVE",
"464 522 LINE",
"620 522 OFFCURVE",
"693 372 OFFCURVE",
"693 248 CURVE SMOOTH",
"693 110 OFFCURVE",
"634 42 OFFCURVE",
"555 42 CURVE SMOOTH",
"480 42 OFFCURVE",
"439 98 OFFCURVE",
"439 172 CURVE",
"439 219 LINE",
"378 219 LINE",
"378 173 LINE",
"378 100 OFFCURVE",
"327 42 OFFCURVE",
"257 42 CURVE SMOOTH",
"140 42 OFFCURVE",
"103 168 OFFCURVE",
"103 281 CURVE SMOOTH",
"103 333 OFFCURVE",
"117 392 OFFCURVE",
"123 424 CURVE",
"107 422 LINE",
"107 326 OFFCURVE",
"169 274 OFFCURVE",
"255 274 CURVE SMOOTH",
"346 274 OFFCURVE",
"410 339 OFFCURVE",
"410 430 CURVE SMOOTH",
"410 511 OFFCURVE",
"352 586 OFFCURVE",
"265 586 CURVE SMOOTH",
"117 586 OFFCURVE",
"50 440 OFFCURVE",
"50 281 CURVE SMOOTH",
"50 150 OFFCURVE",
"96 -10 OFFCURVE",
"260 -10 CURVE SMOOTH"
);
},
{
closed = 1;
nodes = (
"450 -196 LINE",
"450 -181 LINE",
"419 4 LINE",
"393 4 LINE",
"362 -181 LINE",
"362 -196 LINE"
);
},
{
closed = 1;
nodes = (
"189 326 OFFCURVE",
"149 368 OFFCURVE",
"149 430 CURVE SMOOTH",
"149 485 OFFCURVE",
"190 534 OFFCURVE",
"250 534 CURVE SMOOTH",
"309 534 OFFCURVE",
"348 488 OFFCURVE",
"348 432 CURVE SMOOTH",
"348 371 OFFCURVE",
"311 326 OFFCURVE",
"253 326 CURVE SMOOTH"
);
},
{
closed = 1;
nodes = (
"630 522 LINE SMOOTH",
"706 522 OFFCURVE",
"740 555 OFFCURVE",
"740 611 CURVE SMOOTH",
"740 623 OFFCURVE",
"738 636 OFFCURVE",
"734 649 CURVE",
"676 649 LINE",
"678 639 OFFCURVE",
"679 631 OFFCURVE",
"679 623 CURVE SMOOTH",
"679 591 OFFCURVE",
"657 576 OFFCURVE",
"614 576 CURVE SMOOTH",
"464 576 LINE",
"464 522 LINE"
);
}
);
};
layerId = "DCCD84DA-95A9-4923-A49E-D7B289AC34C6";
name = Light;
paths = (
{
closed = 1;
nodes = (
"334 -10 OFFCURVE",
"392 32 OFFCURVE",
"408 104 CURVE",
"419 32 OFFCURVE",
"475 -10 OFFCURVE",
"555 -10 CURVE SMOOTH",
"669 -10 OFFCURVE",
"755 79 OFFCURVE",
"755 248 CURVE SMOOTH",
"755 394 OFFCURVE",
"670 551 OFFCURVE",
"509 551 CURVE SMOOTH",
"496 551 OFFCURVE",
"488 550 OFFCURVE",
"475 548 CURVE",
"464 522 LINE",
"620 522 OFFCURVE",
"693 372 OFFCURVE",
"693 248 CURVE SMOOTH",
"693 110 OFFCURVE",
"634 42 OFFCURVE",
"555 42 CURVE SMOOTH",
"480 42 OFFCURVE",
"439 98 OFFCURVE",
"439 172 CURVE",
"439 219 LINE",
"378 219 LINE",
"378 173 LINE",
"378 100 OFFCURVE",
"327 42 OFFCURVE",
"257 42 CURVE SMOOTH",
"145 42 OFFCURVE",
"105 160 OFFCURVE",
"105 283 CURVE SMOOTH",
"105 332 OFFCURVE",
"115 395 OFFCURVE",
"125 440 CURVE",
"108 442 LINE",
"108 355 OFFCURVE",
"163 294 OFFCURVE",
"246 294 CURVE SMOOTH",
"330 294 OFFCURVE",
"391 362 OFFCURVE",
"391 442 CURVE SMOOTH",
"391 521 OFFCURVE",
"331 586 OFFCURVE",
"246 586 CURVE SMOOTH",
"123 586 OFFCURVE",
"50 441 OFFCURVE",
"50 280 CURVE SMOOTH",
"50 149 OFFCURVE",
"96 -10 OFFCURVE",
"260 -10 CURVE SMOOTH"
);
},
{
closed = 1;
nodes = (
"450 -196 LINE",
"450 -181 LINE",
"419 4 LINE",
"393 4 LINE",
"362 -181 LINE",
"362 -196 LINE"
);
},
{
closed = 1;
nodes = (
"185 346 OFFCURVE",
"150 388 OFFCURVE",
"150 437 CURVE SMOOTH",
"150 490 OFFCURVE",
"190 534 OFFCURVE",
"241 534 CURVE SMOOTH",
"295 534 OFFCURVE",
"329 493 OFFCURVE",
"329 441 CURVE SMOOTH",
"329 391 OFFCURVE",
"297 346 OFFCURVE",
"244 346 CURVE SMOOTH"
);
},
{
closed = 1;
nodes = (
"630 522 LINE SMOOTH",
"706 522 OFFCURVE",
"740 555 OFFCURVE",
"740 611 CURVE SMOOTH",
"740 623 OFFCURVE",
"738 636 OFFCURVE",
"734 649 CURVE",
"676 649 LINE",
"678 639 OFFCURVE",
"679 631 OFFCURVE",
"679 623 CURVE SMOOTH",
"679 591 OFFCURVE",
"657 576 OFFCURVE",
"614 576 CURVE SMOOTH",
"464 576 LINE",
"464 522 LINE"
);
}
);
width = 795;
}
);
leftMetricsKey = kn_u;
rightMetricsKey = kn_a;
unicode = 0C9B;
},
{
glyphname = knJA;
lastChange = "2015-07-03 09:42:13 +0000";
layers = (
{
layerId = "9609CB55-EFEB-482C-9A6C-237B4D7F8578";
name = Bold;
paths = (
{
closed = 1;
nodes = (
"333 -10 OFFCURVE",
"407 33 OFFCURVE",
"420 114 CURVE",
"430 40 OFFCURVE",
"494 -10 OFFCURVE",
"585 -10 CURVE SMOOTH",
"707 -10 OFFCURVE",
"768 70 OFFCURVE",
"768 164 CURVE SMOOTH",
"768 198 OFFCURVE",
"759 236 OFFCURVE",
"743 270 CURVE",
"605 270 LINE",
"621 240 OFFCURVE",
"629 210 OFFCURVE",
"629 184 CURVE SMOOTH",
"629 143 OFFCURVE",
"614 106 OFFCURVE",
"566 106 CURVE SMOOTH",
"515 106 OFFCURVE",
"491 148 OFFCURVE",
"491 210 CURVE SMOOTH",
"491 231 LINE",
"349 231 LINE",
"349 210 LINE SMOOTH",
"349 142 OFFCURVE",
"308 106 OFFCURVE",
"244 106 CURVE SMOOTH",
"212 106 OFFCURVE",
"182 121 OFFCURVE",
"182 156 CURVE SMOOTH",
"182 240 OFFCURVE",
"397 296 OFFCURVE",
"397 410 CURVE",
"373 412 LINE",
"405 362 OFFCURVE",
"478 333 OFFCURVE",
"548 333 CURVE SMOOTH",
"647 333 OFFCURVE",
"723 392 OFFCURVE",
"723 485 CURVE SMOOTH",
"723 512 OFFCURVE",
"717 547 OFFCURVE",
"702 576 CURVE",
"575 576 LINE",
"585 557 OFFCURVE",
"590 536 OFFCURVE",
"590 515 CURVE SMOOTH",
"590 479 OFFCURVE",
"571 449 OFFCURVE",
"522 449 CURVE SMOOTH",
"405 449 OFFCURVE",
"374 587 OFFCURVE",
"237 587 CURVE SMOOTH",
"127 587 OFFCURVE",
"67 525 OFFCURVE",
"67 443 CURVE SMOOTH",
"67 425 OFFCURVE",
"69 406 OFFCURVE",
"75 389 CURVE",
"207 389 LINE",
"202 400 OFFCURVE",
"199 413 OFFCURVE",
"199 425 CURVE SMOOTH",
"199 449 OFFCURVE",
"210 470 OFFCURVE",
"236 470 CURVE SMOOTH",
"261 470 OFFCURVE",
"271 451 OFFCURVE",
"271 425 CURVE SMOOTH",
"271 343 OFFCURVE",
"40 308 OFFCURVE",
"40 154 CURVE SMOOTH",
"40 53 OFFCURVE",
"119 -10 OFFCURVE",
"236 -10 CURVE SMOOTH"
);
}
);
width = 798;
},
{
layerId = "DCCD84DA-95A9-4923-A49E-D7B289AC34C6";
name = Light;
paths = (
{
closed = 1;
nodes = (
"294 -10 OFFCURVE",
"358 26 OFFCURVE",
"377 104 CURVE",
"388 29 OFFCURVE",
"445 -10 OFFCURVE",
"523 -10 CURVE SMOOTH",
"624 -10 OFFCURVE",
"690 60 OFFCURVE",
"690 161 CURVE SMOOTH",
"690 203 OFFCURVE",
"681 228 OFFCURVE",
"668 261 CURVE",
"606 261 LINE",
"623 223 OFFCURVE",
"630 195 OFFCURVE",
"630 159 CURVE SMOOTH",
"630 90 OFFCURVE",
"588 42 OFFCURVE",
"521 42 CURVE SMOOTH",
"452 42 OFFCURVE",
"408 98 OFFCURVE",
"408 173 CURVE SMOOTH",
"408 219 LINE",
"347 219 LINE",
"347 172 LINE SMOOTH",
"347 92 OFFCURVE",
"290 42 OFFCURVE",
"216 42 CURVE SMOOTH",
"150 42 OFFCURVE",
"112 81 OFFCURVE",
"112 139 CURVE SMOOTH",
"112 285 OFFCURVE",
"346 291 OFFCURVE",
"346 448 CURVE",
"328 464 LINE",
"368 410 OFFCURVE",
"429 374 OFFCURVE",
"503 374 CURVE SMOOTH",
"592 374 OFFCURVE",
"651 422 OFFCURVE",
"651 508 CURVE SMOOTH",
"651 531 OFFCURVE",
"649 551 OFFCURVE",
"637 576 CURVE",
"576 576 LINE",
"586 550 OFFCURVE",
"589 530 OFFCURVE",
"589 508 CURVE SMOOTH",
"589 456 OFFCURVE",
"555 427 OFFCURVE",
"494 427 CURVE SMOOTH",
"371 427 OFFCURVE",
"339 587 OFFCURVE",
"211 587 CURVE SMOOTH",
"122 587 OFFCURVE",
"68 528 OFFCURVE",
"68 448 CURVE SMOOTH",
"68 433 OFFCURVE",
"70 417 OFFCURVE",
"74 401 CURVE",
"133 401 LINE",
"130 417 OFFCURVE",
"128 431 OFFCURVE",
"128 444 CURVE SMOOTH",
"128 505 OFFCURVE",
"165 535 OFFCURVE",
"211 535 CURVE SMOOTH",
"261 535 OFFCURVE",
"290 499 OFFCURVE",
"290 447 CURVE SMOOTH",
"290 319 OFFCURVE",
"50 309 OFFCURVE",
"50 139 CURVE SMOOTH",
"50 50 OFFCURVE",
"116 -10 OFFCURVE",
"212 -10 CURVE SMOOTH"
);
}
);
width = 730;
}
);
leftMetricsKey = kn_u;
rightMetricsKey = kn_a;
unicode = 0C9C;
},
{
glyphname = knJHA;
lastChange = "2015-07-03 09:42:13 +0000";
layers = (
{
background = {
paths = (
{
closed = 1;
nodes = (
"497 -8 OFFCURVE",
"597 115 OFFCURVE",
"597 283 CURVE SMOOTH",
"597 432 OFFCURVE",
"510 576 OFFCURVE",
"319 576 CURVE SMOOTH",
"138 576 OFFCURVE",
"40 432 OFFCURVE",
"40 274 CURVE SMOOTH",
"40 112 OFFCURVE",
"137 -8 OFFCURVE",
"319 -8 CURVE SMOOTH"
);
},
{
closed = 1;
nodes = (
"235 105 OFFCURVE",
"192 179 OFFCURVE",
"192 280 CURVE SMOOTH",
"192 371 OFFCURVE",
"231 468 OFFCURVE",
"318 468 CURVE SMOOTH",
"411 468 OFFCURVE",
"445 369 OFFCURVE",
"445 278 CURVE SMOOTH",
"445 177 OFFCURVE",
"405 105 OFFCURVE",
"320 105 CURVE SMOOTH"
);
},
{
closed = 1;
nodes = (
"951 -206 LINE",
"951 -191 LINE",
"907 -6 LINE",
"841 -6 LINE",
"797 -191 LINE",
"797 -206 LINE"
);
},
{
closed = 1;
nodes = (
"855 -10 OFFCURVE",
"915 117 OFFCURVE",
"915 275 CURVE SMOOTH",
"915 446 OFFCURVE",
"854 576 OFFCURVE",
"661 576 CURVE",
"661 461 LINE",
"750 461 OFFCURVE",
"774 372 OFFCURVE",
"774 269 CURVE SMOOTH",
"774 183 OFFCURVE",
"762 106 OFFCURVE",
"690 106 CURVE SMOOTH",
"621 106 OFFCURVE",
"597 184 OFFCURVE",
"597 283 CURVE",
"533 224 LINE",
"533 80 OFFCURVE",
"581 -10 OFFCURVE",
"702 -10 CURVE SMOOTH"
);
},
{
closed = 1;
nodes = (
"1172 -10 OFFCURVE",
"1235 121 OFFCURVE",
"1235 275 CURVE SMOOTH",
"1235 439 OFFCURVE",
"1167 576 OFFCURVE",
"975 576 CURVE",
"975 461 LINE",
"1062 461 OFFCURVE",
"1094 372 OFFCURVE",
"1094 269 CURVE SMOOTH",
"1094 183 OFFCURVE",
"1079 106 OFFCURVE",
"1008 106 CURVE SMOOTH",
"939 106 OFFCURVE",
"915 184 OFFCURVE",
"915 283 CURVE",
"851 224 LINE",
"851 80 OFFCURVE",
"899 -10 OFFCURVE",
"1027 -10 CURVE SMOOTH"
);
}
);
};
layerId = "9609CB55-EFEB-482C-9A6C-237B4D7F8578";
name = Bold;
paths = (
{
closed = 1;
nodes = (
"950 -206 LINE",
"950 -191 LINE",
"906 -6 LINE",
"840 -6 LINE",
"796 -191 LINE",
"796 -206 LINE"
);
},
{
closed = 1;
nodes = (
"847 -10 OFFCURVE",
"920 114 OFFCURVE",
"920 269 CURVE SMOOTH",
"920 433 OFFCURVE",
"852 576 OFFCURVE",
"660 576 CURVE",
"660 461 LINE",
"747 461 OFFCURVE",
"779 372 OFFCURVE",
"779 269 CURVE SMOOTH",
"779 186 OFFCURVE",
"759 106 OFFCURVE",
"691 106 CURVE SMOOTH",
"627 106 OFFCURVE",
"596 160 OFFCURVE",
"596 259 CURVE",
"531 224 LINE",
"531 80 OFFCURVE",
"579 -10 OFFCURVE",
"714 -10 CURVE SMOOTH"
);
},
{
closed = 1;
nodes = (
"1171 -10 OFFCURVE",
"1244 114 OFFCURVE",
"1244 269 CURVE SMOOTH",
"1244 433 OFFCURVE",
"1176 576 OFFCURVE",
"984 576 CURVE",
"984 461 LINE",
"1071 461 OFFCURVE",
"1103 372 OFFCURVE",
"1103 269 CURVE SMOOTH",
"1103 186 OFFCURVE",
"1083 106 OFFCURVE",
"1015 106 CURVE SMOOTH",
"951 106 OFFCURVE",
"920 160 OFFCURVE",
"920 259 CURVE",
"855 224 LINE",
"855 80 OFFCURVE",
"903 -10 OFFCURVE",
"1038 -10 CURVE SMOOTH"
);
},
{
closed = 1;
nodes = (
"448 464 LINE SMOOTH",
"551 464 OFFCURVE",
"612 503 OFFCURVE",
"612 585 CURVE SMOOTH",
"612 606 OFFCURVE",
"607 627 OFFCURVE",
"598 649 CURVE",
"476 649 LINE",
"480 639 OFFCURVE",
"482 629 OFFCURVE",
"482 619 CURVE SMOOTH",
"482 589 OFFCURVE",
"459 576 OFFCURVE",
"419 576 CURVE SMOOTH",
"30 576 LINE",
"30 464 LINE"
);
},
{
closed = 1;
nodes = (
"497 -8 OFFCURVE",
"597 115 OFFCURVE",
"597 283 CURVE SMOOTH",
"597 417 OFFCURVE",
"520 542 OFFCURVE",
"319 542 CURVE SMOOTH",
"128 542 OFFCURVE",
"40 417 OFFCURVE",
"40 274 CURVE SMOOTH",
"40 112 OFFCURVE",
"137 -8 OFFCURVE",
"319 -8 CURVE SMOOTH"
);
},
{
closed = 1;
nodes = (
"235 105 OFFCURVE",
"192 179 OFFCURVE",
"192 280 CURVE SMOOTH",
"192 371 OFFCURVE",
"231 464 OFFCURVE",
"318 464 CURVE SMOOTH",
"411 464 OFFCURVE",
"445 369 OFFCURVE",
"445 278 CURVE SMOOTH",
"445 177 OFFCURVE",
"405 105 OFFCURVE",
"320 105 CURVE SMOOTH"
);
}
);
width = 1284;
},
{
background = {
paths = (
{
closed = 1;
nodes = (
"438 -10 OFFCURVE",
"542 103 OFFCURVE",
"542 287 CURVE SMOOTH",
"542 466 OFFCURVE",
"438 576 OFFCURVE",
"294 576 CURVE SMOOTH",
"149 576 OFFCURVE",
"45 466 OFFCURVE",
"45 287 CURVE SMOOTH",
"45 103 OFFCURVE",
"149 -10 OFFCURVE",
"294 -10 CURVE SMOOTH"
);
},
{
closed = 1;
nodes = (
"188 42 OFFCURVE",
"107 136 OFFCURVE",
"107 286 CURVE SMOOTH",
"107 433 OFFCURVE",
"188 524 OFFCURVE",
"294 524 CURVE SMOOTH",
"399 524 OFFCURVE",
"480 433 OFFCURVE",
"480 286 CURVE SMOOTH",
"480 136 OFFCURVE",
"399 42 OFFCURVE",
"294 42 CURVE SMOOTH"
);
},
{
closed = 1;
nodes = (
"779 -10 OFFCURVE",
"849 99 OFFCURVE",
"849 275 CURVE SMOOTH",
"849 434 OFFCURVE",
"781 558 OFFCURVE",
"640 564 CURVE",
"640 524 LINE",
"734 508 OFFCURVE",
"787 404 OFFCURVE",
"787 269 CURVE SMOOTH",
"787 128 OFFCURVE",
"743 42 OFFCURVE",
"666 42 CURVE SMOOTH",
"572 42 OFFCURVE",
"541 149 OFFCURVE",
"541 263 CURVE",
"498 224 LINE",
"498 90 OFFCURVE",
"542 -10 OFFCURVE",
"665 -10 CURVE SMOOTH"
);
},
{
closed = 1;
nodes = (
"1085 -10 OFFCURVE",
"1155 99 OFFCURVE",
"1155 275 CURVE SMOOTH",
"1155 434 OFFCURVE",
"1082 574 OFFCURVE",
"937 576 CURVE",
"937 522 LINE",
"1031 522 OFFCURVE",
"1093 414 OFFCURVE",
"1093 269 CURVE SMOOTH",
"1093 128 OFFCURVE",
"1049 42 OFFCURVE",
"973 42 CURVE SMOOTH",
"879 42 OFFCURVE",
"849 149 OFFCURVE",
"849 263 CURVE",
"806 224 LINE",
"806 90 OFFCURVE",
"849 -10 OFFCURVE",
"972 -10 CURVE SMOOTH"
);
},
{
closed = 1;
nodes = (
"697 524 LINE",
"908 799 LINE",
"835 799 LINE",
"665 576 LINE",
"585 677 LINE",
"508 677 LINE",
"633 524 LINE"
);
}
);
};
layerId = "DCCD84DA-95A9-4923-A49E-D7B289AC34C6";
name = Light;
paths = (
{
closed = 1;
nodes = (
"857 -196 LINE",
"857 -181 LINE",
"826 4 LINE",
"800 4 LINE",
"769 -181 LINE",
"769 -196 LINE"
);
},
{
closed = 1;
nodes = (
"776 -10 OFFCURVE",
"848 99 OFFCURVE",
"848 275 CURVE SMOOTH",
"848 434 OFFCURVE",
"785 574 OFFCURVE",
"640 576 CURVE",
"640 522 LINE",
"734 522 OFFCURVE",
"786 414 OFFCURVE",
"786 269 CURVE SMOOTH",
"786 128 OFFCURVE",
"740 42 OFFCURVE",
"668 42 CURVE SMOOTH",
"575 42 OFFCURVE",
"541 149 OFFCURVE",
"541 263 CURVE",
"498 224 LINE",
"498 90 OFFCURVE",
"545 -10 OFFCURVE",
"667 -10 CURVE SMOOTH"
);
},
{
closed = 1;
nodes = (
"1087 -10 OFFCURVE",
"1155 99 OFFCURVE",
"1155 275 CURVE SMOOTH",
"1155 434 OFFCURVE",
"1082 574 OFFCURVE",
"937 576 CURVE",
"937 522 LINE",
"1031 522 OFFCURVE",
"1093 414 OFFCURVE",
"1093 269 CURVE SMOOTH",
"1093 128 OFFCURVE",
"1051 42 OFFCURVE",
"971 42 CURVE SMOOTH",
"872 42 OFFCURVE",
"848 149 OFFCURVE",
"848 263 CURVE",
"805 224 LINE",
"805 90 OFFCURVE",
"842 -10 OFFCURVE",
"970 -10 CURVE SMOOTH"
);
},
{
closed = 1;
nodes = (
"440 522 LINE SMOOTH",
"516 522 OFFCURVE",
"550 555 OFFCURVE",
"550 611 CURVE SMOOTH",
"550 623 OFFCURVE",
"548 636 OFFCURVE",
"544 649 CURVE",
"486 649 LINE",
"488 639 OFFCURVE",
"489 631 OFFCURVE",
"489 623 CURVE SMOOTH",
"489 591 OFFCURVE",
"467 576 OFFCURVE",
"424 576 CURVE SMOOTH",
"40 576 LINE",
"40 522 LINE"
);
},
{
closed = 1;
nodes = (
"438 -10 OFFCURVE",
"542 103 OFFCURVE",
"542 287 CURVE SMOOTH",
"542 466 OFFCURVE",
"438 569 OFFCURVE",
"294 569 CURVE SMOOTH",
"149 569 OFFCURVE",
"45 466 OFFCURVE",
"45 287 CURVE SMOOTH",
"45 103 OFFCURVE",
"149 -10 OFFCURVE",
"294 -10 CURVE SMOOTH"
);
},
{
closed = 1;
nodes = (
"188 42 OFFCURVE",
"107 136 OFFCURVE",
"107 286 CURVE SMOOTH",
"107 433 OFFCURVE",
"188 522 OFFCURVE",
"294 522 CURVE SMOOTH",
"399 522 OFFCURVE",
"480 433 OFFCURVE",
"480 286 CURVE SMOOTH",
"480 136 OFFCURVE",
"399 42 OFFCURVE",
"294 42 CURVE SMOOTH"
);
}
);
width = 1205;
}
);
leftMetricsKey = kn_a;
rightMetricsKey = kn_u;
unicode = 0C9D;
},
{
glyphname = knNYA;
lastChange = "2015-07-03 09:42:13 +0000";
layers = (
{
layerId = "9609CB55-EFEB-482C-9A6C-237B4D7F8578";
name = Bold;
paths = (
{
closed = 1;
nodes = (
"723 -20 LINE",
"677 159 OFFCURVE",
"510 304 OFFCURVE",
"316 304 CURVE SMOOTH",
"155 304 OFFCURVE",
"66 236 OFFCURVE",
"66 142 CURVE SMOOTH",
"66 35 OFFCURVE",
"178 -11 OFFCURVE",
"310 -11 CURVE SMOOTH",
"536 -11 OFFCURVE",
"705 147 OFFCURVE",
"705 350 CURVE SMOOTH",
"705 478 OFFCURVE",
"645 587 OFFCURVE",
"506 587 CURVE SMOOTH",
"425 587 OFFCURVE",
"369 533 OFFCURVE",
"359 463 CURVE",
"351 531 OFFCURVE",
"293 587 OFFCURVE",
"200 587 CURVE SMOOTH",
"86 587 OFFCURVE",
"20 507 OFFCURVE",
"20 420 CURVE SMOOTH",
"20 383 OFFCURVE",
"29 348 OFFCURVE",
"43 317 CURVE",
"181 317 LINE",
"168 342 OFFCURVE",
"159 372 OFFCURVE",
"159 400 CURVE SMOOTH",
"159 439 OFFCURVE",
"180 471 OFFCURVE",
"219 471 CURVE SMOOTH",
"270 471 OFFCURVE",
"288 427 OFFCURVE",
"288 377 CURVE SMOOTH",
"288 356 LINE",
"430 356 LINE",
"430 377 LINE SMOOTH",
"430 427 OFFCURVE",
"444 471 OFFCURVE",
"496 471 CURVE SMOOTH",
"551 471 OFFCURVE",
"567 415 OFFCURVE",
"567 352 CURVE SMOOTH",
"567 215 OFFCURVE",
"482 102 OFFCURVE",
"306 102 CURVE SMOOTH",
"253 102 OFFCURVE",
"208 115 OFFCURVE",
"208 147 CURVE SMOOTH",
"208 178 OFFCURVE",
"244 192 OFFCURVE",
"309 192 CURVE SMOOTH",
"451 192 OFFCURVE",
"536 97 OFFCURVE",
"570 -20 CURVE"
);
},
{
closed = 1;
nodes = (
"703 431 OFFCURVE",
"712 476 OFFCURVE",
"752 476 CURVE SMOOTH",
"778 476 OFFCURVE",
"789 451 OFFCURVE",
"789 429 CURVE SMOOTH",
"789 415 OFFCURVE",
"787 403 OFFCURVE",
"783 388 CURVE",
"906 388 LINE",
"913 411 OFFCURVE",
"916 433 OFFCURVE",
"916 455 CURVE SMOOTH",
"916 528 OFFCURVE",
"873 587 OFFCURVE",
"788 587 CURVE SMOOTH",
"703 587 OFFCURVE",
"662 520 OFFCURVE",
"662 455 CURVE",
"703 386 LINE"
);
}
);
width = 936;
},
{
background = {
paths = (
{
closed = 1;
nodes = (
"625 386 LINE",
"625 431 OFFCURVE",
"634 476 OFFCURVE",
"674 476 CURVE SMOOTH",
"700 476 OFFCURVE",
"711 451 OFFCURVE",
"711 429 CURVE SMOOTH",
"711 415 OFFCURVE",
"709 403 OFFCURVE",
"705 388 CURVE",
"828 388 LINE",
"835 411 OFFCURVE",
"838 433 OFFCURVE",
"838 455 CURVE SMOOTH",
"838 528 OFFCURVE",
"795 587 OFFCURVE",
"710 587 CURVE SMOOTH",
"625 587 OFFCURVE",
"584 520 OFFCURVE",
"584 455 CURVE"
);
}
);
};
layerId = "DCCD84DA-95A9-4923-A49E-D7B289AC34C6";
name = Light;
paths = (
{
closed = 1;
nodes = (
"630 -30 LINE",
"594 138 OFFCURVE",
"463 268 OFFCURVE",
"286 268 CURVE SMOOTH",
"161 268 OFFCURVE",
"85 203 OFFCURVE",
"85 130 CURVE SMOOTH",
"85 38 OFFCURVE",
"170 -10 OFFCURVE",
"294 -10 CURVE SMOOTH",
"500 -10 OFFCURVE",
"631 197 OFFCURVE",
"625 375 CURVE SMOOTH",
"621 502 OFFCURVE",
"564 586 OFFCURVE",
"456 586 CURVE SMOOTH",
"381 586 OFFCURVE",
"335 538 OFFCURVE",
"327 470 CURVE",
"319 536 OFFCURVE",
"270 586 OFFCURVE",
"185 586 CURVE SMOOTH",
"89 586 OFFCURVE",
"30 515 OFFCURVE",
"30 418 CURVE SMOOTH",
"30 395 OFFCURVE",
"33 370 OFFCURVE",
"39 345 CURVE",
"101 345 LINE",
"94 371 OFFCURVE",
"90 397 OFFCURVE",
"90 421 CURVE SMOOTH",
"90 484 OFFCURVE",
"122 534 OFFCURVE",
"186 534 CURVE SMOOTH",
"259 534 OFFCURVE",
"297 477 OFFCURVE",
"297 413 CURVE SMOOTH",
"297 372 LINE",
"358 372 LINE",
"358 409 LINE SMOOTH",
"358 479 OFFCURVE",
"384 534 OFFCURVE",
"456 534 CURVE SMOOTH",
"527 534 OFFCURVE",
"565 466 OFFCURVE",
"565 368 CURVE SMOOTH",
"565 206 OFFCURVE",
"459 42 OFFCURVE",
"294 42 CURVE SMOOTH",
"193 42 OFFCURVE",
"147 76 OFFCURVE",
"147 127 CURVE SMOOTH",
"147 176 OFFCURVE",
"189 216 OFFCURVE",
"287 216 CURVE SMOOTH",
"420 216 OFFCURVE",
"529 127 OFFCURVE",
"568 -30 CURVE"
);
},
{
closed = 1;
nodes = (
"621 448 OFFCURVE",
"638 535 OFFCURVE",
"700 535 CURVE SMOOTH",
"736 535 OFFCURVE",
"755 502 OFFCURVE",
"755 470 CURVE SMOOTH",
"755 447 OFFCURVE",
"751 425 OFFCURVE",
"746 408 CURVE",
"807 408 LINE",
"813 427 OFFCURVE",
"816 446 OFFCURVE",
"816 470 CURVE SMOOTH",
"816 530 OFFCURVE",
"778 587 OFFCURVE",
"702 587 CURVE SMOOTH",
"620 587 OFFCURVE",
"584 521 OFFCURVE",
"584 452 CURVE",
"625 375 LINE"
);
}
);
width = 836;
}
);
leftMetricsKey = kn_i;
rightMetricsKey = kn_gha;
unicode = 0C9E;
},
{
glyphname = knTTA;
lastChange = "2015-07-03 09:42:13 +0000";
layers = (
{
background = {
paths = (
{
closed = 1;
nodes = (
"390 -10 OFFCURVE",
"460 36 OFFCURVE",
"479 114 CURVE",
"496 36 OFFCURVE",
"556 -10 OFFCURVE",
"652 -10 CURVE SMOOTH",
"771 -10 OFFCURVE",
"857 62 OFFCURVE",
"857 171 CURVE SMOOTH",
"857 264 OFFCURVE",
"798 326 OFFCURVE",
"690 332 CURVE",
"788 340 OFFCURVE",
"823 394 OFFCURVE",
"823 463 CURVE SMOOTH",
"823 498 OFFCURVE",
"812 544 OFFCURVE",
"790 576 CURVE",
"639 576 LINE",
"665 544 OFFCURVE",
"680 506 OFFCURVE",
"680 474 CURVE SMOOTH",
"680 427 OFFCURVE",
"648 391 OFFCURVE",
"580 391 CURVE SMOOTH",
"566 391 LINE",
"566 273 LINE",
"594 273 LINE SMOOTH",
"673 273 OFFCURVE",
"715 244 OFFCURVE",
"715 186 CURVE SMOOTH",
"715 140 OFFCURVE",
"691 106 OFFCURVE",
"639 106 CURVE SMOOTH",
"576 106 OFFCURVE",
"550 145 OFFCURVE",
"550 205 CURVE SMOOTH",
"550 221 LINE",
"408 221 LINE",
"408 205 LINE SMOOTH",
"408 142 OFFCURVE",
"367 106 OFFCURVE",
"303 106 CURVE SMOOTH",
"234 106 OFFCURVE",
"172 147 OFFCURVE",
"172 257 CURVE",
"162 269 LINE",
"169 212 OFFCURVE",
"224 190 OFFCURVE",
"273 190 CURVE SMOOTH",
"361 190 OFFCURVE",
"416 256 OFFCURVE",
"416 342 CURVE SMOOTH",
"416 416 OFFCURVE",
"361 494 OFFCURVE",
"255 494 CURVE SMOOTH",
"110 494 OFFCURVE",
"40 371 OFFCURVE",
"40 248 CURVE SMOOTH",
"40 102 OFFCURVE",
"140 -10 OFFCURVE",
"291 -10 CURVE SMOOTH"
);
},
{
closed = 1;
nodes = (
"206 288 OFFCURVE",
"186 309 OFFCURVE",
"186 339 CURVE SMOOTH",
"186 366 OFFCURVE",
"204 392 OFFCURVE",
"236 392 CURVE SMOOTH",
"271 392 OFFCURVE",
"289 370 OFFCURVE",
"289 341 CURVE SMOOTH",
"289 313 OFFCURVE",
"273 288 OFFCURVE",
"239 288 CURVE SMOOTH"
);
},
{
closed = 1;
nodes = (
"312 494 OFFCURVE",
"281 523 OFFCURVE",
"281 577 CURVE SMOOTH",
"281 597 OFFCURVE",
"283 620 OFFCURVE",
"294 643 CURVE",
"131 643 LINE",
"128 633 OFFCURVE",
"126 621 OFFCURVE",
"126 611 CURVE SMOOTH",
"126 526 OFFCURVE",
"191 489 OFFCURVE",
"252 470 CURVE",
"355 464 LINE"
);
}
);
};
layerId = "9609CB55-EFEB-482C-9A6C-237B4D7F8578";
name = Bold;
paths = (
{
closed = 1;
nodes = (
"390 -10 OFFCURVE",
"460 36 OFFCURVE",
"479 114 CURVE",
"496 36 OFFCURVE",
"556 -10 OFFCURVE",
"652 -10 CURVE SMOOTH",
"771 -10 OFFCURVE",
"857 62 OFFCURVE",
"857 171 CURVE SMOOTH",
"857 264 OFFCURVE",
"798 326 OFFCURVE",
"690 332 CURVE",
"788 340 OFFCURVE",
"823 394 OFFCURVE",
"823 463 CURVE SMOOTH",
"823 498 OFFCURVE",
"812 544 OFFCURVE",
"790 576 CURVE",
"639 576 LINE",
"665 544 OFFCURVE",
"680 506 OFFCURVE",
"680 474 CURVE SMOOTH",
"680 427 OFFCURVE",
"648 391 OFFCURVE",
"580 391 CURVE SMOOTH",
"566 391 LINE",
"566 273 LINE",
"594 273 LINE SMOOTH",
"673 273 OFFCURVE",
"715 244 OFFCURVE",
"715 186 CURVE SMOOTH",
"715 140 OFFCURVE",
"691 106 OFFCURVE",
"639 106 CURVE SMOOTH",
"576 106 OFFCURVE",
"550 145 OFFCURVE",
"550 205 CURVE SMOOTH",
"550 221 LINE",
"408 221 LINE",
"408 205 LINE SMOOTH",
"408 142 OFFCURVE",
"367 106 OFFCURVE",
"303 106 CURVE SMOOTH",
"240 106 OFFCURVE",
"170 139 OFFCURVE",
"170 270 CURVE SMOOTH",
"170 281 OFFCURVE",
"171 294 OFFCURVE",
"172 307 CURVE",
"162 269 LINE",
"169 212 OFFCURVE",
"224 190 OFFCURVE",
"273 190 CURVE SMOOTH",
"361 190 OFFCURVE",
"416 256 OFFCURVE",
"416 342 CURVE SMOOTH",
"416 416 OFFCURVE",
"361 494 OFFCURVE",
"255 494 CURVE SMOOTH",
"110 494 OFFCURVE",
"40 371 OFFCURVE",
"40 248 CURVE SMOOTH",
"40 102 OFFCURVE",
"140 -10 OFFCURVE",
"291 -10 CURVE SMOOTH"
);
},
{
closed = 1;
nodes = (
"206 288 OFFCURVE",
"186 309 OFFCURVE",
"186 339 CURVE SMOOTH",
"186 366 OFFCURVE",
"204 392 OFFCURVE",
"236 392 CURVE SMOOTH",
"271 392 OFFCURVE",
"289 370 OFFCURVE",
"289 341 CURVE SMOOTH",
"289 313 OFFCURVE",
"273 288 OFFCURVE",
"239 288 CURVE SMOOTH"
);
},
{
closed = 1;
nodes = (
"312 494 OFFCURVE",
"281 523 OFFCURVE",
"281 577 CURVE SMOOTH",
"281 597 OFFCURVE",
"283 620 OFFCURVE",
"294 643 CURVE",
"131 643 LINE",
"128 633 OFFCURVE",
"126 621 OFFCURVE",
"126 611 CURVE SMOOTH",
"126 526 OFFCURVE",
"191 489 OFFCURVE",
"252 470 CURVE",
"355 464 LINE"
);
}
);
width = 897;
},
{
background = {
paths = (
{
closed = 1;
nodes = (
"334 -10 OFFCURVE",
"392 32 OFFCURVE",
"408 104 CURVE",
"419 32 OFFCURVE",
"475 -10 OFFCURVE",
"562 -10 CURVE SMOOTH",
"665 -10 OFFCURVE",
"735 61 OFFCURVE",
"735 172 CURVE SMOOTH",
"735 252 OFFCURVE",
"684 323 OFFCURVE",
"600 333 CURVE",
"681 342 OFFCURVE",
"717 393 OFFCURVE",
"717 460 CURVE SMOOTH",
"717 509 OFFCURVE",
"695 547 OFFCURVE",
"667 576 CURVE",
"603 576 LINE",
"637 541 OFFCURVE",
"657 498 OFFCURVE",
"657 460 CURVE SMOOTH",
"657 402 OFFCURVE",
"610 361 OFFCURVE",
"539 361 CURVE",
"514 361 LINE",
"514 307 LINE",
"538 307 LINE",
"618 307 OFFCURVE",
"673 248 OFFCURVE",
"673 172 CURVE SMOOTH",
"673 92 OFFCURVE",
"631 42 OFFCURVE",
"562 42 CURVE SMOOTH",
"480 42 OFFCURVE",
"439 98 OFFCURVE",
"439 172 CURVE",
"439 219 LINE",
"378 219 LINE",
"378 173 LINE",
"378 100 OFFCURVE",
"327 42 OFFCURVE",
"247 42 CURVE SMOOTH",
"150 42 OFFCURVE",
"103 133 OFFCURVE",
"103 251 CURVE SMOOTH",
"103 293 OFFCURVE",
"107 312 OFFCURVE",
"113 344 CURVE",
"97 342 LINE",
"97 250 OFFCURVE",
"152 204 OFFCURVE",
"235 204 CURVE SMOOTH",
"321 204 OFFCURVE",
"380 263 OFFCURVE",
"380 350 CURVE SMOOTH",
"380 437 OFFCURVE",
"314 496 OFFCURVE",
"233 496 CURVE SMOOTH",
"108 496 OFFCURVE",
"50 392 OFFCURVE",
"50 251 CURVE SMOOTH",
"50 102 OFFCURVE",
"119 -10 OFFCURVE",
"250 -10 CURVE SMOOTH"
);
},
{
closed = 1;
nodes = (
"174 256 OFFCURVE",
"139 291 OFFCURVE",
"139 350 CURVE SMOOTH",
"139 406 OFFCURVE",
"176 444 OFFCURVE",
"230 444 CURVE SMOOTH",
"282 444 OFFCURVE",
"318 407 OFFCURVE",
"318 352 CURVE SMOOTH",
"318 295 OFFCURVE",
"284 256 OFFCURVE",
"233 256 CURVE SMOOTH"
);
},
{
closed = 1;
nodes = (
"249 503 OFFCURVE",
"215 533 OFFCURVE",
"215 581 CURVE SMOOTH",
"215 597 OFFCURVE",
"217 614 OFFCURVE",
"225 633 CURVE",
"158 633 LINE",
"154 621 OFFCURVE",
"152 608 OFFCURVE",
"152 592 CURVE SMOOTH",
"152 534 OFFCURVE",
"197 496 OFFCURVE",
"253 480 CURVE",
"310 476 LINE"
);
}
);
};
layerId = "DCCD84DA-95A9-4923-A49E-D7B289AC34C6";
name = Light;
paths = (
{
closed = 1;
nodes = (
"334 -10 OFFCURVE",
"392 32 OFFCURVE",
"408 104 CURVE",
"419 32 OFFCURVE",
"475 -10 OFFCURVE",
"562 -10 CURVE SMOOTH",
"665 -10 OFFCURVE",
"735 61 OFFCURVE",
"735 172 CURVE SMOOTH",
"735 252 OFFCURVE",
"684 323 OFFCURVE",
"600 333 CURVE",
"681 342 OFFCURVE",
"717 393 OFFCURVE",
"717 460 CURVE SMOOTH",
"717 509 OFFCURVE",
"695 547 OFFCURVE",
"667 576 CURVE",
"603 576 LINE",
"637 541 OFFCURVE",
"657 498 OFFCURVE",
"657 460 CURVE SMOOTH",
"657 402 OFFCURVE",
"610 361 OFFCURVE",
"539 361 CURVE",
"514 361 LINE",
"514 307 LINE",
"538 307 LINE",
"618 307 OFFCURVE",
"673 248 OFFCURVE",
"673 172 CURVE SMOOTH",
"673 92 OFFCURVE",
"631 42 OFFCURVE",
"562 42 CURVE SMOOTH",
"480 42 OFFCURVE",
"439 98 OFFCURVE",
"439 172 CURVE",
"439 219 LINE",
"378 219 LINE",
"378 173 LINE",
"378 100 OFFCURVE",
"327 42 OFFCURVE",
"247 42 CURVE SMOOTH",
"150 42 OFFCURVE",
"103 133 OFFCURVE",
"103 251 CURVE SMOOTH",
"103 298 OFFCURVE",
"108 325 OFFCURVE",
"114 357 CURVE",
"97 357 LINE",
"97 265 OFFCURVE",
"152 214 OFFCURVE",
"230 214 CURVE SMOOTH",
"311 214 OFFCURVE",
"370 270 OFFCURVE",
"370 354 CURVE SMOOTH",
"370 439 OFFCURVE",
"307 496 OFFCURVE",
"228 496 CURVE SMOOTH",
"103 496 OFFCURVE",
"50 379 OFFCURVE",
"50 251 CURVE SMOOTH",
"50 102 OFFCURVE",
"119 -10 OFFCURVE",
"250 -10 CURVE SMOOTH"
);
},
{
closed = 1;
nodes = (
"172 266 OFFCURVE",
"139 301 OFFCURVE",
"139 354 CURVE SMOOTH",
"139 406 OFFCURVE",
"171 444 OFFCURVE",
"225 444 CURVE SMOOTH",
"277 444 OFFCURVE",
"308 407 OFFCURVE",
"308 356 CURVE SMOOTH",
"308 305 OFFCURVE",
"279 266 OFFCURVE",
"228 266 CURVE SMOOTH"
);
},
{
closed = 1;
nodes = (
"242 508 OFFCURVE",
"210 536 OFFCURVE",
"210 581 CURVE SMOOTH",
"210 597 OFFCURVE",
"212 614 OFFCURVE",
"220 633 CURVE",
"153 633 LINE",
"149 621 OFFCURVE",
"147 608 OFFCURVE",
"147 592 CURVE SMOOTH",
"147 534 OFFCURVE",
"192 496 OFFCURVE",
"248 480 CURVE",
"302 477 LINE"
);
}
);
width = 785;
}
);
leftMetricsKey = kn_u;
rightMetricsKey = kn_u;
unicode = 0C9F;
},
{
glyphname = knTTHA;
lastChange = "2015-07-03 09:42:13 +0000";
layers = (
{
background = {
paths = (
{
closed = 1;
nodes = (
"480 -8 OFFCURVE",
"562 115 OFFCURVE",
"562 283 CURVE SMOOTH",
"562 432 OFFCURVE",
"468 538 OFFCURVE",
"304 538 CURVE SMOOTH",
"150 538 OFFCURVE",
"45 432 OFFCURVE",
"45 274 CURVE SMOOTH",
"45 112 OFFCURVE",
"124 -8 OFFCURVE",
"304 -8 CURVE SMOOTH"
);
},
{
closed = 1;
nodes = (
"222 105 OFFCURVE",
"193 179 OFFCURVE",
"193 280 CURVE SMOOTH",
"193 371 OFFCURVE",
"221 464 OFFCURVE",
"303 464 CURVE SMOOTH",
"391 464 OFFCURVE",
"414 369 OFFCURVE",
"414 278 CURVE SMOOTH",
"414 177 OFFCURVE",
"388 105 OFFCURVE",
"305 105 CURVE SMOOTH"
);
},
{
closed = 1;
nodes = (
"345 211 OFFCURVE",
"376 242 OFFCURVE",
"376 283 CURVE SMOOTH",
"376 324 OFFCURVE",
"345 355 OFFCURVE",
"304 355 CURVE SMOOTH",
"263 355 OFFCURVE",
"232 324 OFFCURVE",
"232 283 CURVE SMOOTH",
"232 242 OFFCURVE",
"263 211 OFFCURVE",
"304 211 CURVE SMOOTH"
);
},
{
closed = 1;
nodes = (
"418 464 LINE SMOOTH",
"521 464 OFFCURVE",
"582 503 OFFCURVE",
"582 585 CURVE SMOOTH",
"582 606 OFFCURVE",
"577 627 OFFCURVE",
"568 649 CURVE",
"446 649 LINE",
"450 639 OFFCURVE",
"452 629 OFFCURVE",
"452 619 CURVE SMOOTH",
"452 589 OFFCURVE",
"429 576 OFFCURVE",
"389 576 CURVE SMOOTH",
"30 576 LINE",
"30 464 LINE"
);
}
);
};
layerId = "9609CB55-EFEB-482C-9A6C-237B4D7F8578";
name = Bold;
paths = (
{
closed = 1;
nodes = (
"448 464 LINE SMOOTH",
"551 464 OFFCURVE",
"612 503 OFFCURVE",
"612 585 CURVE SMOOTH",
"612 606 OFFCURVE",
"607 627 OFFCURVE",
"598 649 CURVE",
"476 649 LINE",
"480 639 OFFCURVE",
"482 629 OFFCURVE",
"482 619 CURVE SMOOTH",
"482 589 OFFCURVE",
"459 576 OFFCURVE",
"419 576 CURVE SMOOTH",
"30 576 LINE",
"30 464 LINE"
);
},
{
closed = 1;
nodes = (
"497 -8 OFFCURVE",
"597 115 OFFCURVE",
"597 283 CURVE SMOOTH",
"597 417 OFFCURVE",
"520 542 OFFCURVE",
"319 542 CURVE SMOOTH",
"128 542 OFFCURVE",
"40 417 OFFCURVE",
"40 274 CURVE SMOOTH",
"40 112 OFFCURVE",
"137 -8 OFFCURVE",
"319 -8 CURVE SMOOTH"
);
},
{
closed = 1;
nodes = (
"235 105 OFFCURVE",
"192 179 OFFCURVE",
"192 280 CURVE SMOOTH",
"192 371 OFFCURVE",
"231 464 OFFCURVE",
"318 464 CURVE SMOOTH",
"411 464 OFFCURVE",
"445 369 OFFCURVE",
"445 278 CURVE SMOOTH",
"445 177 OFFCURVE",
"405 105 OFFCURVE",
"320 105 CURVE SMOOTH"
);
},
{
closed = 1;
nodes = (
"359 214 OFFCURVE",
"390 245 OFFCURVE",
"390 286 CURVE SMOOTH",
"390 327 OFFCURVE",
"359 358 OFFCURVE",
"318 358 CURVE SMOOTH",
"277 358 OFFCURVE",
"246 327 OFFCURVE",
"246 286 CURVE SMOOTH",
"246 245 OFFCURVE",
"277 214 OFFCURVE",
"318 214 CURVE SMOOTH"
);
}
);
width = 642;
},
{
background = {
paths = (
{
closed = 1;
nodes = (
"407 -10 OFFCURVE",
"496 103 OFFCURVE",
"496 287 CURVE SMOOTH",
"496 466 OFFCURVE",
"407 571 OFFCURVE",
"273 571 CURVE SMOOTH",
"138 571 OFFCURVE",
"49 466 OFFCURVE",
"49 287 CURVE SMOOTH",
"49 103 OFFCURVE",
"138 -10 OFFCURVE",
"273 -10 CURVE SMOOTH"
);
},
{
closed = 1;
nodes = (
"177 42 OFFCURVE",
"111 136 OFFCURVE",
"111 286 CURVE SMOOTH",
"111 433 OFFCURVE",
"177 522 OFFCURVE",
"273 522 CURVE SMOOTH",
"368 522 OFFCURVE",
"434 433 OFFCURVE",
"434 286 CURVE SMOOTH",
"434 136 OFFCURVE",
"368 42 OFFCURVE",
"273 42 CURVE SMOOTH"
);
},
{
closed = 1;
nodes = (
"305 230 OFFCURVE",
"328 253 OFFCURVE",
"328 284 CURVE SMOOTH",
"328 315 OFFCURVE",
"305 338 OFFCURVE",
"274 338 CURVE SMOOTH",
"243 338 OFFCURVE",
"220 315 OFFCURVE",
"220 284 CURVE SMOOTH",
"220 253 OFFCURVE",
"243 230 OFFCURVE",
"274 230 CURVE SMOOTH"
);
},
{
closed = 1;
nodes = (
"400 522 LINE SMOOTH",
"476 522 OFFCURVE",
"510 555 OFFCURVE",
"510 611 CURVE SMOOTH",
"510 623 OFFCURVE",
"508 636 OFFCURVE",
"504 649 CURVE",
"446 649 LINE",
"448 639 OFFCURVE",
"449 631 OFFCURVE",
"449 623 CURVE SMOOTH",
"449 591 OFFCURVE",
"427 576 OFFCURVE",
"384 576 CURVE SMOOTH",
"40 576 LINE",
"40 522 LINE"
);
}
);
};
layerId = "DCCD84DA-95A9-4923-A49E-D7B289AC34C6";
name = Light;
paths = (
{
closed = 1;
nodes = (
"440 522 LINE SMOOTH",
"516 522 OFFCURVE",
"550 555 OFFCURVE",
"550 611 CURVE SMOOTH",
"550 623 OFFCURVE",
"548 636 OFFCURVE",
"544 649 CURVE",
"486 649 LINE",
"488 639 OFFCURVE",
"489 631 OFFCURVE",
"489 623 CURVE SMOOTH",
"489 591 OFFCURVE",
"467 576 OFFCURVE",
"424 576 CURVE SMOOTH",
"40 576 LINE",
"40 522 LINE"
);
},
{
closed = 1;
nodes = (
"438 -10 OFFCURVE",
"542 103 OFFCURVE",
"542 287 CURVE SMOOTH",
"542 466 OFFCURVE",
"438 569 OFFCURVE",
"294 569 CURVE SMOOTH",
"149 569 OFFCURVE",
"45 466 OFFCURVE",
"45 287 CURVE SMOOTH",
"45 103 OFFCURVE",
"149 -10 OFFCURVE",
"294 -10 CURVE SMOOTH"
);
},
{
closed = 1;
nodes = (
"188 42 OFFCURVE",
"107 136 OFFCURVE",
"107 286 CURVE SMOOTH",
"107 433 OFFCURVE",
"188 522 OFFCURVE",
"294 522 CURVE SMOOTH",
"399 522 OFFCURVE",
"480 433 OFFCURVE",
"480 286 CURVE SMOOTH",
"480 136 OFFCURVE",
"399 42 OFFCURVE",
"294 42 CURVE SMOOTH"
);
},
{
closed = 1;
nodes = (
"326 230 OFFCURVE",
"349 253 OFFCURVE",
"349 284 CURVE SMOOTH",
"349 315 OFFCURVE",
"326 338 OFFCURVE",
"295 338 CURVE SMOOTH",
"264 338 OFFCURVE",
"241 315 OFFCURVE",
"241 284 CURVE SMOOTH",
"241 253 OFFCURVE",
"264 230 OFFCURVE",
"295 230 CURVE SMOOTH"
);
}
);
width = 590;
}
);
leftMetricsKey = kn_a;
rightMetricsKey = kn_a;
unicode = 0CA0;
},
{
glyphname = knDDA;
lastChange = "2015-07-03 09:42:13 +0000";
layers = (
{
background = {
paths = (
{
closed = 1;
nodes = (
"330 -9 OFFCURVE",
"398 36 OFFCURVE",
"414 114 CURVE",
"426 38 OFFCURVE",
"505 -9 OFFCURVE",
"592 -9 CURVE SMOOTH",
"729 -9 OFFCURVE",
"835 83 OFFCURVE",
"835 225 CURVE SMOOTH",
"835 411 OFFCURVE",
"668 538 OFFCURVE",
"400 538 CURVE SMOOTH",
"197 538 OFFCURVE",
"30 400 OFFCURVE",
"30 209 CURVE SMOOTH",
"30 83 OFFCURVE",
"106 -9 OFFCURVE",
"243 -9 CURVE SMOOTH"
);
},
{
closed = 1;
nodes = (
"202 106 OFFCURVE",
"172 151 OFFCURVE",
"172 219 CURVE SMOOTH",
"172 336 OFFCURVE",
"262 464 OFFCURVE",
"432 464 CURVE SMOOTH",
"480 464 OFFCURVE",
"524 457 OFFCURVE",
"563 444 CURVE",
"566 465 LINE",
"500 444 OFFCURVE",
"464 389 OFFCURVE",
"464 327 CURVE SMOOTH",
"464 245 OFFCURVE",
"535 190 OFFCURVE",
"614 190 CURVE SMOOTH",
"674 190 OFFCURVE",
"719 222 OFFCURVE",
"740 272 CURVE",
"718 291 LINE",
"723 273 OFFCURVE",
"726 258 OFFCURVE",
"726 242 CURVE SMOOTH",
"726 161 OFFCURVE",
"675 106 OFFCURVE",
"596 106 CURVE SMOOTH",
"529 106 OFFCURVE",
"485 147 OFFCURVE",
"485 210 CURVE SMOOTH",
"485 221 LINE",
"343 221 LINE",
"343 210 LINE SMOOTH",
"343 147 OFFCURVE",
"308 106 OFFCURVE",
"258 106 CURVE SMOOTH"
);
},
{
closed = 1;
nodes = (
"593 281 OFFCURVE",
"568 306 OFFCURVE",
"568 337 CURVE SMOOTH",
"568 368 OFFCURVE",
"593 393 OFFCURVE",
"624 393 CURVE SMOOTH",
"655 393 OFFCURVE",
"680 368 OFFCURVE",
"680 337 CURVE SMOOTH",
"680 306 OFFCURVE",
"655 281 OFFCURVE",
"624 281 CURVE SMOOTH"
);
},
{
closed = 1;
nodes = (
"671 464 LINE SMOOTH",
"774 464 OFFCURVE",
"835 503 OFFCURVE",
"835 585 CURVE SMOOTH",
"835 606 OFFCURVE",
"830 627 OFFCURVE",
"821 649 CURVE",
"699 649 LINE",
"703 639 OFFCURVE",
"705 629 OFFCURVE",
"705 619 CURVE SMOOTH",
"705 589 OFFCURVE",
"682 576 OFFCURVE",
"642 576 CURVE SMOOTH",
"30 576 LINE",
"30 464 LINE"
);
}
);
};
layerId = "9609CB55-EFEB-482C-9A6C-237B4D7F8578";
name = Bold;
paths = (
{
closed = 1;
nodes = (
"330 -9 OFFCURVE",
"398 36 OFFCURVE",
"414 114 CURVE",
"426 38 OFFCURVE",
"505 -9 OFFCURVE",
"592 -9 CURVE SMOOTH",
"729 -9 OFFCURVE",
"835 83 OFFCURVE",
"835 225 CURVE SMOOTH",
"835 411 OFFCURVE",
"668 538 OFFCURVE",
"400 538 CURVE SMOOTH",
"197 538 OFFCURVE",
"30 400 OFFCURVE",
"30 209 CURVE SMOOTH",
"30 83 OFFCURVE",
"106 -9 OFFCURVE",
"243 -9 CURVE SMOOTH"
);
},
{
closed = 1;
nodes = (
"202 106 OFFCURVE",
"172 151 OFFCURVE",
"172 219 CURVE SMOOTH",
"172 336 OFFCURVE",
"262 464 OFFCURVE",
"432 464 CURVE SMOOTH",
"480 464 OFFCURVE",
"524 457 OFFCURVE",
"563 444 CURVE",
"566 465 LINE",
"502 452 OFFCURVE",
"464 390 OFFCURVE",
"464 329 CURVE SMOOTH",
"464 246 OFFCURVE",
"522 190 OFFCURVE",
"609 190 CURVE SMOOTH",
"670 190 OFFCURVE",
"723 223 OFFCURVE",
"740 272 CURVE",
"718 291 LINE",
"723 273 OFFCURVE",
"726 258 OFFCURVE",
"726 242 CURVE SMOOTH",
"726 161 OFFCURVE",
"675 106 OFFCURVE",
"596 106 CURVE SMOOTH",
"529 106 OFFCURVE",
"485 147 OFFCURVE",
"485 210 CURVE SMOOTH",
"485 221 LINE",
"343 221 LINE",
"343 210 LINE SMOOTH",
"343 147 OFFCURVE",
"308 106 OFFCURVE",
"258 106 CURVE SMOOTH"
);
},
{
closed = 1;
nodes = (
"590 281 OFFCURVE",
"568 304 OFFCURVE",
"568 335 CURVE SMOOTH",
"568 368 OFFCURVE",
"593 393 OFFCURVE",
"624 393 CURVE SMOOTH",
"655 393 OFFCURVE",
"680 368 OFFCURVE",
"680 337 CURVE SMOOTH",
"680 306 OFFCURVE",
"655 281 OFFCURVE",
"624 281 CURVE SMOOTH"
);
},
{
closed = 1;
nodes = (
"671 464 LINE SMOOTH",
"774 464 OFFCURVE",
"835 503 OFFCURVE",
"835 585 CURVE SMOOTH",
"835 606 OFFCURVE",
"830 627 OFFCURVE",
"821 649 CURVE",
"699 649 LINE",
"703 639 OFFCURVE",
"705 629 OFFCURVE",
"705 619 CURVE SMOOTH",
"705 589 OFFCURVE",
"682 576 OFFCURVE",
"642 576 CURVE SMOOTH",
"30 576 LINE",
"30 464 LINE"
);
}
);
width = 865;
},
{
background = {
paths = (
{
closed = 1;
nodes = (
"324 -10 OFFCURVE",
"384 36 OFFCURVE",
"394 109 CURVE",
"404 36 OFFCURVE",
"467 -10 OFFCURVE",
"557 -10 CURVE SMOOTH",
"677 -10 OFFCURVE",
"754 87 OFFCURVE",
"754 229 CURVE SMOOTH",
"754 426 OFFCURVE",
"617 571 OFFCURVE",
"373 571 CURVE SMOOTH",
"187 571 OFFCURVE",
"40 421 OFFCURVE",
"40 229 CURVE SMOOTH",
"40 90 OFFCURVE",
"114 -10 OFFCURVE",
"245 -10 CURVE SMOOTH"
);
},
{
closed = 1;
nodes = (
"152 42 OFFCURVE",
"102 123 OFFCURVE",
"102 229 CURVE SMOOTH",
"102 393 OFFCURVE",
"227 522 OFFCURVE",
"387 522 CURVE SMOOTH",
"440 522 OFFCURVE",
"558 499 OFFCURVE",
"598 490 CURVE",
"535 490 LINE",
"442 484 OFFCURVE",
"400 417 OFFCURVE",
"400 357 CURVE SMOOTH",
"400 287 OFFCURVE",
"455 229 OFFCURVE",
"541 229 CURVE SMOOTH",
"622 229 OFFCURVE",
"676 299 OFFCURVE",
"671 369 CURVE",
"647 388 LINE",
"690 326 OFFCURVE",
"693 295 OFFCURVE",
"693 229 CURVE SMOOTH",
"693 118 OFFCURVE",
"640 42 OFFCURVE",
"557 42 CURVE SMOOTH",
"479 42 OFFCURVE",
"424 97 OFFCURVE",
"424 176 CURVE SMOOTH",
"424 209 LINE",
"363 209 LINE",
"363 176 LINE SMOOTH",
"363 97 OFFCURVE",
"312 42 OFFCURVE",
"245 42 CURVE SMOOTH"
);
},
{
closed = 1;
nodes = (
"491 281 OFFCURVE",
"459 314 OFFCURVE",
"459 360 CURVE SMOOTH",
"459 406 OFFCURVE",
"493 442 OFFCURVE",
"541 442 CURVE SMOOTH",
"590 442 OFFCURVE",
"623 406 OFFCURVE",
"623 360 CURVE SMOOTH",
"623 315 OFFCURVE",
"589 281 OFFCURVE",
"541 281 CURVE SMOOTH"
);
},
{
closed = 1;
nodes = (
"644 522 LINE SMOOTH",
"720 522 OFFCURVE",
"754 555 OFFCURVE",
"754 611 CURVE SMOOTH",
"754 623 OFFCURVE",
"752 636 OFFCURVE",
"748 649 CURVE",
"690 649 LINE",
"692 639 OFFCURVE",
"693 631 OFFCURVE",
"693 623 CURVE SMOOTH",
"693 591 OFFCURVE",
"671 576 OFFCURVE",
"628 576 CURVE SMOOTH",
"48 576 LINE",
"48 522 LINE"
);
}
);
};
layerId = "DCCD84DA-95A9-4923-A49E-D7B289AC34C6";
name = Light;
paths = (
{
closed = 1;
nodes = (
"324 -10 OFFCURVE",
"384 39 OFFCURVE",
"394 109 CURVE",
"402 42 OFFCURVE",
"467 -10 OFFCURVE",
"562 -10 CURVE SMOOTH",
"676 -10 OFFCURVE",
"754 86 OFFCURVE",
"754 221 CURVE SMOOTH",
"754 417 OFFCURVE",
"624 567 OFFCURVE",
"387 567 CURVE SMOOTH",
"189 567 OFFCURVE",
"40 417 OFFCURVE",
"40 221 CURVE SMOOTH",
"40 86 OFFCURVE",
"116 -10 OFFCURVE",
"245 -10 CURVE SMOOTH"
);
},
{
closed = 1;
nodes = (
"155 42 OFFCURVE",
"102 119 OFFCURVE",
"102 221 CURVE SMOOTH",
"102 388 OFFCURVE",
"234 522 OFFCURVE",
"397 522 CURVE SMOOTH",
"485 522 OFFCURVE",
"533 503 OFFCURVE",
"583 470 CURVE",
"570 491 LINE",
"477 491 OFFCURVE",
"424 427 OFFCURVE",
"424 358 CURVE SMOOTH",
"424 286 OFFCURVE",
"479 230 OFFCURVE",
"559 230 CURVE SMOOTH",
"644 230 OFFCURVE",
"696 294 OFFCURVE",
"696 368 CURVE",
"647 388 LINE",
"683 337 OFFCURVE",
"697 287 OFFCURVE",
"697 221 CURVE SMOOTH",
"697 113 OFFCURVE",
"642 42 OFFCURVE",
"562 42 CURVE SMOOTH",
"479 42 OFFCURVE",
"424 97 OFFCURVE",
"424 176 CURVE SMOOTH",
"424 209 LINE",
"363 209 LINE",
"363 176 LINE SMOOTH",
"363 97 OFFCURVE",
"312 42 OFFCURVE",
"245 42 CURVE SMOOTH"
);
},
{
closed = 1;
nodes = (
"515 282 OFFCURVE",
"483 315 OFFCURVE",
"483 361 CURVE SMOOTH",
"483 407 OFFCURVE",
"517 443 OFFCURVE",
"565 443 CURVE SMOOTH",
"613 443 OFFCURVE",
"647 407 OFFCURVE",
"647 361 CURVE SMOOTH",
"647 317 OFFCURVE",
"613 282 OFFCURVE",
"565 282 CURVE SMOOTH"
);
},
{
closed = 1;
nodes = (
"644 522 LINE SMOOTH",
"720 522 OFFCURVE",
"754 555 OFFCURVE",
"754 611 CURVE SMOOTH",
"754 623 OFFCURVE",
"752 636 OFFCURVE",
"748 649 CURVE",
"690 649 LINE",
"692 639 OFFCURVE",
"693 631 OFFCURVE",
"693 623 CURVE SMOOTH",
"693 591 OFFCURVE",
"671 576 OFFCURVE",
"628 576 CURVE SMOOTH",
"48 576 LINE",
"48 522 LINE"
);
}
);
width = 794;
}
);
leftMetricsKey = kn_a;
rightMetricsKey = kn_a;
unicode = 0CA1;
},
{
glyphname = knDDHA;
lastChange = "2015-07-03 09:42:13 +0000";
layers = (
{
background = {
paths = (
{
closed = 1;
nodes = (
"330 -9 OFFCURVE",
"398 36 OFFCURVE",
"414 114 CURVE",
"426 38 OFFCURVE",
"505 -9 OFFCURVE",
"592 -9 CURVE SMOOTH",
"729 -9 OFFCURVE",
"835 83 OFFCURVE",
"835 225 CURVE SMOOTH",
"835 411 OFFCURVE",
"668 538 OFFCURVE",
"400 538 CURVE SMOOTH",
"197 538 OFFCURVE",
"30 400 OFFCURVE",
"30 209 CURVE SMOOTH",
"30 83 OFFCURVE",
"106 -9 OFFCURVE",
"243 -9 CURVE SMOOTH"
);
},
{
closed = 1;
nodes = (
"492 -196 LINE",
"492 -181 LINE",
"448 4 LINE",
"382 4 LINE",
"338 -181 LINE",
"338 -196 LINE"
);
},
{
closed = 1;
nodes = (
"202 106 OFFCURVE",
"172 151 OFFCURVE",
"172 219 CURVE SMOOTH",
"172 336 OFFCURVE",
"262 464 OFFCURVE",
"432 464 CURVE SMOOTH",
"480 464 OFFCURVE",
"524 457 OFFCURVE",
"563 444 CURVE",
"566 465 LINE",
"500 444 OFFCURVE",
"464 389 OFFCURVE",
"464 327 CURVE SMOOTH",
"464 245 OFFCURVE",
"535 190 OFFCURVE",
"614 190 CURVE SMOOTH",
"674 190 OFFCURVE",
"719 222 OFFCURVE",
"740 272 CURVE",
"718 291 LINE",
"723 273 OFFCURVE",
"726 258 OFFCURVE",
"726 242 CURVE SMOOTH",
"726 161 OFFCURVE",
"675 106 OFFCURVE",
"596 106 CURVE SMOOTH",
"529 106 OFFCURVE",
"485 147 OFFCURVE",
"485 210 CURVE SMOOTH",
"485 221 LINE",
"343 221 LINE",
"343 210 LINE SMOOTH",
"343 147 OFFCURVE",
"308 106 OFFCURVE",
"258 106 CURVE SMOOTH"
);
},
{
closed = 1;
nodes = (
"593 281 OFFCURVE",
"568 306 OFFCURVE",
"568 337 CURVE SMOOTH",
"568 368 OFFCURVE",
"593 393 OFFCURVE",
"624 393 CURVE SMOOTH",
"655 393 OFFCURVE",
"680 368 OFFCURVE",
"680 337 CURVE SMOOTH",
"680 306 OFFCURVE",
"655 281 OFFCURVE",
"624 281 CURVE SMOOTH"
);
},
{
closed = 1;
nodes = (
"671 464 LINE SMOOTH",
"774 464 OFFCURVE",
"835 503 OFFCURVE",
"835 585 CURVE SMOOTH",
"835 606 OFFCURVE",
"830 627 OFFCURVE",
"821 649 CURVE",
"699 649 LINE",
"703 639 OFFCURVE",
"705 629 OFFCURVE",
"705 619 CURVE SMOOTH",
"705 589 OFFCURVE",
"682 576 OFFCURVE",
"642 576 CURVE SMOOTH",
"30 576 LINE",
"30 464 LINE"
);
}
);
};
layerId = "9609CB55-EFEB-482C-9A6C-237B4D7F8578";
name = Bold;
paths = (
{
closed = 1;
nodes = (
"330 -9 OFFCURVE",
"398 36 OFFCURVE",
"414 114 CURVE",
"426 38 OFFCURVE",
"505 -9 OFFCURVE",
"592 -9 CURVE SMOOTH",
"729 -9 OFFCURVE",
"835 83 OFFCURVE",
"835 225 CURVE SMOOTH",
"835 411 OFFCURVE",
"668 538 OFFCURVE",
"400 538 CURVE SMOOTH",
"197 538 OFFCURVE",
"30 400 OFFCURVE",
"30 209 CURVE SMOOTH",
"30 83 OFFCURVE",
"106 -9 OFFCURVE",
"243 -9 CURVE SMOOTH"
);
},
{
closed = 1;
nodes = (
"492 -196 LINE",
"492 -181 LINE",
"448 4 LINE",
"382 4 LINE",
"338 -181 LINE",
"338 -196 LINE"
);
},
{
closed = 1;
nodes = (
"202 106 OFFCURVE",
"172 151 OFFCURVE",
"172 219 CURVE SMOOTH",
"172 336 OFFCURVE",
"262 464 OFFCURVE",
"432 464 CURVE SMOOTH",
"480 464 OFFCURVE",
"524 457 OFFCURVE",
"563 444 CURVE",
"566 465 LINE",
"502 452 OFFCURVE",
"464 390 OFFCURVE",
"464 329 CURVE SMOOTH",
"464 246 OFFCURVE",
"522 190 OFFCURVE",
"609 190 CURVE SMOOTH",
"670 190 OFFCURVE",
"723 223 OFFCURVE",
"740 272 CURVE",
"718 291 LINE",
"723 273 OFFCURVE",
"726 258 OFFCURVE",
"726 242 CURVE SMOOTH",
"726 161 OFFCURVE",
"675 106 OFFCURVE",
"596 106 CURVE SMOOTH",
"529 106 OFFCURVE",
"485 147 OFFCURVE",
"485 210 CURVE SMOOTH",
"485 221 LINE",
"343 221 LINE",
"343 210 LINE SMOOTH",
"343 147 OFFCURVE",
"308 106 OFFCURVE",
"258 106 CURVE SMOOTH"
);
},
{
closed = 1;
nodes = (
"590 281 OFFCURVE",
"568 304 OFFCURVE",
"568 335 CURVE SMOOTH",
"568 368 OFFCURVE",
"593 393 OFFCURVE",
"624 393 CURVE SMOOTH",
"655 393 OFFCURVE",
"680 368 OFFCURVE",
"680 337 CURVE SMOOTH",
"680 306 OFFCURVE",
"655 281 OFFCURVE",
"624 281 CURVE SMOOTH"
);
},
{
closed = 1;
nodes = (
"671 464 LINE SMOOTH",
"774 464 OFFCURVE",
"835 503 OFFCURVE",
"835 585 CURVE SMOOTH",
"835 606 OFFCURVE",
"830 627 OFFCURVE",
"821 649 CURVE",
"699 649 LINE",
"703 639 OFFCURVE",
"705 629 OFFCURVE",
"705 619 CURVE SMOOTH",
"705 589 OFFCURVE",
"682 576 OFFCURVE",
"642 576 CURVE SMOOTH",
"30 576 LINE",
"30 464 LINE"
);
}
);
width = 865;
},
{
background = {
paths = (
{
closed = 1;
nodes = (
"324 -10 OFFCURVE",
"384 36 OFFCURVE",
"394 109 CURVE",
"404 36 OFFCURVE",
"467 -10 OFFCURVE",
"557 -10 CURVE SMOOTH",
"677 -10 OFFCURVE",
"754 87 OFFCURVE",
"754 229 CURVE SMOOTH",
"754 426 OFFCURVE",
"617 571 OFFCURVE",
"373 571 CURVE SMOOTH",
"187 571 OFFCURVE",
"40 421 OFFCURVE",
"40 229 CURVE SMOOTH",
"40 90 OFFCURVE",
"114 -10 OFFCURVE",
"245 -10 CURVE SMOOTH"
);
},
{
closed = 1;
nodes = (
"152 42 OFFCURVE",
"102 123 OFFCURVE",
"102 229 CURVE SMOOTH",
"102 393 OFFCURVE",
"227 522 OFFCURVE",
"387 522 CURVE SMOOTH",
"440 522 OFFCURVE",
"471 515 OFFCURVE",
"511 506 CURVE",
"525 521 LINE",
"432 515 OFFCURVE",
"390 448 OFFCURVE",
"390 388 CURVE SMOOTH",
"390 318 OFFCURVE",
"445 260 OFFCURVE",
"531 260 CURVE SMOOTH",
"612 260 OFFCURVE",
"666 330 OFFCURVE",
"661 400 CURVE",
"637 419 LINE",
"674 365 OFFCURVE",
"692 295 OFFCURVE",
"692 229 CURVE SMOOTH",
"692 118 OFFCURVE",
"640 42 OFFCURVE",
"557 42 CURVE SMOOTH",
"479 42 OFFCURVE",
"424 97 OFFCURVE",
"424 176 CURVE SMOOTH",
"424 209 LINE",
"363 209 LINE",
"363 176 LINE SMOOTH",
"363 97 OFFCURVE",
"312 42 OFFCURVE",
"245 42 CURVE SMOOTH"
);
},
{
closed = 1;
nodes = (
"481 312 OFFCURVE",
"449 345 OFFCURVE",
"449 391 CURVE SMOOTH",
"449 437 OFFCURVE",
"483 473 OFFCURVE",
"531 473 CURVE SMOOTH",
"580 473 OFFCURVE",
"613 437 OFFCURVE",
"613 391 CURVE SMOOTH",
"613 346 OFFCURVE",
"579 312 OFFCURVE",
"531 312 CURVE SMOOTH"
);
},
{
closed = 1;
nodes = (
"644 522 LINE SMOOTH",
"720 522 OFFCURVE",
"754 555 OFFCURVE",
"754 611 CURVE SMOOTH",
"754 623 OFFCURVE",
"752 636 OFFCURVE",
"748 649 CURVE",
"690 649 LINE",
"692 639 OFFCURVE",
"693 631 OFFCURVE",
"693 623 CURVE SMOOTH",
"693 591 OFFCURVE",
"671 576 OFFCURVE",
"628 576 CURVE SMOOTH",
"48 576 LINE",
"48 522 LINE"
);
}
);
};
layerId = "DCCD84DA-95A9-4923-A49E-D7B289AC34C6";
name = Light;
paths = (
{
closed = 1;
nodes = (
"324 -10 OFFCURVE",
"384 39 OFFCURVE",
"394 109 CURVE",
"402 42 OFFCURVE",
"467 -10 OFFCURVE",
"562 -10 CURVE SMOOTH",
"676 -10 OFFCURVE",
"754 86 OFFCURVE",
"754 221 CURVE SMOOTH",
"754 417 OFFCURVE",
"624 567 OFFCURVE",
"387 567 CURVE SMOOTH",
"189 567 OFFCURVE",
"40 417 OFFCURVE",
"40 221 CURVE SMOOTH",
"40 86 OFFCURVE",
"116 -10 OFFCURVE",
"245 -10 CURVE SMOOTH"
);
},
{
closed = 1;
nodes = (
"437 -196 LINE",
"437 -181 LINE",
"406 4 LINE",
"380 4 LINE",
"349 -181 LINE",
"349 -196 LINE"
);
},
{
closed = 1;
nodes = (
"155 42 OFFCURVE",
"102 119 OFFCURVE",
"102 221 CURVE SMOOTH",
"102 388 OFFCURVE",
"234 522 OFFCURVE",
"397 522 CURVE SMOOTH",
"485 522 OFFCURVE",
"533 503 OFFCURVE",
"583 470 CURVE",
"570 491 LINE",
"477 491 OFFCURVE",
"424 427 OFFCURVE",
"424 358 CURVE SMOOTH",
"424 286 OFFCURVE",
"479 230 OFFCURVE",
"559 230 CURVE SMOOTH",
"644 230 OFFCURVE",
"696 294 OFFCURVE",
"696 368 CURVE",
"647 388 LINE",
"683 337 OFFCURVE",
"697 287 OFFCURVE",
"697 221 CURVE SMOOTH",
"697 113 OFFCURVE",
"642 42 OFFCURVE",
"562 42 CURVE SMOOTH",
"479 42 OFFCURVE",
"424 97 OFFCURVE",
"424 176 CURVE SMOOTH",
"424 209 LINE",
"363 209 LINE",
"363 176 LINE SMOOTH",
"363 97 OFFCURVE",
"312 42 OFFCURVE",
"245 42 CURVE SMOOTH"
);
},
{
closed = 1;
nodes = (
"515 282 OFFCURVE",
"483 315 OFFCURVE",
"483 361 CURVE SMOOTH",
"483 407 OFFCURVE",
"517 443 OFFCURVE",
"565 443 CURVE SMOOTH",
"613 443 OFFCURVE",
"647 407 OFFCURVE",
"647 361 CURVE SMOOTH",
"647 317 OFFCURVE",
"613 282 OFFCURVE",
"565 282 CURVE SMOOTH"
);
},
{
closed = 1;
nodes = (
"644 522 LINE SMOOTH",
"720 522 OFFCURVE",
"754 555 OFFCURVE",
"754 611 CURVE SMOOTH",
"754 623 OFFCURVE",
"752 636 OFFCURVE",
"748 649 CURVE",
"690 649 LINE",
"692 639 OFFCURVE",
"693 631 OFFCURVE",
"693 623 CURVE SMOOTH",
"693 591 OFFCURVE",
"671 576 OFFCURVE",
"628 576 CURVE SMOOTH",
"48 576 LINE",
"48 522 LINE"
);
}
);
width = 794;
}
);
leftMetricsKey = kn_a;
rightMetricsKey = kn_a;
unicode = 0CA2;
},
